<mxfile host="65bd71144e">
    <diagram id="jv1lz1MV-9QwAAN0jdbN" name="Page-1">
        <mxGraphModel dx="542" dy="262" grid="1" gridSize="10" guides="1" tooltips="1" connect="1" arrows="1" fold="1" page="1" pageScale="1" pageWidth="850" pageHeight="1100" math="0" shadow="0">
            <root>
                <mxCell id="0"/>
                <mxCell id="1" parent="0"/>
                <UserObject label="" mermaidData="{&#10;  &quot;data&quot;: &quot;flowchart TD\n    A[Research and Development] --&gt; B[Geneticists]\n    A --&gt; C[Breeders]\n    A --&gt; D[Molecular Biologists]\n    A --&gt; E[Biotechnologists]\n\n    F[Field Research and Trials] --&gt; G[Field Agronomists]\n    F --&gt; H[Data Analysts]\n    F --&gt; I[Soil Scientists]\n\n    J[Regulatory Affairs] --&gt; K[Regulatory Specialists]\n    J --&gt; L[Compliance Officers]\n\n    M[Product Development] --&gt; N[Product Managers]\n    M --&gt; O[Market Researchers]\n\n    P[Commercialization and Sales] --&gt; Q[Sales Representatives]\n    P --&gt; R[Marketing Specialists]\n\n    S[Quality Assurance] --&gt; T[Quality Control Analysts]\n    S --&gt; U[Lab Technicians]\n\n    V[Intellectual Property Management] --&gt; W[IP Attorneys]\n    V --&gt; X[Licensing Specialists]\n\n    Y[Finance and Administration] --&gt; Z[Financial Analysts]\n    Y --&gt; AA[Administrative Staff]\n\n    BB[Supply Chain and Logistics] --&gt; CC[Supply Chain Managers]\n    BB --&gt; DD[Logistics Coordinators]\n\n    EE[Customer Support and Service] --&gt; FF[Customer Service Representatives]\n\n    A --&gt;|Collaborates with| F\n    A --&gt;|Collaborates with| J\n    M --&gt;|Works with| P\n    M --&gt;|Collaborates with| S\n    M --&gt;|Works with| V\n    M --&gt;|Supports| Y\n    M --&gt;|Works with| BB\n    M --&gt;|Supports| EE\n&quot;,&#10;  &quot;config&quot;: {&#10;    &quot;theme&quot;: &quot;neutral&quot;,&#10;    &quot;arrowMarkerAbsolute&quot;: false,&#10;    &quot;flowchart&quot;: {&#10;      &quot;htmlLabels&quot;: false&#10;    },&#10;    &quot;sequence&quot;: {&#10;      &quot;diagramMarginX&quot;: 50,&#10;      &quot;diagramMarginY&quot;: 10,&#10;      &quot;actorMargin&quot;: 50,&#10;      &quot;width&quot;: 150,&#10;      &quot;height&quot;: 65,&#10;      &quot;boxMargin&quot;: 10,&#10;      &quot;boxTextMargin&quot;: 5,&#10;      &quot;noteMargin&quot;: 10,&#10;      &quot;messageMargin&quot;: 35,&#10;      &quot;mirrorActors&quot;: true,&#10;      &quot;bottomMarginAdj&quot;: 1,&#10;      &quot;useMaxWidth&quot;: true,&#10;      &quot;rightAngles&quot;: false,&#10;      &quot;showSequenceNumbers&quot;: false&#10;    },&#10;    &quot;gantt&quot;: {&#10;      &quot;titleTopMargin&quot;: 25,&#10;      &quot;barHeight&quot;: 20,&#10;      &quot;barGap&quot;: 4,&#10;      &quot;topPadding&quot;: 50,&#10;      &quot;leftPadding&quot;: 75,&#10;      &quot;gridLineStartPadding&quot;: 35,&#10;      &quot;fontSize&quot;: 11,&#10;      &quot;fontFamily&quot;: &quot;\&quot;Open-Sans\&quot;, \&quot;sans-serif\&quot;&quot;,&#10;      &quot;numberSectionStyles&quot;: 4,&#10;      &quot;axisFormat&quot;: &quot;%Y-%m-%d&quot;&#10;    }&#10;  }&#10;}" id="9">
                    <mxCell style="shape=image;noLabel=1;verticalAlign=top;imageAspect=1;image=data:image/svg+xml,PHN2ZyB2aWV3Qm94PSIwIDAgMzkyMC41NDEwMTU2MjUgMjM3IiBzdHlsZT0ibWF4LXdpZHRoOiAzOTIwLjU0MTAxNTYyNXB4OyIgaGVpZ2h0PSIyMzciIGFyaWEtbGFiZWxsZWRieT0iY2hhcnQtdGl0bGUtZ2VNZXJtYWlkT3V0cHV0LTE3MjYxNTkxNjM2MDYgY2hhcnQtZGVzYy1nZU1lcm1haWRPdXRwdXQtMTcyNjE1OTE2MzYwNiIgcm9sZT0iaW1nIiB4bWxuczp4bGluaz0iaHR0cDovL3d3dy53My5vcmcvMTk5OS94bGluayIgeG1sbnM9Imh0dHA6Ly93d3cudzMub3JnLzIwMDAvc3ZnIiB3aWR0aD0iMTAwJSIgaWQ9ImdlTWVybWFpZE91dHB1dC0xNzI2MTU5MTYzNjA2Ij48dGl0bGUgaWQ9ImNoYXJ0LXRpdGxlLWdlTWVybWFpZE91dHB1dC0xNzI2MTU5MTYzNjA2Ij48L3RpdGxlPjxkZXNjIGlkPSJjaGFydC1kZXNjLWdlTWVybWFpZE91dHB1dC0xNzI2MTU5MTYzNjA2Ij48L2Rlc2M+PHN0eWxlPiNnZU1lcm1haWRPdXRwdXQtMTcyNjE1OTE2MzYwNiB7Zm9udC1mYW1pbHk6InRyZWJ1Y2hldCBtcyIsdmVyZGFuYSxhcmlhbCxzYW5zLXNlcmlmO2ZvbnQtc2l6ZToxNnB4O2ZpbGw6I2NjYzt9I2dlTWVybWFpZE91dHB1dC0xNzI2MTU5MTYzNjA2IC5lcnJvci1pY29ue2ZpbGw6I2E0NDE0MTt9I2dlTWVybWFpZE91dHB1dC0xNzI2MTU5MTYzNjA2IC5lcnJvci10ZXh0e2ZpbGw6I2RkZDtzdHJva2U6I2RkZDt9I2dlTWVybWFpZE91dHB1dC0xNzI2MTU5MTYzNjA2IC5lZGdlLXRoaWNrbmVzcy1ub3JtYWx7c3Ryb2tlLXdpZHRoOjJweDt9I2dlTWVybWFpZE91dHB1dC0xNzI2MTU5MTYzNjA2IC5lZGdlLXRoaWNrbmVzcy10aGlja3tzdHJva2Utd2lkdGg6My41cHg7fSNnZU1lcm1haWRPdXRwdXQtMTcyNjE1OTE2MzYwNiAuZWRnZS1wYXR0ZXJuLXNvbGlke3N0cm9rZS1kYXNoYXJyYXk6MDt9I2dlTWVybWFpZE91dHB1dC0xNzI2MTU5MTYzNjA2IC5lZGdlLXBhdHRlcm4tZGFzaGVke3N0cm9rZS1kYXNoYXJyYXk6Mzt9I2dlTWVybWFpZE91dHB1dC0xNzI2MTU5MTYzNjA2IC5lZGdlLXBhdHRlcm4tZG90dGVke3N0cm9rZS1kYXNoYXJyYXk6Mjt9I2dlTWVybWFpZE91dHB1dC0xNzI2MTU5MTYzNjA2IC5tYXJrZXJ7ZmlsbDpsaWdodGdyZXk7c3Ryb2tlOmxpZ2h0Z3JleTt9I2dlTWVybWFpZE91dHB1dC0xNzI2MTU5MTYzNjA2IC5tYXJrZXIuY3Jvc3N7c3Ryb2tlOmxpZ2h0Z3JleTt9I2dlTWVybWFpZE91dHB1dC0xNzI2MTU5MTYzNjA2IHN2Z3tmb250LWZhbWlseToidHJlYnVjaGV0IG1zIix2ZXJkYW5hLGFyaWFsLHNhbnMtc2VyaWY7Zm9udC1zaXplOjE2cHg7fSNnZU1lcm1haWRPdXRwdXQtMTcyNjE1OTE2MzYwNiAubGFiZWx7Zm9udC1mYW1pbHk6InRyZWJ1Y2hldCBtcyIsdmVyZGFuYSxhcmlhbCxzYW5zLXNlcmlmO2NvbG9yOiNjY2M7fSNnZU1lcm1haWRPdXRwdXQtMTcyNjE1OTE2MzYwNiAuY2x1c3Rlci1sYWJlbCB0ZXh0e2ZpbGw6I0Y5RkZGRTt9I2dlTWVybWFpZE91dHB1dC0xNzI2MTU5MTYzNjA2IC5jbHVzdGVyLWxhYmVsIHNwYW57Y29sb3I6I0Y5RkZGRTt9I2dlTWVybWFpZE91dHB1dC0xNzI2MTU5MTYzNjA2IC5sYWJlbCB0ZXh0LCNnZU1lcm1haWRPdXRwdXQtMTcyNjE1OTE2MzYwNiBzcGFue2ZpbGw6I2NjYztjb2xvcjojY2NjO30jZ2VNZXJtYWlkT3V0cHV0LTE3MjYxNTkxNjM2MDYgLm5vZGUgcmVjdCwjZ2VNZXJtYWlkT3V0cHV0LTE3MjYxNTkxNjM2MDYgLm5vZGUgY2lyY2xlLCNnZU1lcm1haWRPdXRwdXQtMTcyNjE1OTE2MzYwNiAubm9kZSBlbGxpcHNlLCNnZU1lcm1haWRPdXRwdXQtMTcyNjE1OTE2MzYwNiAubm9kZSBwb2x5Z29uLCNnZU1lcm1haWRPdXRwdXQtMTcyNjE1OTE2MzYwNiAubm9kZSBwYXRoe2ZpbGw6IzFmMjAyMDtzdHJva2U6IzgxQjFEQjtzdHJva2Utd2lkdGg6MXB4O30jZ2VNZXJtYWlkT3V0cHV0LTE3MjYxNTkxNjM2MDYgLm5vZGUgLmxhYmVse3RleHQtYWxpZ246Y2VudGVyO30jZ2VNZXJtYWlkT3V0cHV0LTE3MjYxNTkxNjM2MDYgLm5vZGUuY2xpY2thYmxle2N1cnNvcjpwb2ludGVyO30jZ2VNZXJtYWlkT3V0cHV0LTE3MjYxNTkxNjM2MDYgLmFycm93aGVhZFBhdGh7ZmlsbDpsaWdodGdyZXk7fSNnZU1lcm1haWRPdXRwdXQtMTcyNjE1OTE2MzYwNiAuZWRnZVBhdGggLnBhdGh7c3Ryb2tlOmxpZ2h0Z3JleTtzdHJva2Utd2lkdGg6Mi4wcHg7fSNnZU1lcm1haWRPdXRwdXQtMTcyNjE1OTE2MzYwNiAuZmxvd2NoYXJ0LWxpbmt7c3Ryb2tlOmxpZ2h0Z3JleTtmaWxsOm5vbmU7fSNnZU1lcm1haWRPdXRwdXQtMTcyNjE1OTE2MzYwNiAuZWRnZUxhYmVse2JhY2tncm91bmQtY29sb3I6aHNsKDAsIDAlLCAzNC40MTE3NjQ3MDU5JSk7dGV4dC1hbGlnbjpjZW50ZXI7fSNnZU1lcm1haWRPdXRwdXQtMTcyNjE1OTE2MzYwNiAuZWRnZUxhYmVsIHJlY3R7b3BhY2l0eTowLjU7YmFja2dyb3VuZC1jb2xvcjpoc2woMCwgMCUsIDM0LjQxMTc2NDcwNTklKTtmaWxsOmhzbCgwLCAwJSwgMzQuNDExNzY0NzA1OSUpO30jZ2VNZXJtYWlkT3V0cHV0LTE3MjYxNTkxNjM2MDYgLmNsdXN0ZXIgcmVjdHtmaWxsOmhzbCgxODAsIDEuNTg3MzAxNTg3MyUsIDI4LjM1Mjk0MTE3NjUlKTtzdHJva2U6cmdiYSgyNTUsIDI1NSwgMjU1LCAwLjI1KTtzdHJva2Utd2lkdGg6MXB4O30jZ2VNZXJtYWlkT3V0cHV0LTE3MjYxNTkxNjM2MDYgLmNsdXN0ZXIgdGV4dHtmaWxsOiNGOUZGRkU7fSNnZU1lcm1haWRPdXRwdXQtMTcyNjE1OTE2MzYwNiAuY2x1c3RlciBzcGFue2NvbG9yOiNGOUZGRkU7fSNnZU1lcm1haWRPdXRwdXQtMTcyNjE1OTE2MzYwNiBkaXYubWVybWFpZFRvb2x0aXB7cG9zaXRpb246YWJzb2x1dGU7dGV4dC1hbGlnbjpjZW50ZXI7bWF4LXdpZHRoOjIwMHB4O3BhZGRpbmc6MnB4O2ZvbnQtZmFtaWx5OiJ0cmVidWNoZXQgbXMiLHZlcmRhbmEsYXJpYWwsc2Fucy1zZXJpZjtmb250LXNpemU6MTJweDtiYWNrZ3JvdW5kOmhzbCgyMCwgMS41ODczMDE1ODczJSwgMTIuMzUyOTQxMTc2NSUpO2JvcmRlcjoxcHggc29saWQgcmdiYSgyNTUsIDI1NSwgMjU1LCAwLjI1KTtib3JkZXItcmFkaXVzOjJweDtwb2ludGVyLWV2ZW50czpub25lO3otaW5kZXg6MTAwO30jZ2VNZXJtYWlkT3V0cHV0LTE3MjYxNTkxNjM2MDYgOnJvb3R7LS1tZXJtYWlkLWZvbnQtZmFtaWx5OiJ0cmVidWNoZXQgbXMiLHZlcmRhbmEsYXJpYWwsc2Fucy1zZXJpZjt9PC9zdHlsZT48ZyB0cmFuc2Zvcm09InRyYW5zbGF0ZSgwLCAwKSI+PG1hcmtlciBvcmllbnQ9ImF1dG8iIG1hcmtlckhlaWdodD0iMTIiIG1hcmtlcldpZHRoPSIxMiIgbWFya2VyVW5pdHM9InVzZXJTcGFjZU9uVXNlIiByZWZZPSI1IiByZWZYPSI5IiB2aWV3Qm94PSIwIDAgMTAgMTAiIGNsYXNzPSJtYXJrZXIgZmxvd2NoYXJ0IiBpZD0iZmxvd2NoYXJ0LXBvaW50RW5kIj48cGF0aCBzdHlsZT0ic3Ryb2tlLXdpZHRoOiAxOyBzdHJva2UtZGFzaGFycmF5OiAxLCAwOyIgY2xhc3M9ImFycm93TWFya2VyUGF0aCIgZD0iTSAwIDAgTCAxMCA1IEwgMCAxMCB6Ij48L3BhdGg+PC9tYXJrZXI+PG1hcmtlciBvcmllbnQ9ImF1dG8iIG1hcmtlckhlaWdodD0iMTIiIG1hcmtlcldpZHRoPSIxMiIgbWFya2VyVW5pdHM9InVzZXJTcGFjZU9uVXNlIiByZWZZPSI1IiByZWZYPSIwIiB2aWV3Qm94PSIwIDAgMTAgMTAiIGNsYXNzPSJtYXJrZXIgZmxvd2NoYXJ0IiBpZD0iZmxvd2NoYXJ0LXBvaW50U3RhcnQiPjxwYXRoIHN0eWxlPSJzdHJva2Utd2lkdGg6IDE7IHN0cm9rZS1kYXNoYXJyYXk6IDEsIDA7IiBjbGFzcz0iYXJyb3dNYXJrZXJQYXRoIiBkPSJNIDAgNSBMIDEwIDEwIEwgMTAgMCB6Ij48L3BhdGg+PC9tYXJrZXI+PG1hcmtlciBvcmllbnQ9ImF1dG8iIG1hcmtlckhlaWdodD0iMTEiIG1hcmtlcldpZHRoPSIxMSIgbWFya2VyVW5pdHM9InVzZXJTcGFjZU9uVXNlIiByZWZZPSI1IiByZWZYPSIxMSIgdmlld0JveD0iMCAwIDEwIDEwIiBjbGFzcz0ibWFya2VyIGZsb3djaGFydCIgaWQ9ImZsb3djaGFydC1jaXJjbGVFbmQiPjxjaXJjbGUgc3R5bGU9InN0cm9rZS13aWR0aDogMTsgc3Ryb2tlLWRhc2hhcnJheTogMSwgMDsiIGNsYXNzPSJhcnJvd01hcmtlclBhdGgiIHI9IjUiIGN5PSI1IiBjeD0iNSI+PC9jaXJjbGU+PC9tYXJrZXI+PG1hcmtlciBvcmllbnQ9ImF1dG8iIG1hcmtlckhlaWdodD0iMTEiIG1hcmtlcldpZHRoPSIxMSIgbWFya2VyVW5pdHM9InVzZXJTcGFjZU9uVXNlIiByZWZZPSI1IiByZWZYPSItMSIgdmlld0JveD0iMCAwIDEwIDEwIiBjbGFzcz0ibWFya2VyIGZsb3djaGFydCIgaWQ9ImZsb3djaGFydC1jaXJjbGVTdGFydCI+PGNpcmNsZSBzdHlsZT0ic3Ryb2tlLXdpZHRoOiAxOyBzdHJva2UtZGFzaGFycmF5OiAxLCAwOyIgY2xhc3M9ImFycm93TWFya2VyUGF0aCIgcj0iNSIgY3k9IjUiIGN4PSI1Ij48L2NpcmNsZT48L21hcmtlcj48bWFya2VyIG9yaWVudD0iYXV0byIgbWFya2VySGVpZ2h0PSIxMSIgbWFya2VyV2lkdGg9IjExIiBtYXJrZXJVbml0cz0idXNlclNwYWNlT25Vc2UiIHJlZlk9IjUuMiIgcmVmWD0iMTIiIHZpZXdCb3g9IjAgMCAxMSAxMSIgY2xhc3M9Im1hcmtlciBjcm9zcyBmbG93Y2hhcnQiIGlkPSJmbG93Y2hhcnQtY3Jvc3NFbmQiPjxwYXRoIHN0eWxlPSJzdHJva2Utd2lkdGg6IDI7IHN0cm9rZS1kYXNoYXJyYXk6IDEsIDA7IiBjbGFzcz0iYXJyb3dNYXJrZXJQYXRoIiBkPSJNIDEsMSBsIDksOSBNIDEwLDEgbCAtOSw5Ij48L3BhdGg+PC9tYXJrZXI+PG1hcmtlciBvcmllbnQ9ImF1dG8iIG1hcmtlckhlaWdodD0iMTEiIG1hcmtlcldpZHRoPSIxMSIgbWFya2VyVW5pdHM9InVzZXJTcGFjZU9uVXNlIiByZWZZPSI1LjIiIHJlZlg9Ii0xIiB2aWV3Qm94PSIwIDAgMTEgMTEiIGNsYXNzPSJtYXJrZXIgY3Jvc3MgZmxvd2NoYXJ0IiBpZD0iZmxvd2NoYXJ0LWNyb3NzU3RhcnQiPjxwYXRoIHN0eWxlPSJzdHJva2Utd2lkdGg6IDI7IHN0cm9rZS1kYXNoYXJyYXk6IDEsIDA7IiBjbGFzcz0iYXJyb3dNYXJrZXJQYXRoIiBkPSJNIDEsMSBsIDksOSBNIDEwLDEgbCAtOSw5Ij48L3BhdGg+PC9tYXJrZXI+PGcgY2xhc3M9InJvb3QiPjxnIGNsYXNzPSJjbHVzdGVycyI+PC9nPjxnIGNsYXNzPSJlZGdlUGF0aHMiPjxwYXRoIG1hcmtlci1lbmQ9InVybCgjZmxvd2NoYXJ0LXBvaW50RW5kKSIgc3R5bGU9ImZpbGw6bm9uZTsiIGNsYXNzPSJlZGdlLXRoaWNrbmVzcy1ub3JtYWwgZWRnZS1wYXR0ZXJuLXNvbGlkIGZsb3djaGFydC1saW5rIExTLUEgTEUtQiIgaWQ9IkwtQS1CLTAiIGQ9Ik0yNzIuNDEwMTU2MjUsNDEuNzg1NTM3MzEwNTMyNDVMMjM2LjI3NzM0Mzc1LDQ3LjU3MTI4MTA5MjExMDM3NUMyMDAuMTQ0NTMxMjUsNTMuMzU3MDI0ODczNjg4Mjk2LDEyNy44Nzg5MDYyNSw2NC45Mjg1MTI0MzY4NDQxNCw5MS43NDYwOTM3NSw3Ni40NjQyNTYyMTg0MjIwOEM1NS42MTMyODEyNSw4OCw1NS42MTMyODEyNSw5OS41LDU1LjYxMzI4MTI1LDEwNS4yNUw1NS42MTMyODEyNSwxMTEiPjwvcGF0aD48cGF0aCBtYXJrZXItZW5kPSJ1cmwoI2Zsb3djaGFydC1wb2ludEVuZCkiIHN0eWxlPSJmaWxsOm5vbmU7IiBjbGFzcz0iZWRnZS10aGlja25lc3Mtbm9ybWFsIGVkZ2UtcGF0dGVybi1zb2xpZCBmbG93Y2hhcnQtbGluayBMUy1BIExFLUMiIGlkPSJMLUEtQy0wIiBkPSJNMzE2LjI2MzE1OTg5MDc3NjcsNDJMMjk1LjYzOTIyMTc4Mzk4MDYsNDcuNzVDMjc1LjAxNTI4MzY3NzE4NDQ3LDUzLjUsMjMzLjc2NzQwNzQ2MzU5MjI0LDY1LDIxMy4xNDM0NjkzNTY3OTYxMiw3Ni41QzE5Mi41MTk1MzEyNSw4OCwxOTIuNTE5NTMxMjUsOTkuNSwxOTIuNTE5NTMxMjUsMTA1LjI1TDE5Mi41MTk1MzEyNSwxMTEiPjwvcGF0aD48cGF0aCBtYXJrZXItZW5kPSJ1cmwoI2Zsb3djaGFydC1wb2ludEVuZCkiIHN0eWxlPSJmaWxsOm5vbmU7IiBjbGFzcz0iZWRnZS10aGlja25lc3Mtbm9ybWFsIGVkZ2UtcGF0dGVybi1zb2xpZCBmbG93Y2hhcnQtbGluayBMUy1BIExFLUQiIGlkPSJMLUEtRC0wIiBkPSJNMzcxLjgzODA5OTIxMTE2NTA2LDQyTDM3MC4wMTE1NjcwNTA5NzA5LDQ3Ljc1QzM2OC4xODUwMzQ4OTA3NzY3LDUzLjUsMzY0LjUzMTk3MDU3MDM4ODQsNjUsMzYyLjcwNTQzODQxMDE5NDIsNzYuNUMzNjAuODc4OTA2MjUsODgsMzYwLjg3ODkwNjI1LDk5LjUsMzYwLjg3ODkwNjI1LDEwNS4yNUwzNjAuODc4OTA2MjUsMTExIj48L3BhdGg+PHBhdGggbWFya2VyLWVuZD0idXJsKCNmbG93Y2hhcnQtcG9pbnRFbmQpIiBzdHlsZT0iZmlsbDpub25lOyIgY2xhc3M9ImVkZ2UtdGhpY2tuZXNzLW5vcm1hbCBlZGdlLXBhdHRlcm4tc29saWQgZmxvd2NoYXJ0LWxpbmsgTFMtQSBMRS1FIiBpZD0iTC1BLUUtMCIgZD0iTTQzNi4yMjYzNzI4NzYyMTM2LDQyTDQ1Ni4xNzgyMjczOTY4NDQ2NSw0Ny43NUM0NzYuMTMwMDgxOTE3NDc1NzYsNTMuNSw1MTYuMDMzNzkwOTU4NzM3OSw2NSw1MzUuOTg1NjQ1NDc5MzY4OSw3Ni41QzU1NS45Mzc1LDg4LDU1NS45Mzc1LDk5LjUsNTU1LjkzNzUsMTA1LjI1TDU1NS45Mzc1LDExMSI+PC9wYXRoPjxwYXRoIG1hcmtlci1lbmQ9InVybCgjZmxvd2NoYXJ0LXBvaW50RW5kKSIgc3R5bGU9ImZpbGw6bm9uZTsiIGNsYXNzPSJlZGdlLXRoaWNrbmVzcy1ub3JtYWwgZWRnZS1wYXR0ZXJuLXNvbGlkIGZsb3djaGFydC1saW5rIExTLUYgTEUtRyIgaWQ9IkwtRi1HLTAiIGQ9Ik02NzEuOTI5Njg3NSwxNDMuNzM2MTc2MzQ3ODM5M0w2NDUuMTAzODQxMTQ1ODMzNCwxNDguMTEzNDgwMjg5ODY2MUM2MTguMjc3OTk0NzkxNjY2NiwxNTIuNDkwNzg0MjMxODkyODYsNTY0LjYyNjMwMjA4MzMzMzQsMTYxLjI0NTM5MjExNTk0NjQzLDUzNy44MDA0NTU3MjkxNjY2LDE2OS43ODkzNjI3MjQ2Mzk5QzUxMC45NzQ2MDkzNzUsMTc4LjMzMzMzMzMzMzMzMzM0LDUxMC45NzQ2MDkzNzUsMTg2LjY2NjY2NjY2NjY2NjY2LDUxMC45NzQ2MDkzNzUsMTkwLjgzMzMzMzMzMzMzMzM0TDUxMC45NzQ2MDkzNzUsMTk1Ij48L3BhdGg+PHBhdGggbWFya2VyLWVuZD0idXJsKCNmbG93Y2hhcnQtcG9pbnRFbmQpIiBzdHlsZT0iZmlsbDpub25lOyIgY2xhc3M9ImVkZ2UtdGhpY2tuZXNzLW5vcm1hbCBlZGdlLXBhdHRlcm4tc29saWQgZmxvd2NoYXJ0LWxpbmsgTFMtRiBMRS1IIiBpZD0iTC1GLUgtMCIgZD0iTTczNS41MTI2OTUzMTI1LDE0NUw3MjcuNDYwMTIzNjk3OTE2NiwxNDkuMTY2NjY2NjY2NjY2NjZDNzE5LjQwNzU1MjA4MzMzMzQsMTUzLjMzMzMzMzMzMzMzMzM0LDcwMy4zMDI0MDg4NTQxNjY2LDE2MS42NjY2NjY2NjY2NjY2Niw2OTUuMjQ5ODM3MjM5NTgzNCwxNzBDNjg3LjE5NzI2NTYyNSwxNzguMzMzMzMzMzMzMzMzMzQsNjg3LjE5NzI2NTYyNSwxODYuNjY2NjY2NjY2NjY2NjYsNjg3LjE5NzI2NTYyNSwxOTAuODMzMzMzMzMzMzMzMzRMNjg3LjE5NzI2NTYyNSwxOTUiPjwvcGF0aD48cGF0aCBtYXJrZXItZW5kPSJ1cmwoI2Zsb3djaGFydC1wb2ludEVuZCkiIHN0eWxlPSJmaWxsOm5vbmU7IiBjbGFzcz0iZWRnZS10aGlja25lc3Mtbm9ybWFsIGVkZ2UtcGF0dGVybi1zb2xpZCBmbG93Y2hhcnQtbGluayBMUy1GIExFLUkiIGlkPSJMLUYtSS0wIiBkPSJNODAxLjIyMTY3OTY4NzUsMTQ1TDgwOS4yNzQyNTEzMDIwODM0LDE0OS4xNjY2NjY2NjY2NjY2NkM4MTcuMzI2ODIyOTE2NjY2NiwxNTMuMzMzMzMzMzMzMzMzMzQsODMzLjQzMTk2NjE0NTgzMzQsMTYxLjY2NjY2NjY2NjY2NjY2LDg0MS40ODQ1Mzc3NjA0MTY2LDE3MEM4NDkuNTM3MTA5Mzc1LDE3OC4zMzMzMzMzMzMzMzMzNCw4NDkuNTM3MTA5Mzc1LDE4Ni42NjY2NjY2NjY2NjY2Niw4NDkuNTM3MTA5Mzc1LDE5MC44MzMzMzMzMzMzMzMzNEw4NDkuNTM3MTA5Mzc1LDE5NSI+PC9wYXRoPjxwYXRoIG1hcmtlci1lbmQ9InVybCgjZmxvd2NoYXJ0LXBvaW50RW5kKSIgc3R5bGU9ImZpbGw6bm9uZTsiIGNsYXNzPSJlZGdlLXRoaWNrbmVzcy1ub3JtYWwgZWRnZS1wYXR0ZXJuLXNvbGlkIGZsb3djaGFydC1saW5rIExTLUogTEUtSyIgaWQ9IkwtSi1LLTAiIGQ9Ik0xMTIyLjM0MDU0MTI5NDY0MywxNDVMMTEwOC45NzYxNjcyMjQ3MDI1LDE0OS4xNjY2NjY2NjY2NjY2NkMxMDk1LjYxMTc5MzE1NDc2MiwxNTMuMzMzMzMzMzMzMzMzMzQsMTA2OC44ODMwNDUwMTQ4ODEsMTYxLjY2NjY2NjY2NjY2NjY2LDEwNTUuNTE4NjcwOTQ0OTQwNiwxNzBDMTA0Mi4xNTQyOTY4NzUsMTc4LjMzMzMzMzMzMzMzMzM0LDEwNDIuMTU0Mjk2ODc1LDE4Ni42NjY2NjY2NjY2NjY2NiwxMDQyLjE1NDI5Njg3NSwxOTAuODMzMzMzMzMzMzMzMzRMMTA0Mi4xNTQyOTY4NzUsMTk1Ij48L3BhdGg+PHBhdGggbWFya2VyLWVuZD0idXJsKCNmbG93Y2hhcnQtcG9pbnRFbmQpIiBzdHlsZT0iZmlsbDpub25lOyIgY2xhc3M9ImVkZ2UtdGhpY2tuZXNzLW5vcm1hbCBlZGdlLXBhdHRlcm4tc29saWQgZmxvd2NoYXJ0LWxpbmsgTFMtSiBMRS1MIiBpZD0iTC1KLUwtMCIgZD0iTTEyNDguMjI2NTYyNSwxNDQuNjI0MTg0Nzc2NzIwOUwxMjY2LjM4MDg1OTM3NSwxNDguODUzNDg3MzEzOTM0MUMxMjg0LjUzNTE1NjI1LDE1My4wODI3ODk4NTExNDcyOCwxMzIwLjg0Mzc1LDE2MS41NDEzOTQ5MjU1NzM2MywxMzM4Ljk5ODA0Njg3NSwxNjkuOTM3MzY0MTI5NDUzNDdDMTM1Ny4xNTIzNDM3NSwxNzguMzMzMzMzMzMzMzMzMzQsMTM1Ny4xNTIzNDM3NSwxODYuNjY2NjY2NjY2NjY2NjYsMTM1Ny4xNTIzNDM3NSwxOTAuODMzMzMzMzMzMzMzMzRMMTM1Ny4xNTIzNDM3NSwxOTUiPjwvcGF0aD48cGF0aCBtYXJrZXItZW5kPSJ1cmwoI2Zsb3djaGFydC1wb2ludEVuZCkiIHN0eWxlPSJmaWxsOm5vbmU7IiBjbGFzcz0iZWRnZS10aGlja25lc3Mtbm9ybWFsIGVkZ2UtcGF0dGVybi1zb2xpZCBmbG93Y2hhcnQtbGluayBMUy1NIExFLU4iIGlkPSJMLU0tTi0wIiBkPSJNMjMwNy4wNjQ0NTMxMjUsMjkuMjc0MDU3MjE1MzAyOThMMjE1MC43MjQ5MzQ4OTU4MzM1LDM3LjE0NTA0NzY3OTQxOTE1QzE5OTQuMzg1NDE2NjY2NjY2Nyw0NS4wMTYwMzgxNDM1MzUzMiwxNjgxLjcwNjM4MDIwODMzMzMsNjAuNzU4MDE5MDcxNzY3NjU2LDE1MjUuMzY2ODYxOTc5MTY2Nyw3NC4zNzkwMDk1MzU4ODM4NEMxMzY5LjAyNzM0Mzc1LDg4LDEzNjkuMDI3MzQzNzUsOTkuNSwxMzY5LjAyNzM0Mzc1LDEwNS4yNUwxMzY5LjAyNzM0Mzc1LDExMSI+PC9wYXRoPjxwYXRoIG1hcmtlci1lbmQ9InVybCgjZmxvd2NoYXJ0LXBvaW50RW5kKSIgc3R5bGU9ImZpbGw6bm9uZTsiIGNsYXNzPSJlZGdlLXRoaWNrbmVzcy1ub3JtYWwgZWRnZS1wYXR0ZXJuLXNvbGlkIGZsb3djaGFydC1saW5rIExTLU0gTEUtTyIgaWQ9IkwtTS1PLTAiIGQ9Ik0yMzA3LjA2NDQ1MzEyNSwzMC4zMDQzMTE0NTgxMjM1MjVMMjE4My44Mzg4NjcxODc1LDM4LjAwMzU5Mjg4MTc2OTYwNkMyMDYwLjYxMzI4MTI1LDQ1LjcwMjg3NDMwNTQxNTY4LDE4MTQuMTYyMTA5Mzc1LDYxLjEwMTQzNzE1MjcwNzg0LDE2OTAuOTM2NTIzNDM3NSw3NC41NTA3MTg1NzYzNTM5M0MxNTY3LjcxMDkzNzUsODgsMTU2Ny43MTA5Mzc1LDk5LjUsMTU2Ny43MTA5Mzc1LDEwNS4yNUwxNTY3LjcxMDkzNzUsMTExIj48L3BhdGg+PHBhdGggbWFya2VyLWVuZD0idXJsKCNmbG93Y2hhcnQtcG9pbnRFbmQpIiBzdHlsZT0iZmlsbDpub25lOyIgY2xhc3M9ImVkZ2UtdGhpY2tuZXNzLW5vcm1hbCBlZGdlLXBhdHRlcm4tc29saWQgZmxvd2NoYXJ0LWxpbmsgTFMtUCBMRS1RIiBpZD0iTC1QLVEtMCIgZD0iTTE3MTEuNjA5MTg4OTg4MDk1MiwxNDVMMTY4OC40MTE5NTQzNjUwNzkzLDE0OS4xNjY2NjY2NjY2NjY2NkMxNjY1LjIxNDcxOTc0MjA2MzYsMTUzLjMzMzMzMzMzMzMzMzM0LDE2MTguODIwMjUwNDk2MDMxOCwxNjEuNjY2NjY2NjY2NjY2NjYsMTU5NS42MjMwMTU4NzMwMTYsMTcwQzE1NzIuNDI1NzgxMjUsMTc4LjMzMzMzMzMzMzMzMzM0LDE1NzIuNDI1NzgxMjUsMTg2LjY2NjY2NjY2NjY2NjY2LDE1NzIuNDI1NzgxMjUsMTkwLjgzMzMzMzMzMzMzMzM0TDE1NzIuNDI1NzgxMjUsMTk1Ij48L3BhdGg+PHBhdGggbWFya2VyLWVuZD0idXJsKCNmbG93Y2hhcnQtcG9pbnRFbmQpIiBzdHlsZT0iZmlsbDpub25lOyIgY2xhc3M9ImVkZ2UtdGhpY2tuZXNzLW5vcm1hbCBlZGdlLXBhdHRlcm4tc29saWQgZmxvd2NoYXJ0LWxpbmsgTFMtUCBMRS1SIiBpZD0iTC1QLVItMCIgZD0iTTE4MzkuNjIzODM3NDI1NTk1MiwxNDVMMTg0Ny44MDI3NDIxMjU0OTU4LDE0OS4xNjY2NjY2NjY2NjY2NkMxODU1Ljk4MTY0NjgyNTM5NjksMTUzLjMzMzMzMzMzMzMzMzM0LDE4NzIuMzM5NDU2MjI1MTk4NSwxNjEuNjY2NjY2NjY2NjY2NjYsMTg4MC41MTgzNjA5MjUwOTkyLDE3MEMxODg4LjY5NzI2NTYyNSwxNzguMzMzMzMzMzMzMzMzMzQsMTg4OC42OTcyNjU2MjUsMTg2LjY2NjY2NjY2NjY2NjY2LDE4ODguNjk3MjY1NjI1LDE5MC44MzMzMzMzMzMzMzMzNEwxODg4LjY5NzI2NTYyNSwxOTUiPjwvcGF0aD48cGF0aCBtYXJrZXItZW5kPSJ1cmwoI2Zsb3djaGFydC1wb2ludEVuZCkiIHN0eWxlPSJmaWxsOm5vbmU7IiBjbGFzcz0iZWRnZS10aGlja25lc3Mtbm9ybWFsIGVkZ2UtcGF0dGVybi1zb2xpZCBmbG93Y2hhcnQtbGluayBMUy1TIExFLVQiIGlkPSJMLVMtVC0wIiBkPSJNMjE4OS44MjM0MjgxOTk0MDQ2LDE0NUwyMTc3LjQzNzE2NjcyODY3MDUsMTQ5LjE2NjY2NjY2NjY2NjY2QzIxNjUuMDUwOTA1MjU3OTM2NCwxNTMuMzMzMzMzMzMzMzMzMzQsMjE0MC4yNzgzODIzMTY0NjgsMTYxLjY2NjY2NjY2NjY2NjY2LDIxMjcuODkyMTIwODQ1NzM0LDE3MEMyMTE1LjUwNTg1OTM3NSwxNzguMzMzMzMzMzMzMzMzMzQsMjExNS41MDU4NTkzNzUsMTg2LjY2NjY2NjY2NjY2NjY2LDIxMTUuNTA1ODU5Mzc1LDE5MC44MzMzMzMzMzMzMzMzNEwyMTE1LjUwNTg1OTM3NSwxOTUiPjwvcGF0aD48cGF0aCBtYXJrZXItZW5kPSJ1cmwoI2Zsb3djaGFydC1wb2ludEVuZCkiIHN0eWxlPSJmaWxsOm5vbmU7IiBjbGFzcz0iZWRnZS10aGlja25lc3Mtbm9ybWFsIGVkZ2UtcGF0dGVybi1zb2xpZCBmbG93Y2hhcnQtbGluayBMUy1TIExFLVUiIGlkPSJMLVMtVS0wIiBkPSJNMjI3My43MjkzMDYxNzU1OTU0LDE0NUwyMjgxLjkwODIxMDg3NTQ5NiwxNDkuMTY2NjY2NjY2NjY2NjZDMjI5MC4wODcxMTU1NzUzOTcsMTUzLjMzMzMzMzMzMzMzMzM0LDIzMDYuNDQ0OTI0OTc1MTk4MywxNjEuNjY2NjY2NjY2NjY2NjYsMjMxNC42MjM4Mjk2NzUwOTk0LDE3MEMyMzIyLjgwMjczNDM3NSwxNzguMzMzMzMzMzMzMzMzMzQsMjMyMi44MDI3MzQzNzUsMTg2LjY2NjY2NjY2NjY2NjY2LDIzMjIuODAyNzM0Mzc1LDE5MC44MzMzMzMzMzMzMzMzNEwyMzIyLjgwMjczNDM3NSwxOTUiPjwvcGF0aD48cGF0aCBtYXJrZXItZW5kPSJ1cmwoI2Zsb3djaGFydC1wb2ludEVuZCkiIHN0eWxlPSJmaWxsOm5vbmU7IiBjbGFzcz0iZWRnZS10aGlja25lc3Mtbm9ybWFsIGVkZ2UtcGF0dGVybi1zb2xpZCBmbG93Y2hhcnQtbGluayBMUy1WIExFLVciIGlkPSJMLVYtVy0wIiBkPSJNMjU0Ni4wMTAzNzAxNjM2OTA0LDE0NUwyNTM2LjIxNjY0OTYxNTU3NTUsMTQ5LjE2NjY2NjY2NjY2NjY2QzI1MjYuNDIyOTI5MDY3NDYwMiwxNTMuMzMzMzMzMzMzMzMzMzQsMjUwNi44MzU0ODc5NzEyMywxNjEuNjY2NjY2NjY2NjY2NjYsMjQ5Ny4wNDE3Njc0MjMxMTUzLDE3MEMyNDg3LjI0ODA0Njg3NSwxNzguMzMzMzMzMzMzMzMzMzQsMjQ4Ny4yNDgwNDY4NzUsMTg2LjY2NjY2NjY2NjY2NjY2LDI0ODcuMjQ4MDQ2ODc1LDE5MC44MzMzMzMzMzMzMzMzNEwyNDg3LjI0ODA0Njg3NSwxOTUiPjwvcGF0aD48cGF0aCBtYXJrZXItZW5kPSJ1cmwoI2Zsb3djaGFydC1wb2ludEVuZCkiIHN0eWxlPSJmaWxsOm5vbmU7IiBjbGFzcz0iZWRnZS10aGlja25lc3Mtbm9ybWFsIGVkZ2UtcGF0dGVybi1zb2xpZCBmbG93Y2hhcnQtbGluayBMUy1WIExFLVgiIGlkPSJMLVYtWC0wIiBkPSJNMjYxOS4zMzg2ODExNzU1OTU0LDE0NUwyNjI3LjUxNzU4NTg3NTQ5NiwxNDkuMTY2NjY2NjY2NjY2NjZDMjYzNS42OTY0OTA1NzUzOTcsMTUzLjMzMzMzMzMzMzMzMzM0LDI2NTIuMDU0Mjk5OTc1MTk4MywxNjEuNjY2NjY2NjY2NjY2NjYsMjY2MC4yMzMyMDQ2NzUwOTk0LDE3MEMyNjY4LjQxMjEwOTM3NSwxNzguMzMzMzMzMzMzMzMzMzQsMjY2OC40MTIxMDkzNzUsMTg2LjY2NjY2NjY2NjY2NjY2LDI2NjguNDEyMTA5Mzc1LDE5MC44MzMzMzMzMzMzMzMzNEwyNjY4LjQxMjEwOTM3NSwxOTUiPjwvcGF0aD48cGF0aCBtYXJrZXItZW5kPSJ1cmwoI2Zsb3djaGFydC1wb2ludEVuZCkiIHN0eWxlPSJmaWxsOm5vbmU7IiBjbGFzcz0iZWRnZS10aGlja25lc3Mtbm9ybWFsIGVkZ2UtcGF0dGVybi1zb2xpZCBmbG93Y2hhcnQtbGluayBMUy1ZIExFLVoiIGlkPSJMLVktWi0wIiBkPSJNMjk0MC45OTYzMjYyNjQ4ODA3LDE0NUwyOTI5LjE4NDc2NDA3NDkwMDYsMTQ5LjE2NjY2NjY2NjY2NjY2QzI5MTcuMzczMjAxODg0OTIwNSwxNTMuMzMzMzMzMzMzMzMzMzQsMjg5My43NTAwNzc1MDQ5NjA3LDE2MS42NjY2NjY2NjY2NjY2NiwyODgxLjkzODUxNTMxNDk4LDE3MEMyODcwLjEyNjk1MzEyNSwxNzguMzMzMzMzMzMzMzMzMzQsMjg3MC4xMjY5NTMxMjUsMTg2LjY2NjY2NjY2NjY2NjY2LDI4NzAuMTI2OTUzMTI1LDE5MC44MzMzMzMzMzMzMzMzNEwyODcwLjEyNjk1MzEyNSwxOTUiPjwvcGF0aD48cGF0aCBtYXJrZXItZW5kPSJ1cmwoI2Zsb3djaGFydC1wb2ludEVuZCkiIHN0eWxlPSJmaWxsOm5vbmU7IiBjbGFzcz0iZWRnZS10aGlja25lc3Mtbm9ybWFsIGVkZ2UtcGF0dGVybi1zb2xpZCBmbG93Y2hhcnQtbGluayBMUy1ZIExFLUFBIiBpZD0iTC1ZLUFBLTAiIGQ9Ik0zMDIyLjU1NzQzMTE3NTU5NTQsMTQ1TDMwMzAuNzM2MzM1ODc1NDk2LDE0OS4xNjY2NjY2NjY2NjY2NkMzMDM4LjkxNTI0MDU3NTM5NywxNTMuMzMzMzMzMzMzMzMzMzQsMzA1NS4yNzMwNDk5NzUxOTgzLDE2MS42NjY2NjY2NjY2NjY2NiwzMDYzLjQ1MTk1NDY3NTA5OTQsMTcwQzMwNzEuNjMwODU5Mzc1LDE3OC4zMzMzMzMzMzMzMzMzNCwzMDcxLjYzMDg1OTM3NSwxODYuNjY2NjY2NjY2NjY2NjYsMzA3MS42MzA4NTkzNzUsMTkwLjgzMzMzMzMzMzMzMzM0TDMwNzEuNjMwODU5Mzc1LDE5NSI+PC9wYXRoPjxwYXRoIG1hcmtlci1lbmQ9InVybCgjZmxvd2NoYXJ0LXBvaW50RW5kKSIgc3R5bGU9ImZpbGw6bm9uZTsiIGNsYXNzPSJlZGdlLXRoaWNrbmVzcy1ub3JtYWwgZWRnZS1wYXR0ZXJuLXNvbGlkIGZsb3djaGFydC1saW5rIExTLUJCIExFLUNDIiBpZD0iTC1CQi1DQy0wIiBkPSJNMzM3Ni4zMDMwNTk4OTU4MzM1LDE0NUwzMzYyLjEwODk5NTIyNTY5NSwxNDkuMTY2NjY2NjY2NjY2NjZDMzM0Ny45MTQ5MzA1NTU1NTYsMTUzLjMzMzMzMzMzMzMzMzM0LDMzMTkuNTI2ODAxMjE1Mjc4LDE2MS42NjY2NjY2NjY2NjY2NiwzMzA1LjMzMjczNjU0NTEzODcsMTcwQzMyOTEuMTM4NjcxODc1LDE3OC4zMzMzMzMzMzMzMzMzNCwzMjkxLjEzODY3MTg3NSwxODYuNjY2NjY2NjY2NjY2NjYsMzI5MS4xMzg2NzE4NzUsMTkwLjgzMzMzMzMzMzMzMzM0TDMyOTEuMTM4NjcxODc1LDE5NSI+PC9wYXRoPjxwYXRoIG1hcmtlci1lbmQ9InVybCgjZmxvd2NoYXJ0LXBvaW50RW5kKSIgc3R5bGU9ImZpbGw6bm9uZTsiIGNsYXNzPSJlZGdlLXRoaWNrbmVzcy1ub3JtYWwgZWRnZS1wYXR0ZXJuLXNvbGlkIGZsb3djaGFydC1saW5rIExTLUJCIExFLUREIiBpZD0iTC1CQi1ERC0wIiBkPSJNMzQ2Ny41ODQ3NzQ5MjU1OTU0LDE0NUwzNDc1Ljc2MzY3OTYyNTQ5NiwxNDkuMTY2NjY2NjY2NjY2NjZDMzQ4My45NDI1ODQzMjUzOTcsMTUzLjMzMzMzMzMzMzMzMzM0LDM1MDAuMzAwMzkzNzI1MTk4MywxNjEuNjY2NjY2NjY2NjY2NjYsMzUwOC40NzkyOTg0MjUwOTk0LDE3MEMzNTE2LjY1ODIwMzEyNSwxNzguMzMzMzMzMzMzMzMzMzQsMzUxNi42NTgyMDMxMjUsMTg2LjY2NjY2NjY2NjY2NjY2LDM1MTYuNjU4MjAzMTI1LDE5MC44MzMzMzMzMzMzMzMzNEwzNTE2LjY1ODIwMzEyNSwxOTUiPjwvcGF0aD48cGF0aCBtYXJrZXItZW5kPSJ1cmwoI2Zsb3djaGFydC1wb2ludEVuZCkiIHN0eWxlPSJmaWxsOm5vbmU7IiBjbGFzcz0iZWRnZS10aGlja25lc3Mtbm9ybWFsIGVkZ2UtcGF0dGVybi1zb2xpZCBmbG93Y2hhcnQtbGluayBMUy1FRSBMRS1GRiIgaWQ9IkwtRUUtRkYtMCIgZD0iTTM3ODMuMTk3MjY1NjI1LDE0NUwzNzgzLjE5NzI2NTYyNSwxNDkuMTY2NjY2NjY2NjY2NjZDMzc4My4xOTcyNjU2MjUsMTUzLjMzMzMzMzMzMzMzMzM0LDM3ODMuMTk3MjY1NjI1LDE2MS42NjY2NjY2NjY2NjY2NiwzNzgzLjE5NzI2NTYyNSwxNzBDMzc4My4xOTcyNjU2MjUsMTc4LjMzMzMzMzMzMzMzMzM0LDM3ODMuMTk3MjY1NjI1LDE4Ni42NjY2NjY2NjY2NjY2NiwzNzgzLjE5NzI2NTYyNSwxOTAuODMzMzMzMzMzMzMzMzRMMzc4My4xOTcyNjU2MjUsMTk1Ij48L3BhdGg+PHBhdGggbWFya2VyLWVuZD0idXJsKCNmbG93Y2hhcnQtcG9pbnRFbmQpIiBzdHlsZT0iZmlsbDpub25lOyIgY2xhc3M9ImVkZ2UtdGhpY2tuZXNzLW5vcm1hbCBlZGdlLXBhdHRlcm4tc29saWQgZmxvd2NoYXJ0LWxpbmsgTFMtQSBMRS1GIiBpZD0iTC1BLUYtMCIgZD0iTTQ4Mi4wNjY0MDYyNSwzOC44MDI3MzQ0NzI1MzA0M0w1MjkuNzgzMjAzMTI1LDQ1LjA4NTYxMjA2MDQ0MjAzQzU3Ny41LDUxLjM2ODQ4OTY0ODM1MzYyLDY3Mi45MzM1OTM3NSw2My45MzQyNDQ4MjQxNzY4MSw3MjAuNjUwMzkwNjI1LDc1Ljk2NzEyMjQxMjA4ODQxQzc2OC4zNjcxODc1LDg4LDc2OC4zNjcxODc1LDk5LjUsNzY4LjM2NzE4NzUsMTA1LjI1TDc2OC4zNjcxODc1LDExMSI+PC9wYXRoPjxwYXRoIG1hcmtlci1lbmQ9InVybCgjZmxvd2NoYXJ0LXBvaW50RW5kKSIgc3R5bGU9ImZpbGw6bm9uZTsiIGNsYXNzPSJlZGdlLXRoaWNrbmVzcy1ub3JtYWwgZWRnZS1wYXR0ZXJuLXNvbGlkIGZsb3djaGFydC1saW5rIExTLUEgTEUtSiIgaWQ9IkwtQS1KLTAiIGQ9Ik00ODIuMDY2NDA2MjUsMzEuNzUxNDQyMzE5NDM1Mjg0TDU5Ny44NjY1MzY0NTgzMzM0LDM5LjIwOTUzNTI2NjE5NjA3QzcxMy42NjY2NjY2NjY2NjY2LDQ2LjY2NzYyODIxMjk1Njg1Niw5NDUuMjY2OTI3MDgzMzMzNCw2MS41ODM4MTQxMDY0Nzg0MywxMDYxLjA2NzA1NzI5MTY2NjcsNzQuNzkxOTA3MDUzMjM5MjFDMTE3Ni44NjcxODc1LDg4LDExNzYuODY3MTg3NSw5OS41LDExNzYuODY3MTg3NSwxMDUuMjVMMTE3Ni44NjcxODc1LDExMSI+PC9wYXRoPjxwYXRoIG1hcmtlci1lbmQ9InVybCgjZmxvd2NoYXJ0LXBvaW50RW5kKSIgc3R5bGU9ImZpbGw6bm9uZTsiIGNsYXNzPSJlZGdlLXRoaWNrbmVzcy1ub3JtYWwgZWRnZS1wYXR0ZXJuLXNvbGlkIGZsb3djaGFydC1saW5rIExTLU0gTEUtUCIgaWQ9IkwtTS1QLTAiIGQ9Ik0yMzA3LjA2NDQ1MzEyNSwzMi40NjQ2MjQzMDA5NzI3MTZMMjIyMy41OTYwMjg2NDU4MzM1LDM5LjgwMzg1MzU4NDE0MzkzQzIxNDAuMTI3NjA0MTY2NjY2NSw0Ny4xNDMwODI4NjczMTUxNDQsMTk3My4xOTA3NTUyMDgzMzMzLDYxLjgyMTU0MTQzMzY1NzU4LDE4ODkuNzIyMzMwNzI5MTY2Nyw3NC45MTA3NzA3MTY4Mjg4QzE4MDYuMjUzOTA2MjUsODgsMTgwNi4yNTM5MDYyNSw5OS41LDE4MDYuMjUzOTA2MjUsMTA1LjI1TDE4MDYuMjUzOTA2MjUsMTExIj48L3BhdGg+PHBhdGggbWFya2VyLWVuZD0idXJsKCNmbG93Y2hhcnQtcG9pbnRFbmQpIiBzdHlsZT0iZmlsbDpub25lOyIgY2xhc3M9ImVkZ2UtdGhpY2tuZXNzLW5vcm1hbCBlZGdlLXBhdHRlcm4tc29saWQgZmxvd2NoYXJ0LWxpbmsgTFMtTSBMRS1TIiBpZD0iTC1NLVMtMCIgZD0iTTIzNDEuOTE2Mzk0ODcyNTcyNyw0MkwyMzI0Ljk5MDIyNDg5MzgxMDYsNDcuNzVDMjMwOC4wNjQwNTQ5MTUwNDg1LDUzLjUsMjI3NC4yMTE3MTQ5NTc1MjQyLDY1LDIyNTcuMjg1NTQ0OTc4NzYyLDc2LjVDMjI0MC4zNTkzNzUsODgsMjI0MC4zNTkzNzUsOTkuNSwyMjQwLjM1OTM3NSwxMDUuMjVMMjI0MC4zNTkzNzUsMTExIj48L3BhdGg+PHBhdGggbWFya2VyLWVuZD0idXJsKCNmbG93Y2hhcnQtcG9pbnRFbmQpIiBzdHlsZT0iZmlsbDpub25lOyIgY2xhc3M9ImVkZ2UtdGhpY2tuZXNzLW5vcm1hbCBlZGdlLXBhdHRlcm4tc29saWQgZmxvd2NoYXJ0LWxpbmsgTFMtTSBMRS1WIiBpZD0iTC1NLVYtMCIgZD0iTTI0NTYuMDAxMDQyOTMwODI1NCw0MkwyNDc3LjY2MjMyNzQ0MjM1NDYsNDcuNzVDMjQ5OS4zMjM2MTE5NTM4ODM4LDUzLjUsMjU0Mi42NDYxODA5NzY5NDIsNjUsMjU2NC4zMDc0NjU0ODg0NzEsNzYuNUMyNTg1Ljk2ODc1LDg4LDI1ODUuOTY4NzUsOTkuNSwyNTg1Ljk2ODc1LDEwNS4yNUwyNTg1Ljk2ODc1LDExMSI+PC9wYXRoPjxwYXRoIG1hcmtlci1lbmQ9InVybCgjZmxvd2NoYXJ0LXBvaW50RW5kKSIgc3R5bGU9ImZpbGw6bm9uZTsiIGNsYXNzPSJlZGdlLXRoaWNrbmVzcy1ub3JtYWwgZWRnZS1wYXR0ZXJuLXNvbGlkIGZsb3djaGFydC1saW5rIExTLU0gTEUtWSIgaWQ9IkwtTS1ZLTAiIGQ9Ik0yNDc2Ljg1MzUxNTYyNSwzMi4zMjA1OTU0NTg4NDE0NkwyNTYyLjI0MjUxMzAyMDgzMzUsMzkuNjgzODI5NTQ5MDM0NTVDMjY0Ny42MzE1MTA0MTY2NjY1LDQ3LjA0NzA2MzYzOTIyNzY0NSwyODE4LjQwOTUwNTIwODMzMzUsNjEuNzczNTMxODE5NjEzODIsMjkwMy43OTg1MDI2MDQxNjY1LDc0Ljg4Njc2NTkwOTgwNjkxQzI5ODkuMTg3NSw4OCwyOTg5LjE4NzUsOTkuNSwyOTg5LjE4NzUsMTA1LjI1TDI5ODkuMTg3NSwxMTEiPjwvcGF0aD48cGF0aCBtYXJrZXItZW5kPSJ1cmwoI2Zsb3djaGFydC1wb2ludEVuZCkiIHN0eWxlPSJmaWxsOm5vbmU7IiBjbGFzcz0iZWRnZS10aGlja25lc3Mtbm9ybWFsIGVkZ2UtcGF0dGVybi1zb2xpZCBmbG93Y2hhcnQtbGluayBMUy1NIExFLUJCIiBpZD0iTC1NLUJCLTAiIGQ9Ik0yNDc2Ljg1MzUxNTYyNSwyOS4xOTQ4MTI5MzM5MzQyNDRMMjYzNi40MTM3MzY5NzkxNjY1LDM3LjA3OTAxMDc3ODI3ODU0QzI3OTUuOTczOTU4MzMzMzMzNSw0NC45NjMyMDg2MjI2MjI4MywzMTE1LjA5NDQwMTA0MTY2NjUsNjAuNzMxNjA0MzExMzExNDIsMzI3NC42NTQ2MjIzOTU4MzM1LDc0LjM2NTgwMjE1NTY1NTcxQzM0MzQuMjE0ODQzNzUsODgsMzQzNC4yMTQ4NDM3NSw5OS41LDM0MzQuMjE0ODQzNzUsMTA1LjI1TDM0MzQuMjE0ODQzNzUsMTExIj48L3BhdGg+PHBhdGggbWFya2VyLWVuZD0idXJsKCNmbG93Y2hhcnQtcG9pbnRFbmQpIiBzdHlsZT0iZmlsbDpub25lOyIgY2xhc3M9ImVkZ2UtdGhpY2tuZXNzLW5vcm1hbCBlZGdlLXBhdHRlcm4tc29saWQgZmxvd2NoYXJ0LWxpbmsgTFMtTSBMRS1FRSIgaWQ9IkwtTS1FRS0wIiBkPSJNMjQ3Ni44NTM1MTU2MjUsMjguMTQyNTczMzU5NTAxNTdMMjY5NC41Nzc0NzM5NTgzMzM1LDM2LjIwMjE0NDQ2NjI1MTMwNUMyOTEyLjMwMTQzMjI5MTY2NjUsNDQuMjYxNzE1NTczMDAxMDUsMzM0Ny43NDkzNDg5NTgzMzM1LDYwLjM4MDg1Nzc4NjUwMDUyLDM1NjUuNDczMzA3MjkxNjY2NSw3NC4xOTA0Mjg4OTMyNTAyNkMzNzgzLjE5NzI2NTYyNSw4OCwzNzgzLjE5NzI2NTYyNSw5OS41LDM3ODMuMTk3MjY1NjI1LDEwNS4yNUwzNzgzLjE5NzI2NTYyNSwxMTEiPjwvcGF0aD48L2c+PGcgY2xhc3M9ImVkZ2VMYWJlbHMiPjxnIGNsYXNzPSJlZGdlTGFiZWwiPjxnIHRyYW5zZm9ybT0idHJhbnNsYXRlKDAsIDApIiBjbGFzcz0ibGFiZWwiPjxyZWN0IGhlaWdodD0iMCIgd2lkdGg9IjAiIHJ5PSIwIiByeD0iMCI+PC9yZWN0Pjx0ZXh0IHN0eWxlPSIiPjx0c3BhbiBjbGFzcz0icm93IiB4PSIwIiBkeT0iMWVtIiB4bWw6c3BhY2U9InByZXNlcnZlIj48L3RzcGFuPjwvdGV4dD48L2c+PC9nPjxnIGNsYXNzPSJlZGdlTGFiZWwiPjxnIHRyYW5zZm9ybT0idHJhbnNsYXRlKDAsIDApIiBjbGFzcz0ibGFiZWwiPjxyZWN0IGhlaWdodD0iMCIgd2lkdGg9IjAiIHJ5PSIwIiByeD0iMCI+PC9yZWN0Pjx0ZXh0IHN0eWxlPSIiPjx0c3BhbiBjbGFzcz0icm93IiB4PSIwIiBkeT0iMWVtIiB4bWw6c3BhY2U9InByZXNlcnZlIj48L3RzcGFuPjwvdGV4dD48L2c+PC9nPjxnIGNsYXNzPSJlZGdlTGFiZWwiPjxnIHRyYW5zZm9ybT0idHJhbnNsYXRlKDAsIDApIiBjbGFzcz0ibGFiZWwiPjxyZWN0IGhlaWdodD0iMCIgd2lkdGg9IjAiIHJ5PSIwIiByeD0iMCI+PC9yZWN0Pjx0ZXh0IHN0eWxlPSIiPjx0c3BhbiBjbGFzcz0icm93IiB4PSIwIiBkeT0iMWVtIiB4bWw6c3BhY2U9InByZXNlcnZlIj48L3RzcGFuPjwvdGV4dD48L2c+PC9nPjxnIGNsYXNzPSJlZGdlTGFiZWwiPjxnIHRyYW5zZm9ybT0idHJhbnNsYXRlKDAsIDApIiBjbGFzcz0ibGFiZWwiPjxyZWN0IGhlaWdodD0iMCIgd2lkdGg9IjAiIHJ5PSIwIiByeD0iMCI+PC9yZWN0Pjx0ZXh0IHN0eWxlPSIiPjx0c3BhbiBjbGFzcz0icm93IiB4PSIwIiBkeT0iMWVtIiB4bWw6c3BhY2U9InByZXNlcnZlIj48L3RzcGFuPjwvdGV4dD48L2c+PC9nPjxnIGNsYXNzPSJlZGdlTGFiZWwiPjxnIHRyYW5zZm9ybT0idHJhbnNsYXRlKDAsIDApIiBjbGFzcz0ibGFiZWwiPjxyZWN0IGhlaWdodD0iMCIgd2lkdGg9IjAiIHJ5PSIwIiByeD0iMCI+PC9yZWN0Pjx0ZXh0IHN0eWxlPSIiPjx0c3BhbiBjbGFzcz0icm93IiB4PSIwIiBkeT0iMWVtIiB4bWw6c3BhY2U9InByZXNlcnZlIj48L3RzcGFuPjwvdGV4dD48L2c+PC9nPjxnIGNsYXNzPSJlZGdlTGFiZWwiPjxnIHRyYW5zZm9ybT0idHJhbnNsYXRlKDAsIDApIiBjbGFzcz0ibGFiZWwiPjxyZWN0IGhlaWdodD0iMCIgd2lkdGg9IjAiIHJ5PSIwIiByeD0iMCI+PC9yZWN0Pjx0ZXh0IHN0eWxlPSIiPjx0c3BhbiBjbGFzcz0icm93IiB4PSIwIiBkeT0iMWVtIiB4bWw6c3BhY2U9InByZXNlcnZlIj48L3RzcGFuPjwvdGV4dD48L2c+PC9nPjxnIGNsYXNzPSJlZGdlTGFiZWwiPjxnIHRyYW5zZm9ybT0idHJhbnNsYXRlKDAsIDApIiBjbGFzcz0ibGFiZWwiPjxyZWN0IGhlaWdodD0iMCIgd2lkdGg9IjAiIHJ5PSIwIiByeD0iMCI+PC9yZWN0Pjx0ZXh0IHN0eWxlPSIiPjx0c3BhbiBjbGFzcz0icm93IiB4PSIwIiBkeT0iMWVtIiB4bWw6c3BhY2U9InByZXNlcnZlIj48L3RzcGFuPjwvdGV4dD48L2c+PC9nPjxnIGNsYXNzPSJlZGdlTGFiZWwiPjxnIHRyYW5zZm9ybT0idHJhbnNsYXRlKDAsIDApIiBjbGFzcz0ibGFiZWwiPjxyZWN0IGhlaWdodD0iMCIgd2lkdGg9IjAiIHJ5PSIwIiByeD0iMCI+PC9yZWN0Pjx0ZXh0IHN0eWxlPSIiPjx0c3BhbiBjbGFzcz0icm93IiB4PSIwIiBkeT0iMWVtIiB4bWw6c3BhY2U9InByZXNlcnZlIj48L3RzcGFuPjwvdGV4dD48L2c+PC9nPjxnIGNsYXNzPSJlZGdlTGFiZWwiPjxnIHRyYW5zZm9ybT0idHJhbnNsYXRlKDAsIDApIiBjbGFzcz0ibGFiZWwiPjxyZWN0IGhlaWdodD0iMCIgd2lkdGg9IjAiIHJ5PSIwIiByeD0iMCI+PC9yZWN0Pjx0ZXh0IHN0eWxlPSIiPjx0c3BhbiBjbGFzcz0icm93IiB4PSIwIiBkeT0iMWVtIiB4bWw6c3BhY2U9InByZXNlcnZlIj48L3RzcGFuPjwvdGV4dD48L2c+PC9nPjxnIGNsYXNzPSJlZGdlTGFiZWwiPjxnIHRyYW5zZm9ybT0idHJhbnNsYXRlKDAsIDApIiBjbGFzcz0ibGFiZWwiPjxyZWN0IGhlaWdodD0iMCIgd2lkdGg9IjAiIHJ5PSIwIiByeD0iMCI+PC9yZWN0Pjx0ZXh0IHN0eWxlPSIiPjx0c3BhbiBjbGFzcz0icm93IiB4PSIwIiBkeT0iMWVtIiB4bWw6c3BhY2U9InByZXNlcnZlIj48L3RzcGFuPjwvdGV4dD48L2c+PC9nPjxnIGNsYXNzPSJlZGdlTGFiZWwiPjxnIHRyYW5zZm9ybT0idHJhbnNsYXRlKDAsIDApIiBjbGFzcz0ibGFiZWwiPjxyZWN0IGhlaWdodD0iMCIgd2lkdGg9IjAiIHJ5PSIwIiByeD0iMCI+PC9yZWN0Pjx0ZXh0IHN0eWxlPSIiPjx0c3BhbiBjbGFzcz0icm93IiB4PSIwIiBkeT0iMWVtIiB4bWw6c3BhY2U9InByZXNlcnZlIj48L3RzcGFuPjwvdGV4dD48L2c+PC9nPjxnIGNsYXNzPSJlZGdlTGFiZWwiPjxnIHRyYW5zZm9ybT0idHJhbnNsYXRlKDAsIDApIiBjbGFzcz0ibGFiZWwiPjxyZWN0IGhlaWdodD0iMCIgd2lkdGg9IjAiIHJ5PSIwIiByeD0iMCI+PC9yZWN0Pjx0ZXh0IHN0eWxlPSIiPjx0c3BhbiBjbGFzcz0icm93IiB4PSIwIiBkeT0iMWVtIiB4bWw6c3BhY2U9InByZXNlcnZlIj48L3RzcGFuPjwvdGV4dD48L2c+PC9nPjxnIGNsYXNzPSJlZGdlTGFiZWwiPjxnIHRyYW5zZm9ybT0idHJhbnNsYXRlKDAsIDApIiBjbGFzcz0ibGFiZWwiPjxyZWN0IGhlaWdodD0iMCIgd2lkdGg9IjAiIHJ5PSIwIiByeD0iMCI+PC9yZWN0Pjx0ZXh0IHN0eWxlPSIiPjx0c3BhbiBjbGFzcz0icm93IiB4PSIwIiBkeT0iMWVtIiB4bWw6c3BhY2U9InByZXNlcnZlIj48L3RzcGFuPjwvdGV4dD48L2c+PC9nPjxnIGNsYXNzPSJlZGdlTGFiZWwiPjxnIHRyYW5zZm9ybT0idHJhbnNsYXRlKDAsIDApIiBjbGFzcz0ibGFiZWwiPjxyZWN0IGhlaWdodD0iMCIgd2lkdGg9IjAiIHJ5PSIwIiByeD0iMCI+PC9yZWN0Pjx0ZXh0IHN0eWxlPSIiPjx0c3BhbiBjbGFzcz0icm93IiB4PSIwIiBkeT0iMWVtIiB4bWw6c3BhY2U9InByZXNlcnZlIj48L3RzcGFuPjwvdGV4dD48L2c+PC9nPjxnIGNsYXNzPSJlZGdlTGFiZWwiPjxnIHRyYW5zZm9ybT0idHJhbnNsYXRlKDAsIDApIiBjbGFzcz0ibGFiZWwiPjxyZWN0IGhlaWdodD0iMCIgd2lkdGg9IjAiIHJ5PSIwIiByeD0iMCI+PC9yZWN0Pjx0ZXh0IHN0eWxlPSIiPjx0c3BhbiBjbGFzcz0icm93IiB4PSIwIiBkeT0iMWVtIiB4bWw6c3BhY2U9InByZXNlcnZlIj48L3RzcGFuPjwvdGV4dD48L2c+PC9nPjxnIGNsYXNzPSJlZGdlTGFiZWwiPjxnIHRyYW5zZm9ybT0idHJhbnNsYXRlKDAsIDApIiBjbGFzcz0ibGFiZWwiPjxyZWN0IGhlaWdodD0iMCIgd2lkdGg9IjAiIHJ5PSIwIiByeD0iMCI+PC9yZWN0Pjx0ZXh0IHN0eWxlPSIiPjx0c3BhbiBjbGFzcz0icm93IiB4PSIwIiBkeT0iMWVtIiB4bWw6c3BhY2U9InByZXNlcnZlIj48L3RzcGFuPjwvdGV4dD48L2c+PC9nPjxnIGNsYXNzPSJlZGdlTGFiZWwiPjxnIHRyYW5zZm9ybT0idHJhbnNsYXRlKDAsIDApIiBjbGFzcz0ibGFiZWwiPjxyZWN0IGhlaWdodD0iMCIgd2lkdGg9IjAiIHJ5PSIwIiByeD0iMCI+PC9yZWN0Pjx0ZXh0IHN0eWxlPSIiPjx0c3BhbiBjbGFzcz0icm93IiB4PSIwIiBkeT0iMWVtIiB4bWw6c3BhY2U9InByZXNlcnZlIj48L3RzcGFuPjwvdGV4dD48L2c+PC9nPjxnIGNsYXNzPSJlZGdlTGFiZWwiPjxnIHRyYW5zZm9ybT0idHJhbnNsYXRlKDAsIDApIiBjbGFzcz0ibGFiZWwiPjxyZWN0IGhlaWdodD0iMCIgd2lkdGg9IjAiIHJ5PSIwIiByeD0iMCI+PC9yZWN0Pjx0ZXh0IHN0eWxlPSIiPjx0c3BhbiBjbGFzcz0icm93IiB4PSIwIiBkeT0iMWVtIiB4bWw6c3BhY2U9InByZXNlcnZlIj48L3RzcGFuPjwvdGV4dD48L2c+PC9nPjxnIGNsYXNzPSJlZGdlTGFiZWwiPjxnIHRyYW5zZm9ybT0idHJhbnNsYXRlKDAsIDApIiBjbGFzcz0ibGFiZWwiPjxyZWN0IGhlaWdodD0iMCIgd2lkdGg9IjAiIHJ5PSIwIiByeD0iMCI+PC9yZWN0Pjx0ZXh0IHN0eWxlPSIiPjx0c3BhbiBjbGFzcz0icm93IiB4PSIwIiBkeT0iMWVtIiB4bWw6c3BhY2U9InByZXNlcnZlIj48L3RzcGFuPjwvdGV4dD48L2c+PC9nPjxnIGNsYXNzPSJlZGdlTGFiZWwiPjxnIHRyYW5zZm9ybT0idHJhbnNsYXRlKDAsIDApIiBjbGFzcz0ibGFiZWwiPjxyZWN0IGhlaWdodD0iMCIgd2lkdGg9IjAiIHJ5PSIwIiByeD0iMCI+PC9yZWN0Pjx0ZXh0IHN0eWxlPSIiPjx0c3BhbiBjbGFzcz0icm93IiB4PSIwIiBkeT0iMWVtIiB4bWw6c3BhY2U9InByZXNlcnZlIj48L3RzcGFuPjwvdGV4dD48L2c+PC9nPjxnIGNsYXNzPSJlZGdlTGFiZWwiPjxnIHRyYW5zZm9ybT0idHJhbnNsYXRlKDAsIDApIiBjbGFzcz0ibGFiZWwiPjxyZWN0IGhlaWdodD0iMCIgd2lkdGg9IjAiIHJ5PSIwIiByeD0iMCI+PC9yZWN0Pjx0ZXh0IHN0eWxlPSIiPjx0c3BhbiBjbGFzcz0icm93IiB4PSIwIiBkeT0iMWVtIiB4bWw6c3BhY2U9InByZXNlcnZlIj48L3RzcGFuPjwvdGV4dD48L2c+PC9nPjxnIGNsYXNzPSJlZGdlTGFiZWwiPjxnIHRyYW5zZm9ybT0idHJhbnNsYXRlKDAsIDApIiBjbGFzcz0ibGFiZWwiPjxyZWN0IGhlaWdodD0iMCIgd2lkdGg9IjAiIHJ5PSIwIiByeD0iMCI+PC9yZWN0Pjx0ZXh0IHN0eWxlPSIiPjx0c3BhbiBjbGFzcz0icm93IiB4PSIwIiBkeT0iMWVtIiB4bWw6c3BhY2U9InByZXNlcnZlIj48L3RzcGFuPjwvdGV4dD48L2c+PC9nPjxnIHRyYW5zZm9ybT0idHJhbnNsYXRlKDc2OC4zNjcxODc1LCA3Ni41KSIgY2xhc3M9ImVkZ2VMYWJlbCI+PGcgdHJhbnNmb3JtPSJ0cmFuc2xhdGUoLTYzLjE1MjM0Mzc1LCAtOS41KSIgY2xhc3M9ImxhYmVsIj48cmVjdCBoZWlnaHQ9IjE3LjQxMzU3MDQwNDA1MjczNCIgd2lkdGg9IjEyOS43MTA1MTAyNTM5MDYyNSIgcnk9IjAiIHJ4PSIwIj48L3JlY3Q+PHRleHQgc3R5bGU9IiI+PHRzcGFuIGNsYXNzPSJyb3ciIHg9IjAiIGR5PSIxZW0iIHhtbDpzcGFjZT0icHJlc2VydmUiPkNvbGxhYm9yYXRlcyB3aXRoPC90c3Bhbj48L3RleHQ+PC9nPjwvZz48ZyB0cmFuc2Zvcm09InRyYW5zbGF0ZSgxMTc2Ljg2NzE4NzUsIDc2LjUpIiBjbGFzcz0iZWRnZUxhYmVsIj48ZyB0cmFuc2Zvcm09InRyYW5zbGF0ZSgtNjMuMTUyMzQzNzUsIC05LjUpIiBjbGFzcz0ibGFiZWwiPjxyZWN0IGhlaWdodD0iMTcuNDEzNTcwNDA0MDUyNzM0IiB3aWR0aD0iMTI5LjcxMDUxMDI1MzkwNjI1IiByeT0iMCIgcng9IjAiPjwvcmVjdD48dGV4dCBzdHlsZT0iIj48dHNwYW4gY2xhc3M9InJvdyIgeD0iMCIgZHk9IjFlbSIgeG1sOnNwYWNlPSJwcmVzZXJ2ZSI+Q29sbGFib3JhdGVzIHdpdGg8L3RzcGFuPjwvdGV4dD48L2c+PC9nPjxnIHRyYW5zZm9ybT0idHJhbnNsYXRlKDE4MDYuMjUzOTA2MjUsIDc2LjUpIiBjbGFzcz0iZWRnZUxhYmVsIj48ZyB0cmFuc2Zvcm09InRyYW5zbGF0ZSgtMzkuOTQxNDA2MjUsIC05LjUpIiBjbGFzcz0ibGFiZWwiPjxyZWN0IGhlaWdodD0iMTcuNDEzNTcwNDA0MDUyNzM0IiB3aWR0aD0iODIuMzAxNzczMDcxMjg5MDYiIHJ5PSIwIiByeD0iMCI+PC9yZWN0Pjx0ZXh0IHN0eWxlPSIiPjx0c3BhbiBjbGFzcz0icm93IiB4PSIwIiBkeT0iMWVtIiB4bWw6c3BhY2U9InByZXNlcnZlIj5Xb3JrcyB3aXRoPC90c3Bhbj48L3RleHQ+PC9nPjwvZz48ZyB0cmFuc2Zvcm09InRyYW5zbGF0ZSgyMjQwLjM1OTM3NSwgNzYuNSkiIGNsYXNzPSJlZGdlTGFiZWwiPjxnIHRyYW5zZm9ybT0idHJhbnNsYXRlKC02My4xNTIzNDM3NSwgLTkuNSkiIGNsYXNzPSJsYWJlbCI+PHJlY3QgaGVpZ2h0PSIxNy40MTM1NzA0MDQwNTI3MzQiIHdpZHRoPSIxMjkuNzEwNTEwMjUzOTA2MjUiIHJ5PSIwIiByeD0iMCI+PC9yZWN0Pjx0ZXh0IHN0eWxlPSIiPjx0c3BhbiBjbGFzcz0icm93IiB4PSIwIiBkeT0iMWVtIiB4bWw6c3BhY2U9InByZXNlcnZlIj5Db2xsYWJvcmF0ZXMgd2l0aDwvdHNwYW4+PC90ZXh0PjwvZz48L2c+PGcgdHJhbnNmb3JtPSJ0cmFuc2xhdGUoMjU4NS45Njg3NSwgNzYuNSkiIGNsYXNzPSJlZGdlTGFiZWwiPjxnIHRyYW5zZm9ybT0idHJhbnNsYXRlKC0zOS45NDE0MDYyNSwgLTkuNSkiIGNsYXNzPSJsYWJlbCI+PHJlY3QgaGVpZ2h0PSIxNy40MTM1NzA0MDQwNTI3MzQiIHdpZHRoPSI4Mi4zMDE3NzMwNzEyODkwNiIgcnk9IjAiIHJ4PSIwIj48L3JlY3Q+PHRleHQgc3R5bGU9IiI+PHRzcGFuIGNsYXNzPSJyb3ciIHg9IjAiIGR5PSIxZW0iIHhtbDpzcGFjZT0icHJlc2VydmUiPldvcmtzIHdpdGg8L3RzcGFuPjwvdGV4dD48L2c+PC9nPjxnIHRyYW5zZm9ybT0idHJhbnNsYXRlKDI5ODkuMTg3NSwgNzYuNSkiIGNsYXNzPSJlZGdlTGFiZWwiPjxnIHRyYW5zZm9ybT0idHJhbnNsYXRlKC0zMS4yMDcwMzEyNSwgLTkuNSkiIGNsYXNzPSJsYWJlbCI+PHJlY3QgaGVpZ2h0PSIxOS45MDEyMjIyMjkwMDM5MDYiIHdpZHRoPSI2NS4zNDkzNTc2MDQ5ODA0NyIgcnk9IjAiIHJ4PSIwIj48L3JlY3Q+PHRleHQgc3R5bGU9IiI+PHRzcGFuIGNsYXNzPSJyb3ciIHg9IjAiIGR5PSIxZW0iIHhtbDpzcGFjZT0icHJlc2VydmUiPlN1cHBvcnRzPC90c3Bhbj48L3RleHQ+PC9nPjwvZz48ZyB0cmFuc2Zvcm09InRyYW5zbGF0ZSgzNDM0LjIxNDg0Mzc1LCA3Ni41KSIgY2xhc3M9ImVkZ2VMYWJlbCI+PGcgdHJhbnNmb3JtPSJ0cmFuc2xhdGUoLTM5Ljk0MTQwNjI1LCAtOS41KSIgY2xhc3M9ImxhYmVsIj48cmVjdCBoZWlnaHQ9IjE3LjQxMzU3MDQwNDA1MjczNCIgd2lkdGg9IjgyLjMwMTc3MzA3MTI4OTA2IiByeT0iMCIgcng9IjAiPjwvcmVjdD48dGV4dCBzdHlsZT0iIj48dHNwYW4gY2xhc3M9InJvdyIgeD0iMCIgZHk9IjFlbSIgeG1sOnNwYWNlPSJwcmVzZXJ2ZSI+V29ya3Mgd2l0aDwvdHNwYW4+PC90ZXh0PjwvZz48L2c+PGcgdHJhbnNmb3JtPSJ0cmFuc2xhdGUoMzc4My4xOTcyNjU2MjUsIDc2LjUpIiBjbGFzcz0iZWRnZUxhYmVsIj48ZyB0cmFuc2Zvcm09InRyYW5zbGF0ZSgtMzEuMjA3MDMxMjUsIC05LjUpIiBjbGFzcz0ibGFiZWwiPjxyZWN0IGhlaWdodD0iMTkuOTAxMjIyMjI5MDAzOTA2IiB3aWR0aD0iNjUuMzQ5MzU3NjA0OTgwNDciIHJ5PSIwIiByeD0iMCI+PC9yZWN0Pjx0ZXh0IHN0eWxlPSIiPjx0c3BhbiBjbGFzcz0icm93IiB4PSIwIiBkeT0iMWVtIiB4bWw6c3BhY2U9InByZXNlcnZlIj5TdXBwb3J0czwvdHNwYW4+PC90ZXh0PjwvZz48L2c+PC9nPjxnIGNsYXNzPSJub2RlcyI+PGcgdHJhbnNmb3JtPSJ0cmFuc2xhdGUoMzc3LjIzODI4MTI1LCAyNSkiIGlkPSJmbG93Y2hhcnQtQS02MCIgY2xhc3M9Im5vZGUgZGVmYXVsdCBkZWZhdWx0Ij48cmVjdCBoZWlnaHQ9IjM0IiB3aWR0aD0iMjA5LjY1NjI1IiB5PSItMTciIHg9Ii0xMDQuODI4MTI1IiByeT0iMCIgcng9IjAiIHN0eWxlPSIiIGNsYXNzPSJiYXNpYyBsYWJlbC1jb250YWluZXIiPjwvcmVjdD48ZyB0cmFuc2Zvcm09InRyYW5zbGF0ZSgtOTcuMzI4MTI1LCAtOS41KSIgc3R5bGU9IiIgY2xhc3M9ImxhYmVsIj48dGV4dCBzdHlsZT0iIj48dHNwYW4gY2xhc3M9InJvdyIgeD0iMCIgZHk9IjFlbSIgeG1sOnNwYWNlPSJwcmVzZXJ2ZSI+UmVzZWFyY2ggYW5kIERldmVsb3BtZW50PC90c3Bhbj48L3RleHQ+PC9nPjwvZz48ZyB0cmFuc2Zvcm09InRyYW5zbGF0ZSg1NS42MTMyODEyNSwgMTI4KSIgaWQ9ImZsb3djaGFydC1CLTYxIiBjbGFzcz0ibm9kZSBkZWZhdWx0IGRlZmF1bHQiPjxyZWN0IGhlaWdodD0iMzQiIHdpZHRoPSI5NS4yMjY1NjI1IiB5PSItMTciIHg9Ii00Ny42MTMyODEyNSIgcnk9IjAiIHJ4PSIwIiBzdHlsZT0iIiBjbGFzcz0iYmFzaWMgbGFiZWwtY29udGFpbmVyIj48L3JlY3Q+PGcgdHJhbnNmb3JtPSJ0cmFuc2xhdGUoLTQwLjExMzI4MTI1LCAtOS41KSIgc3R5bGU9IiIgY2xhc3M9ImxhYmVsIj48dGV4dCBzdHlsZT0iIj48dHNwYW4gY2xhc3M9InJvdyIgeD0iMCIgZHk9IjFlbSIgeG1sOnNwYWNlPSJwcmVzZXJ2ZSI+R2VuZXRpY2lzdHM8L3RzcGFuPjwvdGV4dD48L2c+PC9nPjxnIHRyYW5zZm9ybT0idHJhbnNsYXRlKDE5Mi41MTk1MzEyNSwgMTI4KSIgaWQ9ImZsb3djaGFydC1DLTYzIiBjbGFzcz0ibm9kZSBkZWZhdWx0IGRlZmF1bHQiPjxyZWN0IGhlaWdodD0iMzQiIHdpZHRoPSI3OC41ODU5Mzc1IiB5PSItMTciIHg9Ii0zOS4yOTI5Njg3NSIgcnk9IjAiIHJ4PSIwIiBzdHlsZT0iIiBjbGFzcz0iYmFzaWMgbGFiZWwtY29udGFpbmVyIj48L3JlY3Q+PGcgdHJhbnNmb3JtPSJ0cmFuc2xhdGUoLTMxLjc5Mjk2ODc1LCAtOS41KSIgc3R5bGU9IiIgY2xhc3M9ImxhYmVsIj48dGV4dCBzdHlsZT0iIj48dHNwYW4gY2xhc3M9InJvdyIgeD0iMCIgZHk9IjFlbSIgeG1sOnNwYWNlPSJwcmVzZXJ2ZSI+QnJlZWRlcnM8L3RzcGFuPjwvdGV4dD48L2c+PC9nPjxnIHRyYW5zZm9ybT0idHJhbnNsYXRlKDM2MC44Nzg5MDYyNSwgMTI4KSIgaWQ9ImZsb3djaGFydC1ELTY1IiBjbGFzcz0ibm9kZSBkZWZhdWx0IGRlZmF1bHQiPjxyZWN0IGhlaWdodD0iMzQiIHdpZHRoPSIxNTguMTMyODEyNSIgeT0iLTE3IiB4PSItNzkuMDY2NDA2MjUiIHJ5PSIwIiByeD0iMCIgc3R5bGU9IiIgY2xhc3M9ImJhc2ljIGxhYmVsLWNvbnRhaW5lciI+PC9yZWN0PjxnIHRyYW5zZm9ybT0idHJhbnNsYXRlKC03MS41NjY0MDYyNSwgLTkuNSkiIHN0eWxlPSIiIGNsYXNzPSJsYWJlbCI+PHRleHQgc3R5bGU9IiI+PHRzcGFuIGNsYXNzPSJyb3ciIHg9IjAiIGR5PSIxZW0iIHhtbDpzcGFjZT0icHJlc2VydmUiPk1vbGVjdWxhciBCaW9sb2dpc3RzPC90c3Bhbj48L3RleHQ+PC9nPjwvZz48ZyB0cmFuc2Zvcm09InRyYW5zbGF0ZSg1NTUuOTM3NSwgMTI4KSIgaWQ9ImZsb3djaGFydC1FLTY3IiBjbGFzcz0ibm9kZSBkZWZhdWx0IGRlZmF1bHQiPjxyZWN0IGhlaWdodD0iMzQiIHdpZHRoPSIxMzEuOTg0Mzc1IiB5PSItMTciIHg9Ii02NS45OTIxODc1IiByeT0iMCIgcng9IjAiIHN0eWxlPSIiIGNsYXNzPSJiYXNpYyBsYWJlbC1jb250YWluZXIiPjwvcmVjdD48ZyB0cmFuc2Zvcm09InRyYW5zbGF0ZSgtNTguNDkyMTg3NSwgLTkuNSkiIHN0eWxlPSIiIGNsYXNzPSJsYWJlbCI+PHRleHQgc3R5bGU9IiI+PHRzcGFuIGNsYXNzPSJyb3ciIHg9IjAiIGR5PSIxZW0iIHhtbDpzcGFjZT0icHJlc2VydmUiPkJpb3RlY2hub2xvZ2lzdHM8L3RzcGFuPjwvdGV4dD48L2c+PC9nPjxnIHRyYW5zZm9ybT0idHJhbnNsYXRlKDc2OC4zNjcxODc1LCAxMjgpIiBpZD0iZmxvd2NoYXJ0LUYtNjgiIGNsYXNzPSJub2RlIGRlZmF1bHQgZGVmYXVsdCI+PHJlY3QgaGVpZ2h0PSIzNCIgd2lkdGg9IjE5Mi44NzUiIHk9Ii0xNyIgeD0iLTk2LjQzNzUiIHJ5PSIwIiByeD0iMCIgc3R5bGU9IiIgY2xhc3M9ImJhc2ljIGxhYmVsLWNvbnRhaW5lciI+PC9yZWN0PjxnIHRyYW5zZm9ybT0idHJhbnNsYXRlKC04OC45Mzc1LCAtOS41KSIgc3R5bGU9IiIgY2xhc3M9ImxhYmVsIj48dGV4dCBzdHlsZT0iIj48dHNwYW4gY2xhc3M9InJvdyIgeD0iMCIgZHk9IjFlbSIgeG1sOnNwYWNlPSJwcmVzZXJ2ZSI+RmllbGQgUmVzZWFyY2ggYW5kIFRyaWFsczwvdHNwYW4+PC90ZXh0PjwvZz48L2c+PGcgdHJhbnNmb3JtPSJ0cmFuc2xhdGUoNTEwLjk3NDYwOTM3NSwgMjEyKSIgaWQ9ImZsb3djaGFydC1HLTY5IiBjbGFzcz0ibm9kZSBkZWZhdWx0IGRlZmF1bHQiPjxyZWN0IGhlaWdodD0iMzQiIHdpZHRoPSIxNDEuNTIzNDM3NSIgeT0iLTE3IiB4PSItNzAuNzYxNzE4NzUiIHJ5PSIwIiByeD0iMCIgc3R5bGU9IiIgY2xhc3M9ImJhc2ljIGxhYmVsLWNvbnRhaW5lciI+PC9yZWN0PjxnIHRyYW5zZm9ybT0idHJhbnNsYXRlKC02My4yNjE3MTg3NSwgLTkuNSkiIHN0eWxlPSIiIGNsYXNzPSJsYWJlbCI+PHRleHQgc3R5bGU9IiI+PHRzcGFuIGNsYXNzPSJyb3ciIHg9IjAiIGR5PSIxZW0iIHhtbDpzcGFjZT0icHJlc2VydmUiPkZpZWxkIEFncm9ub21pc3RzPC90c3Bhbj48L3RleHQ+PC9nPjwvZz48ZyB0cmFuc2Zvcm09InRyYW5zbGF0ZSg2ODcuMTk3MjY1NjI1LCAyMTIpIiBpZD0iZmxvd2NoYXJ0LUgtNzEiIGNsYXNzPSJub2RlIGRlZmF1bHQgZGVmYXVsdCI+PHJlY3QgaGVpZ2h0PSIzNCIgd2lkdGg9IjExMC45MjE4NzUiIHk9Ii0xNyIgeD0iLTU1LjQ2MDkzNzUiIHJ5PSIwIiByeD0iMCIgc3R5bGU9IiIgY2xhc3M9ImJhc2ljIGxhYmVsLWNvbnRhaW5lciI+PC9yZWN0PjxnIHRyYW5zZm9ybT0idHJhbnNsYXRlKC00Ny45NjA5Mzc1LCAtOS41KSIgc3R5bGU9IiIgY2xhc3M9ImxhYmVsIj48dGV4dCBzdHlsZT0iIj48dHNwYW4gY2xhc3M9InJvdyIgeD0iMCIgZHk9IjFlbSIgeG1sOnNwYWNlPSJwcmVzZXJ2ZSI+RGF0YSBBbmFseXN0czwvdHNwYW4+PC90ZXh0PjwvZz48L2c+PGcgdHJhbnNmb3JtPSJ0cmFuc2xhdGUoODQ5LjUzNzEwOTM3NSwgMjEyKSIgaWQ9ImZsb3djaGFydC1JLTczIiBjbGFzcz0ibm9kZSBkZWZhdWx0IGRlZmF1bHQiPjxyZWN0IGhlaWdodD0iMzQiIHdpZHRoPSIxMTMuNzU3ODEyNSIgeT0iLTE3IiB4PSItNTYuODc4OTA2MjUiIHJ5PSIwIiByeD0iMCIgc3R5bGU9IiIgY2xhc3M9ImJhc2ljIGxhYmVsLWNvbnRhaW5lciI+PC9yZWN0PjxnIHRyYW5zZm9ybT0idHJhbnNsYXRlKC00OS4zNzg5MDYyNSwgLTkuNSkiIHN0eWxlPSIiIGNsYXNzPSJsYWJlbCI+PHRleHQgc3R5bGU9IiI+PHRzcGFuIGNsYXNzPSJyb3ciIHg9IjAiIGR5PSIxZW0iIHhtbDpzcGFjZT0icHJlc2VydmUiPlNvaWwgU2NpZW50aXN0czwvdHNwYW4+PC90ZXh0PjwvZz48L2c+PGcgdHJhbnNmb3JtPSJ0cmFuc2xhdGUoMTE3Ni44NjcxODc1LCAxMjgpIiBpZD0iZmxvd2NoYXJ0LUotNzQiIGNsYXNzPSJub2RlIGRlZmF1bHQgZGVmYXVsdCI+PHJlY3QgaGVpZ2h0PSIzNCIgd2lkdGg9IjE0Mi43MTg3NSIgeT0iLTE3IiB4PSItNzEuMzU5Mzc1IiByeT0iMCIgcng9IjAiIHN0eWxlPSIiIGNsYXNzPSJiYXNpYyBsYWJlbC1jb250YWluZXIiPjwvcmVjdD48ZyB0cmFuc2Zvcm09InRyYW5zbGF0ZSgtNjMuODU5Mzc1LCAtOS41KSIgc3R5bGU9IiIgY2xhc3M9ImxhYmVsIj48dGV4dCBzdHlsZT0iIj48dHNwYW4gY2xhc3M9InJvdyIgeD0iMCIgZHk9IjFlbSIgeG1sOnNwYWNlPSJwcmVzZXJ2ZSI+UmVndWxhdG9yeSBBZmZhaXJzPC90c3Bhbj48L3RleHQ+PC9nPjwvZz48ZyB0cmFuc2Zvcm09InRyYW5zbGF0ZSgxMDQyLjE1NDI5Njg3NSwgMjEyKSIgaWQ9ImZsb3djaGFydC1LLTc1IiBjbGFzcz0ibm9kZSBkZWZhdWx0IGRlZmF1bHQiPjxyZWN0IGhlaWdodD0iMzQiIHdpZHRoPSIxNzEuNDc2NTYyNSIgeT0iLTE3IiB4PSItODUuNzM4MjgxMjUiIHJ5PSIwIiByeD0iMCIgc3R5bGU9IiIgY2xhc3M9ImJhc2ljIGxhYmVsLWNvbnRhaW5lciI+PC9yZWN0PjxnIHRyYW5zZm9ybT0idHJhbnNsYXRlKC03OC4yMzgyODEyNSwgLTkuNSkiIHN0eWxlPSIiIGNsYXNzPSJsYWJlbCI+PHRleHQgc3R5bGU9IiI+PHRzcGFuIGNsYXNzPSJyb3ciIHg9IjAiIGR5PSIxZW0iIHhtbDpzcGFjZT0icHJlc2VydmUiPlJlZ3VsYXRvcnkgU3BlY2lhbGlzdHM8L3RzcGFuPjwvdGV4dD48L2c+PC9nPjxnIHRyYW5zZm9ybT0idHJhbnNsYXRlKDEzNTcuMTUyMzQzNzUsIDIxMikiIGlkPSJmbG93Y2hhcnQtTC03NyIgY2xhc3M9Im5vZGUgZGVmYXVsdCBkZWZhdWx0Ij48cmVjdCBoZWlnaHQ9IjM0IiB3aWR0aD0iMTYwLjI4OTA2MjUiIHk9Ii0xNyIgeD0iLTgwLjE0NDUzMTI1IiByeT0iMCIgcng9IjAiIHN0eWxlPSIiIGNsYXNzPSJiYXNpYyBsYWJlbC1jb250YWluZXIiPjwvcmVjdD48ZyB0cmFuc2Zvcm09InRyYW5zbGF0ZSgtNzIuNjQ0NTMxMjUsIC05LjUpIiBzdHlsZT0iIiBjbGFzcz0ibGFiZWwiPjx0ZXh0IHN0eWxlPSIiPjx0c3BhbiBjbGFzcz0icm93IiB4PSIwIiBkeT0iMWVtIiB4bWw6c3BhY2U9InByZXNlcnZlIj5Db21wbGlhbmNlIE9mZmljZXJzPC90c3Bhbj48L3RleHQ+PC9nPjwvZz48ZyB0cmFuc2Zvcm09InRyYW5zbGF0ZSgyMzkxLjk1ODk4NDM3NSwgMjUpIiBpZD0iZmxvd2NoYXJ0LU0tNzgiIGNsYXNzPSJub2RlIGRlZmF1bHQgZGVmYXVsdCI+PHJlY3QgaGVpZ2h0PSIzNCIgd2lkdGg9IjE2OS43ODkwNjI1IiB5PSItMTciIHg9Ii04NC44OTQ1MzEyNSIgcnk9IjAiIHJ4PSIwIiBzdHlsZT0iIiBjbGFzcz0iYmFzaWMgbGFiZWwtY29udGFpbmVyIj48L3JlY3Q+PGcgdHJhbnNmb3JtPSJ0cmFuc2xhdGUoLTc3LjM5NDUzMTI1LCAtOS41KSIgc3R5bGU9IiIgY2xhc3M9ImxhYmVsIj48dGV4dCBzdHlsZT0iIj48dHNwYW4gY2xhc3M9InJvdyIgeD0iMCIgZHk9IjFlbSIgeG1sOnNwYWNlPSJwcmVzZXJ2ZSI+UHJvZHVjdCBEZXZlbG9wbWVudDwvdHNwYW4+PC90ZXh0PjwvZz48L2c+PGcgdHJhbnNmb3JtPSJ0cmFuc2xhdGUoMTM2OS4wMjczNDM3NSwgMTI4KSIgaWQ9ImZsb3djaGFydC1OLTc5IiBjbGFzcz0ibm9kZSBkZWZhdWx0IGRlZmF1bHQiPjxyZWN0IGhlaWdodD0iMzQiIHdpZHRoPSIxNDEuNjAxNTYyNSIgeT0iLTE3IiB4PSItNzAuODAwNzgxMjUiIHJ5PSIwIiByeD0iMCIgc3R5bGU9IiIgY2xhc3M9ImJhc2ljIGxhYmVsLWNvbnRhaW5lciI+PC9yZWN0PjxnIHRyYW5zZm9ybT0idHJhbnNsYXRlKC02My4zMDA3ODEyNSwgLTkuNSkiIHN0eWxlPSIiIGNsYXNzPSJsYWJlbCI+PHRleHQgc3R5bGU9IiI+PHRzcGFuIGNsYXNzPSJyb3ciIHg9IjAiIGR5PSIxZW0iIHhtbDpzcGFjZT0icHJlc2VydmUiPlByb2R1Y3QgTWFuYWdlcnM8L3RzcGFuPjwvdGV4dD48L2c+PC9nPjxnIHRyYW5zZm9ybT0idHJhbnNsYXRlKDE1NjcuNzEwOTM3NSwgMTI4KSIgaWQ9ImZsb3djaGFydC1PLTgxIiBjbGFzcz0ibm9kZSBkZWZhdWx0IGRlZmF1bHQiPjxyZWN0IGhlaWdodD0iMzQiIHdpZHRoPSIxNTUuNzY1NjI1IiB5PSItMTciIHg9Ii03Ny44ODI4MTI1IiByeT0iMCIgcng9IjAiIHN0eWxlPSIiIGNsYXNzPSJiYXNpYyBsYWJlbC1jb250YWluZXIiPjwvcmVjdD48ZyB0cmFuc2Zvcm09InRyYW5zbGF0ZSgtNzAuMzgyODEyNSwgLTkuNSkiIHN0eWxlPSIiIGNsYXNzPSJsYWJlbCI+PHRleHQgc3R5bGU9IiI+PHRzcGFuIGNsYXNzPSJyb3ciIHg9IjAiIGR5PSIxZW0iIHhtbDpzcGFjZT0icHJlc2VydmUiPk1hcmtldCBSZXNlYXJjaGVyczwvdHNwYW4+PC90ZXh0PjwvZz48L2c+PGcgdHJhbnNmb3JtPSJ0cmFuc2xhdGUoMTgwNi4yNTM5MDYyNSwgMTI4KSIgaWQ9ImZsb3djaGFydC1QLTgyIiBjbGFzcz0ibm9kZSBkZWZhdWx0IGRlZmF1bHQiPjxyZWN0IGhlaWdodD0iMzQiIHdpZHRoPSIyMjEuMzIwMzEyNSIgeT0iLTE3IiB4PSItMTEwLjY2MDE1NjI1IiByeT0iMCIgcng9IjAiIHN0eWxlPSIiIGNsYXNzPSJiYXNpYyBsYWJlbC1jb250YWluZXIiPjwvcmVjdD48ZyB0cmFuc2Zvcm09InRyYW5zbGF0ZSgtMTAzLjE2MDE1NjI1LCAtOS41KSIgc3R5bGU9IiIgY2xhc3M9ImxhYmVsIj48dGV4dCBzdHlsZT0iIj48dHNwYW4gY2xhc3M9InJvdyIgeD0iMCIgZHk9IjFlbSIgeG1sOnNwYWNlPSJwcmVzZXJ2ZSI+Q29tbWVyY2lhbGl6YXRpb24gYW5kIFNhbGVzPC90c3Bhbj48L3RleHQ+PC9nPjwvZz48ZyB0cmFuc2Zvcm09InRyYW5zbGF0ZSgxNTcyLjQyNTc4MTI1LCAyMTIpIiBpZD0iZmxvd2NoYXJ0LVEtODMiIGNsYXNzPSJub2RlIGRlZmF1bHQgZGVmYXVsdCI+PHJlY3QgaGVpZ2h0PSIzNCIgd2lkdGg9IjE3MC4yNTc4MTI1IiB5PSItMTciIHg9Ii04NS4xMjg5MDYyNSIgcnk9IjAiIHJ4PSIwIiBzdHlsZT0iIiBjbGFzcz0iYmFzaWMgbGFiZWwtY29udGFpbmVyIj48L3JlY3Q+PGcgdHJhbnNmb3JtPSJ0cmFuc2xhdGUoLTc3LjYyODkwNjI1LCAtOS41KSIgc3R5bGU9IiIgY2xhc3M9ImxhYmVsIj48dGV4dCBzdHlsZT0iIj48dHNwYW4gY2xhc3M9InJvdyIgeD0iMCIgZHk9IjFlbSIgeG1sOnNwYWNlPSJwcmVzZXJ2ZSI+U2FsZXMgUmVwcmVzZW50YXRpdmVzPC90c3Bhbj48L3RleHQ+PC9nPjwvZz48ZyB0cmFuc2Zvcm09InRyYW5zbGF0ZSgxODg4LjY5NzI2NTYyNSwgMjEyKSIgaWQ9ImZsb3djaGFydC1SLTg1IiBjbGFzcz0ibm9kZSBkZWZhdWx0IGRlZmF1bHQiPjxyZWN0IGhlaWdodD0iMzQiIHdpZHRoPSIxNjYuNjAxNTYyNSIgeT0iLTE3IiB4PSItODMuMzAwNzgxMjUiIHJ5PSIwIiByeD0iMCIgc3R5bGU9IiIgY2xhc3M9ImJhc2ljIGxhYmVsLWNvbnRhaW5lciI+PC9yZWN0PjxnIHRyYW5zZm9ybT0idHJhbnNsYXRlKC03NS44MDA3ODEyNSwgLTkuNSkiIHN0eWxlPSIiIGNsYXNzPSJsYWJlbCI+PHRleHQgc3R5bGU9IiI+PHRzcGFuIGNsYXNzPSJyb3ciIHg9IjAiIGR5PSIxZW0iIHhtbDpzcGFjZT0icHJlc2VydmUiPk1hcmtldGluZyBTcGVjaWFsaXN0czwvdHNwYW4+PC90ZXh0PjwvZz48L2c+PGcgdHJhbnNmb3JtPSJ0cmFuc2xhdGUoMjI0MC4zNTkzNzUsIDEyOCkiIGlkPSJmbG93Y2hhcnQtUy04NiIgY2xhc3M9Im5vZGUgZGVmYXVsdCBkZWZhdWx0Ij48cmVjdCBoZWlnaHQ9IjM0IiB3aWR0aD0iMTQxLjgzNTkzNzUiIHk9Ii0xNyIgeD0iLTcwLjkxNzk2ODc1IiByeT0iMCIgcng9IjAiIHN0eWxlPSIiIGNsYXNzPSJiYXNpYyBsYWJlbC1jb250YWluZXIiPjwvcmVjdD48ZyB0cmFuc2Zvcm09InRyYW5zbGF0ZSgtNjMuNDE3OTY4NzUsIC05LjUpIiBzdHlsZT0iIiBjbGFzcz0ibGFiZWwiPjx0ZXh0IHN0eWxlPSIiPjx0c3BhbiBjbGFzcz0icm93IiB4PSIwIiBkeT0iMWVtIiB4bWw6c3BhY2U9InByZXNlcnZlIj5RdWFsaXR5IEFzc3VyYW5jZTwvdHNwYW4+PC90ZXh0PjwvZz48L2c+PGcgdHJhbnNmb3JtPSJ0cmFuc2xhdGUoMjExNS41MDU4NTkzNzUsIDIxMikiIGlkPSJmbG93Y2hhcnQtVC04NyIgY2xhc3M9Im5vZGUgZGVmYXVsdCBkZWZhdWx0Ij48cmVjdCBoZWlnaHQ9IjM0IiB3aWR0aD0iMTg3LjAxNTYyNSIgeT0iLTE3IiB4PSItOTMuNTA3ODEyNSIgcnk9IjAiIHJ4PSIwIiBzdHlsZT0iIiBjbGFzcz0iYmFzaWMgbGFiZWwtY29udGFpbmVyIj48L3JlY3Q+PGcgdHJhbnNmb3JtPSJ0cmFuc2xhdGUoLTg2LjAwNzgxMjUsIC05LjUpIiBzdHlsZT0iIiBjbGFzcz0ibGFiZWwiPjx0ZXh0IHN0eWxlPSIiPjx0c3BhbiBjbGFzcz0icm93IiB4PSIwIiBkeT0iMWVtIiB4bWw6c3BhY2U9InByZXNlcnZlIj5RdWFsaXR5IENvbnRyb2wgQW5hbHlzdHM8L3RzcGFuPjwvdGV4dD48L2c+PC9nPjxnIHRyYW5zZm9ybT0idHJhbnNsYXRlKDIzMjIuODAyNzM0Mzc1LCAyMTIpIiBpZD0iZmxvd2NoYXJ0LVUtODkiIGNsYXNzPSJub2RlIGRlZmF1bHQgZGVmYXVsdCI+PHJlY3QgaGVpZ2h0PSIzNCIgd2lkdGg9IjEyNy41NzgxMjUiIHk9Ii0xNyIgeD0iLTYzLjc4OTA2MjUiIHJ5PSIwIiByeD0iMCIgc3R5bGU9IiIgY2xhc3M9ImJhc2ljIGxhYmVsLWNvbnRhaW5lciI+PC9yZWN0PjxnIHRyYW5zZm9ybT0idHJhbnNsYXRlKC01Ni4yODkwNjI1LCAtOS41KSIgc3R5bGU9IiIgY2xhc3M9ImxhYmVsIj48dGV4dCBzdHlsZT0iIj48dHNwYW4gY2xhc3M9InJvdyIgeD0iMCIgZHk9IjFlbSIgeG1sOnNwYWNlPSJwcmVzZXJ2ZSI+TGFiIFRlY2huaWNpYW5zPC90c3Bhbj48L3RleHQ+PC9nPjwvZz48ZyB0cmFuc2Zvcm09InRyYW5zbGF0ZSgyNTg1Ljk2ODc1LCAxMjgpIiBpZD0iZmxvd2NoYXJ0LVYtOTAiIGNsYXNzPSJub2RlIGRlZmF1bHQgZGVmYXVsdCI+PHJlY3QgaGVpZ2h0PSIzNCIgd2lkdGg9IjI1OS42ODc1IiB5PSItMTciIHg9Ii0xMjkuODQzNzUiIHJ5PSIwIiByeD0iMCIgc3R5bGU9IiIgY2xhc3M9ImJhc2ljIGxhYmVsLWNvbnRhaW5lciI+PC9yZWN0PjxnIHRyYW5zZm9ybT0idHJhbnNsYXRlKC0xMjIuMzQzNzUsIC05LjUpIiBzdHlsZT0iIiBjbGFzcz0ibGFiZWwiPjx0ZXh0IHN0eWxlPSIiPjx0c3BhbiBjbGFzcz0icm93IiB4PSIwIiBkeT0iMWVtIiB4bWw6c3BhY2U9InByZXNlcnZlIj5JbnRlbGxlY3R1YWwgUHJvcGVydHkgTWFuYWdlbWVudDwvdHNwYW4+PC90ZXh0PjwvZz48L2c+PGcgdHJhbnNmb3JtPSJ0cmFuc2xhdGUoMjQ4Ny4yNDgwNDY4NzUsIDIxMikiIGlkPSJmbG93Y2hhcnQtVy05MSIgY2xhc3M9Im5vZGUgZGVmYXVsdCBkZWZhdWx0Ij48cmVjdCBoZWlnaHQ9IjM0IiB3aWR0aD0iMTAxLjMxMjUiIHk9Ii0xNyIgeD0iLTUwLjY1NjI1IiByeT0iMCIgcng9IjAiIHN0eWxlPSIiIGNsYXNzPSJiYXNpYyBsYWJlbC1jb250YWluZXIiPjwvcmVjdD48ZyB0cmFuc2Zvcm09InRyYW5zbGF0ZSgtNDMuMTU2MjUsIC05LjUpIiBzdHlsZT0iIiBjbGFzcz0ibGFiZWwiPjx0ZXh0IHN0eWxlPSIiPjx0c3BhbiBjbGFzcz0icm93IiB4PSIwIiBkeT0iMWVtIiB4bWw6c3BhY2U9InByZXNlcnZlIj5JUCBBdHRvcm5leXM8L3RzcGFuPjwvdGV4dD48L2c+PC9nPjxnIHRyYW5zZm9ybT0idHJhbnNsYXRlKDI2NjguNDEyMTA5Mzc1LCAyMTIpIiBpZD0iZmxvd2NoYXJ0LVgtOTMiIGNsYXNzPSJub2RlIGRlZmF1bHQgZGVmYXVsdCI+PHJlY3QgaGVpZ2h0PSIzNCIgd2lkdGg9IjE2MS4wMTU2MjUiIHk9Ii0xNyIgeD0iLTgwLjUwNzgxMjUiIHJ5PSIwIiByeD0iMCIgc3R5bGU9IiIgY2xhc3M9ImJhc2ljIGxhYmVsLWNvbnRhaW5lciI+PC9yZWN0PjxnIHRyYW5zZm9ybT0idHJhbnNsYXRlKC03My4wMDc4MTI1LCAtOS41KSIgc3R5bGU9IiIgY2xhc3M9ImxhYmVsIj48dGV4dCBzdHlsZT0iIj48dHNwYW4gY2xhc3M9InJvdyIgeD0iMCIgZHk9IjFlbSIgeG1sOnNwYWNlPSJwcmVzZXJ2ZSI+TGljZW5zaW5nIFNwZWNpYWxpc3RzPC90c3Bhbj48L3RleHQ+PC9nPjwvZz48ZyB0cmFuc2Zvcm09InRyYW5zbGF0ZSgyOTg5LjE4NzUsIDEyOCkiIGlkPSJmbG93Y2hhcnQtWS05NCIgY2xhc3M9Im5vZGUgZGVmYXVsdCBkZWZhdWx0Ij48cmVjdCBoZWlnaHQ9IjM0IiB3aWR0aD0iMjEwLjc1NzgxMjUiIHk9Ii0xNyIgeD0iLTEwNS4zNzg5MDYyNSIgcnk9IjAiIHJ4PSIwIiBzdHlsZT0iIiBjbGFzcz0iYmFzaWMgbGFiZWwtY29udGFpbmVyIj48L3JlY3Q+PGcgdHJhbnNmb3JtPSJ0cmFuc2xhdGUoLTk3Ljg3ODkwNjI1LCAtOS41KSIgc3R5bGU9IiIgY2xhc3M9ImxhYmVsIj48dGV4dCBzdHlsZT0iIj48dHNwYW4gY2xhc3M9InJvdyIgeD0iMCIgZHk9IjFlbSIgeG1sOnNwYWNlPSJwcmVzZXJ2ZSI+RmluYW5jZSBhbmQgQWRtaW5pc3RyYXRpb248L3RzcGFuPjwvdGV4dD48L2c+PC9nPjxnIHRyYW5zZm9ybT0idHJhbnNsYXRlKDI4NzAuMTI2OTUzMTI1LCAyMTIpIiBpZD0iZmxvd2NoYXJ0LVotOTUiIGNsYXNzPSJub2RlIGRlZmF1bHQgZGVmYXVsdCI+PHJlY3QgaGVpZ2h0PSIzNCIgd2lkdGg9IjE0Mi40MTQwNjI1IiB5PSItMTciIHg9Ii03MS4yMDcwMzEyNSIgcnk9IjAiIHJ4PSIwIiBzdHlsZT0iIiBjbGFzcz0iYmFzaWMgbGFiZWwtY29udGFpbmVyIj48L3JlY3Q+PGcgdHJhbnNmb3JtPSJ0cmFuc2xhdGUoLTYzLjcwNzAzMTI1LCAtOS41KSIgc3R5bGU9IiIgY2xhc3M9ImxhYmVsIj48dGV4dCBzdHlsZT0iIj48dHNwYW4gY2xhc3M9InJvdyIgeD0iMCIgZHk9IjFlbSIgeG1sOnNwYWNlPSJwcmVzZXJ2ZSI+RmluYW5jaWFsIEFuYWx5c3RzPC90c3Bhbj48L3RleHQ+PC9nPjwvZz48ZyB0cmFuc2Zvcm09InRyYW5zbGF0ZSgzMDcxLjYzMDg1OTM3NSwgMjEyKSIgaWQ9ImZsb3djaGFydC1BQS05NyIgY2xhc3M9Im5vZGUgZGVmYXVsdCBkZWZhdWx0Ij48cmVjdCBoZWlnaHQ9IjM0IiB3aWR0aD0iMTYwLjU5Mzc1IiB5PSItMTciIHg9Ii04MC4yOTY4NzUiIHJ5PSIwIiByeD0iMCIgc3R5bGU9IiIgY2xhc3M9ImJhc2ljIGxhYmVsLWNvbnRhaW5lciI+PC9yZWN0PjxnIHRyYW5zZm9ybT0idHJhbnNsYXRlKC03Mi43OTY4NzUsIC05LjUpIiBzdHlsZT0iIiBjbGFzcz0ibGFiZWwiPjx0ZXh0IHN0eWxlPSIiPjx0c3BhbiBjbGFzcz0icm93IiB4PSIwIiBkeT0iMWVtIiB4bWw6c3BhY2U9InByZXNlcnZlIj5BZG1pbmlzdHJhdGl2ZSBTdGFmZjwvdHNwYW4+PC90ZXh0PjwvZz48L2c+PGcgdHJhbnNmb3JtPSJ0cmFuc2xhdGUoMzQzNC4yMTQ4NDM3NSwgMTI4KSIgaWQ9ImZsb3djaGFydC1CQi05OCIgY2xhc3M9Im5vZGUgZGVmYXVsdCBkZWZhdWx0Ij48cmVjdCBoZWlnaHQ9IjM0IiB3aWR0aD0iMjA0LjAwNzgxMjUiIHk9Ii0xNyIgeD0iLTEwMi4wMDM5MDYyNSIgcnk9IjAiIHJ4PSIwIiBzdHlsZT0iIiBjbGFzcz0iYmFzaWMgbGFiZWwtY29udGFpbmVyIj48L3JlY3Q+PGcgdHJhbnNmb3JtPSJ0cmFuc2xhdGUoLTk0LjUwMzkwNjI1LCAtOS41KSIgc3R5bGU9IiIgY2xhc3M9ImxhYmVsIj48dGV4dCBzdHlsZT0iIj48dHNwYW4gY2xhc3M9InJvdyIgeD0iMCIgZHk9IjFlbSIgeG1sOnNwYWNlPSJwcmVzZXJ2ZSI+U3VwcGx5IENoYWluIGFuZCBMb2dpc3RpY3M8L3RzcGFuPjwvdGV4dD48L2c+PC9nPjxnIHRyYW5zZm9ybT0idHJhbnNsYXRlKDMyOTEuMTM4NjcxODc1LCAyMTIpIiBpZD0iZmxvd2NoYXJ0LUNDLTk5IiBjbGFzcz0ibm9kZSBkZWZhdWx0IGRlZmF1bHQiPjxyZWN0IGhlaWdodD0iMzQiIHdpZHRoPSIxNzguNDIxODc1IiB5PSItMTciIHg9Ii04OS4yMTA5Mzc1IiByeT0iMCIgcng9IjAiIHN0eWxlPSIiIGNsYXNzPSJiYXNpYyBsYWJlbC1jb250YWluZXIiPjwvcmVjdD48ZyB0cmFuc2Zvcm09InRyYW5zbGF0ZSgtODEuNzEwOTM3NSwgLTkuNSkiIHN0eWxlPSIiIGNsYXNzPSJsYWJlbCI+PHRleHQgc3R5bGU9IiI+PHRzcGFuIGNsYXNzPSJyb3ciIHg9IjAiIGR5PSIxZW0iIHhtbDpzcGFjZT0icHJlc2VydmUiPlN1cHBseSBDaGFpbiBNYW5hZ2VyczwvdHNwYW4+PC90ZXh0PjwvZz48L2c+PGcgdHJhbnNmb3JtPSJ0cmFuc2xhdGUoMzUxNi42NTgyMDMxMjUsIDIxMikiIGlkPSJmbG93Y2hhcnQtREQtMTAxIiBjbGFzcz0ibm9kZSBkZWZhdWx0IGRlZmF1bHQiPjxyZWN0IGhlaWdodD0iMzQiIHdpZHRoPSIxNzIuNjE3MTg3NSIgeT0iLTE3IiB4PSItODYuMzA4NTkzNzUiIHJ5PSIwIiByeD0iMCIgc3R5bGU9IiIgY2xhc3M9ImJhc2ljIGxhYmVsLWNvbnRhaW5lciI+PC9yZWN0PjxnIHRyYW5zZm9ybT0idHJhbnNsYXRlKC03OC44MDg1OTM3NSwgLTkuNSkiIHN0eWxlPSIiIGNsYXNzPSJsYWJlbCI+PHRleHQgc3R5bGU9IiI+PHRzcGFuIGNsYXNzPSJyb3ciIHg9IjAiIGR5PSIxZW0iIHhtbDpzcGFjZT0icHJlc2VydmUiPkxvZ2lzdGljcyBDb29yZGluYXRvcnM8L3RzcGFuPjwvdGV4dD48L2c+PC9nPjxnIHRyYW5zZm9ybT0idHJhbnNsYXRlKDM3ODMuMTk3MjY1NjI1LCAxMjgpIiBpZD0iZmxvd2NoYXJ0LUVFLTEwMiIgY2xhc3M9Im5vZGUgZGVmYXVsdCBkZWZhdWx0Ij48cmVjdCBoZWlnaHQ9IjM0IiB3aWR0aD0iMjMwLjg0Mzc1IiB5PSItMTciIHg9Ii0xMTUuNDIxODc1IiByeT0iMCIgcng9IjAiIHN0eWxlPSIiIGNsYXNzPSJiYXNpYyBsYWJlbC1jb250YWluZXIiPjwvcmVjdD48ZyB0cmFuc2Zvcm09InRyYW5zbGF0ZSgtMTA3LjkyMTg3NSwgLTkuNSkiIHN0eWxlPSIiIGNsYXNzPSJsYWJlbCI+PHRleHQgc3R5bGU9IiI+PHRzcGFuIGNsYXNzPSJyb3ciIHg9IjAiIGR5PSIxZW0iIHhtbDpzcGFjZT0icHJlc2VydmUiPkN1c3RvbWVyIFN1cHBvcnQgYW5kIFNlcnZpY2U8L3RzcGFuPjwvdGV4dD48L2c+PC9nPjxnIHRyYW5zZm9ybT0idHJhbnNsYXRlKDM3ODMuMTk3MjY1NjI1LCAyMTIpIiBpZD0iZmxvd2NoYXJ0LUZGLTEwMyIgY2xhc3M9Im5vZGUgZGVmYXVsdCBkZWZhdWx0Ij48cmVjdCBoZWlnaHQ9IjM0IiB3aWR0aD0iMjU4LjY4NzUiIHk9Ii0xNyIgeD0iLTEyOS4zNDM3NSIgcnk9IjAiIHJ4PSIwIiBzdHlsZT0iIiBjbGFzcz0iYmFzaWMgbGFiZWwtY29udGFpbmVyIj48L3JlY3Q+PGcgdHJhbnNmb3JtPSJ0cmFuc2xhdGUoLTEyMS44NDM3NSwgLTkuNSkiIHN0eWxlPSIiIGNsYXNzPSJsYWJlbCI+PHRleHQgc3R5bGU9IiI+PHRzcGFuIGNsYXNzPSJyb3ciIHg9IjAiIGR5PSIxZW0iIHhtbDpzcGFjZT0icHJlc2VydmUiPkN1c3RvbWVyIFNlcnZpY2UgUmVwcmVzZW50YXRpdmVzPC90c3Bhbj48L3RleHQ+PC9nPjwvZz48L2c+PC9nPjwvZz48L3N2Zz4=;movable=0;resizable=0;rotatable=0;deletable=0;editable=0;connectable=0;" parent="1" vertex="1">
                        <mxGeometry x="220" y="320" width="790" height="300" as="geometry"/>
                    </mxCell>
                </UserObject>
                <UserObject label="" mermaidData="{&#10;  &quot;data&quot;: &quot;flowchart TD\n    %% Define Nodes\n    A[Research and Development] --&gt; B[Geneticists]\n    A --&gt; C[Breeders]\n    A --&gt; D[Molecular Biologists]\n    A --&gt; E[Biotechnologists]\n\n    F[Field Research and Trials] --&gt; G[Field Agronomists]\n    F --&gt; H[Data Analysts]\n    F --&gt; I[Soil Scientists]\n\n    J[Regulatory Affairs] --&gt; K[Regulatory Specialists]\n    J --&gt; L[Compliance Officers]\n\n    M[Product Development] --&gt; N[Product Managers]\n    M --&gt; O[Market Researchers]\n\n    P[Commercialization and Sales] --&gt; Q[Sales Representatives]\n    P --&gt; R[Marketing Specialists]\n\n    S[Quality Assurance] --&gt; T[Quality Control Analysts]\n    S --&gt; U[Lab Technicians]\n\n    V[Intellectual Property Management] --&gt; W[IP Attorneys]\n    V --&gt; X[Licensing Specialists]\n\n    Y[Finance and Administration] --&gt; Z[Financial Analysts]\n    Y --&gt; AA[Administrative Staff]\n\n    BB[Supply Chain and Logistics] --&gt; CC[Supply Chain Managers]\n    BB --&gt; DD[Logistics Coordinators]\n\n    EE[Customer Support and Service] --&gt; FF[Customer Service Representatives]\n\n    %% Define Relationships\n    A --&gt;|Collaborates with| F\n    A --&gt;|Collaborates with| J\n    M --&gt;|Works with| P\n    M --&gt;|Collaborates with| S\n    M --&gt;|Works with| V\n    M --&gt;|Supports| Y\n    M --&gt;|Works with| BB\n    M --&gt;|Supports| EE\n&quot;,&#10;  &quot;config&quot;: {&#10;    &quot;theme&quot;: &quot;neutral&quot;,&#10;    &quot;arrowMarkerAbsolute&quot;: false,&#10;    &quot;flowchart&quot;: {&#10;      &quot;htmlLabels&quot;: false&#10;    },&#10;    &quot;sequence&quot;: {&#10;      &quot;diagramMarginX&quot;: 50,&#10;      &quot;diagramMarginY&quot;: 10,&#10;      &quot;actorMargin&quot;: 50,&#10;      &quot;width&quot;: 150,&#10;      &quot;height&quot;: 65,&#10;      &quot;boxMargin&quot;: 10,&#10;      &quot;boxTextMargin&quot;: 5,&#10;      &quot;noteMargin&quot;: 10,&#10;      &quot;messageMargin&quot;: 35,&#10;      &quot;mirrorActors&quot;: true,&#10;      &quot;bottomMarginAdj&quot;: 1,&#10;      &quot;useMaxWidth&quot;: true,&#10;      &quot;rightAngles&quot;: false,&#10;      &quot;showSequenceNumbers&quot;: false&#10;    },&#10;    &quot;gantt&quot;: {&#10;      &quot;titleTopMargin&quot;: 25,&#10;      &quot;barHeight&quot;: 20,&#10;      &quot;barGap&quot;: 4,&#10;      &quot;topPadding&quot;: 50,&#10;      &quot;leftPadding&quot;: 75,&#10;      &quot;gridLineStartPadding&quot;: 35,&#10;      &quot;fontSize&quot;: 11,&#10;      &quot;fontFamily&quot;: &quot;\&quot;Open-Sans\&quot;, \&quot;sans-serif\&quot;&quot;,&#10;      &quot;numberSectionStyles&quot;: 4,&#10;      &quot;axisFormat&quot;: &quot;%Y-%m-%d&quot;&#10;    }&#10;  }&#10;}" id="10">
                    <mxCell style="shape=image;noLabel=1;verticalAlign=top;imageAspect=1;image=data:image/svg+xml,PHN2ZyB2aWV3Qm94PSIwIDAgMzkyMC41NDEwMTU2MjUgMjM3IiBzdHlsZT0ibWF4LXdpZHRoOiAzOTIwLjU0MTAxNTYyNXB4OyIgaGVpZ2h0PSIyMzciIGFyaWEtbGFiZWxsZWRieT0iY2hhcnQtdGl0bGUtZ2VNZXJtYWlkT3V0cHV0LTE3MjYyMjk4NjYyMzggY2hhcnQtZGVzYy1nZU1lcm1haWRPdXRwdXQtMTcyNjIyOTg2NjIzOCIgcm9sZT0iaW1nIiB4bWxuczp4bGluaz0iaHR0cDovL3d3dy53My5vcmcvMTk5OS94bGluayIgeG1sbnM9Imh0dHA6Ly93d3cudzMub3JnLzIwMDAvc3ZnIiB3aWR0aD0iMTAwJSIgaWQ9ImdlTWVybWFpZE91dHB1dC0xNzI2MjI5ODY2MjM4Ij48dGl0bGUgaWQ9ImNoYXJ0LXRpdGxlLWdlTWVybWFpZE91dHB1dC0xNzI2MjI5ODY2MjM4Ij48L3RpdGxlPjxkZXNjIGlkPSJjaGFydC1kZXNjLWdlTWVybWFpZE91dHB1dC0xNzI2MjI5ODY2MjM4Ij48L2Rlc2M+PHN0eWxlPiNnZU1lcm1haWRPdXRwdXQtMTcyNjIyOTg2NjIzOCB7Zm9udC1mYW1pbHk6InRyZWJ1Y2hldCBtcyIsdmVyZGFuYSxhcmlhbCxzYW5zLXNlcmlmO2ZvbnQtc2l6ZToxNnB4O2ZpbGw6I2NjYzt9I2dlTWVybWFpZE91dHB1dC0xNzI2MjI5ODY2MjM4IC5lcnJvci1pY29ue2ZpbGw6I2E0NDE0MTt9I2dlTWVybWFpZE91dHB1dC0xNzI2MjI5ODY2MjM4IC5lcnJvci10ZXh0e2ZpbGw6I2RkZDtzdHJva2U6I2RkZDt9I2dlTWVybWFpZE91dHB1dC0xNzI2MjI5ODY2MjM4IC5lZGdlLXRoaWNrbmVzcy1ub3JtYWx7c3Ryb2tlLXdpZHRoOjJweDt9I2dlTWVybWFpZE91dHB1dC0xNzI2MjI5ODY2MjM4IC5lZGdlLXRoaWNrbmVzcy10aGlja3tzdHJva2Utd2lkdGg6My41cHg7fSNnZU1lcm1haWRPdXRwdXQtMTcyNjIyOTg2NjIzOCAuZWRnZS1wYXR0ZXJuLXNvbGlke3N0cm9rZS1kYXNoYXJyYXk6MDt9I2dlTWVybWFpZE91dHB1dC0xNzI2MjI5ODY2MjM4IC5lZGdlLXBhdHRlcm4tZGFzaGVke3N0cm9rZS1kYXNoYXJyYXk6Mzt9I2dlTWVybWFpZE91dHB1dC0xNzI2MjI5ODY2MjM4IC5lZGdlLXBhdHRlcm4tZG90dGVke3N0cm9rZS1kYXNoYXJyYXk6Mjt9I2dlTWVybWFpZE91dHB1dC0xNzI2MjI5ODY2MjM4IC5tYXJrZXJ7ZmlsbDpsaWdodGdyZXk7c3Ryb2tlOmxpZ2h0Z3JleTt9I2dlTWVybWFpZE91dHB1dC0xNzI2MjI5ODY2MjM4IC5tYXJrZXIuY3Jvc3N7c3Ryb2tlOmxpZ2h0Z3JleTt9I2dlTWVybWFpZE91dHB1dC0xNzI2MjI5ODY2MjM4IHN2Z3tmb250LWZhbWlseToidHJlYnVjaGV0IG1zIix2ZXJkYW5hLGFyaWFsLHNhbnMtc2VyaWY7Zm9udC1zaXplOjE2cHg7fSNnZU1lcm1haWRPdXRwdXQtMTcyNjIyOTg2NjIzOCAubGFiZWx7Zm9udC1mYW1pbHk6InRyZWJ1Y2hldCBtcyIsdmVyZGFuYSxhcmlhbCxzYW5zLXNlcmlmO2NvbG9yOiNjY2M7fSNnZU1lcm1haWRPdXRwdXQtMTcyNjIyOTg2NjIzOCAuY2x1c3Rlci1sYWJlbCB0ZXh0e2ZpbGw6I0Y5RkZGRTt9I2dlTWVybWFpZE91dHB1dC0xNzI2MjI5ODY2MjM4IC5jbHVzdGVyLWxhYmVsIHNwYW57Y29sb3I6I0Y5RkZGRTt9I2dlTWVybWFpZE91dHB1dC0xNzI2MjI5ODY2MjM4IC5sYWJlbCB0ZXh0LCNnZU1lcm1haWRPdXRwdXQtMTcyNjIyOTg2NjIzOCBzcGFue2ZpbGw6I2NjYztjb2xvcjojY2NjO30jZ2VNZXJtYWlkT3V0cHV0LTE3MjYyMjk4NjYyMzggLm5vZGUgcmVjdCwjZ2VNZXJtYWlkT3V0cHV0LTE3MjYyMjk4NjYyMzggLm5vZGUgY2lyY2xlLCNnZU1lcm1haWRPdXRwdXQtMTcyNjIyOTg2NjIzOCAubm9kZSBlbGxpcHNlLCNnZU1lcm1haWRPdXRwdXQtMTcyNjIyOTg2NjIzOCAubm9kZSBwb2x5Z29uLCNnZU1lcm1haWRPdXRwdXQtMTcyNjIyOTg2NjIzOCAubm9kZSBwYXRoe2ZpbGw6IzFmMjAyMDtzdHJva2U6IzgxQjFEQjtzdHJva2Utd2lkdGg6MXB4O30jZ2VNZXJtYWlkT3V0cHV0LTE3MjYyMjk4NjYyMzggLm5vZGUgLmxhYmVse3RleHQtYWxpZ246Y2VudGVyO30jZ2VNZXJtYWlkT3V0cHV0LTE3MjYyMjk4NjYyMzggLm5vZGUuY2xpY2thYmxle2N1cnNvcjpwb2ludGVyO30jZ2VNZXJtYWlkT3V0cHV0LTE3MjYyMjk4NjYyMzggLmFycm93aGVhZFBhdGh7ZmlsbDpsaWdodGdyZXk7fSNnZU1lcm1haWRPdXRwdXQtMTcyNjIyOTg2NjIzOCAuZWRnZVBhdGggLnBhdGh7c3Ryb2tlOmxpZ2h0Z3JleTtzdHJva2Utd2lkdGg6Mi4wcHg7fSNnZU1lcm1haWRPdXRwdXQtMTcyNjIyOTg2NjIzOCAuZmxvd2NoYXJ0LWxpbmt7c3Ryb2tlOmxpZ2h0Z3JleTtmaWxsOm5vbmU7fSNnZU1lcm1haWRPdXRwdXQtMTcyNjIyOTg2NjIzOCAuZWRnZUxhYmVse2JhY2tncm91bmQtY29sb3I6aHNsKDAsIDAlLCAzNC40MTE3NjQ3MDU5JSk7dGV4dC1hbGlnbjpjZW50ZXI7fSNnZU1lcm1haWRPdXRwdXQtMTcyNjIyOTg2NjIzOCAuZWRnZUxhYmVsIHJlY3R7b3BhY2l0eTowLjU7YmFja2dyb3VuZC1jb2xvcjpoc2woMCwgMCUsIDM0LjQxMTc2NDcwNTklKTtmaWxsOmhzbCgwLCAwJSwgMzQuNDExNzY0NzA1OSUpO30jZ2VNZXJtYWlkT3V0cHV0LTE3MjYyMjk4NjYyMzggLmNsdXN0ZXIgcmVjdHtmaWxsOmhzbCgxODAsIDEuNTg3MzAxNTg3MyUsIDI4LjM1Mjk0MTE3NjUlKTtzdHJva2U6cmdiYSgyNTUsIDI1NSwgMjU1LCAwLjI1KTtzdHJva2Utd2lkdGg6MXB4O30jZ2VNZXJtYWlkT3V0cHV0LTE3MjYyMjk4NjYyMzggLmNsdXN0ZXIgdGV4dHtmaWxsOiNGOUZGRkU7fSNnZU1lcm1haWRPdXRwdXQtMTcyNjIyOTg2NjIzOCAuY2x1c3RlciBzcGFue2NvbG9yOiNGOUZGRkU7fSNnZU1lcm1haWRPdXRwdXQtMTcyNjIyOTg2NjIzOCBkaXYubWVybWFpZFRvb2x0aXB7cG9zaXRpb246YWJzb2x1dGU7dGV4dC1hbGlnbjpjZW50ZXI7bWF4LXdpZHRoOjIwMHB4O3BhZGRpbmc6MnB4O2ZvbnQtZmFtaWx5OiJ0cmVidWNoZXQgbXMiLHZlcmRhbmEsYXJpYWwsc2Fucy1zZXJpZjtmb250LXNpemU6MTJweDtiYWNrZ3JvdW5kOmhzbCgyMCwgMS41ODczMDE1ODczJSwgMTIuMzUyOTQxMTc2NSUpO2JvcmRlcjoxcHggc29saWQgcmdiYSgyNTUsIDI1NSwgMjU1LCAwLjI1KTtib3JkZXItcmFkaXVzOjJweDtwb2ludGVyLWV2ZW50czpub25lO3otaW5kZXg6MTAwO30jZ2VNZXJtYWlkT3V0cHV0LTE3MjYyMjk4NjYyMzggOnJvb3R7LS1tZXJtYWlkLWZvbnQtZmFtaWx5OiJ0cmVidWNoZXQgbXMiLHZlcmRhbmEsYXJpYWwsc2Fucy1zZXJpZjt9PC9zdHlsZT48ZyB0cmFuc2Zvcm09InRyYW5zbGF0ZSgwLCAwKSI+PG1hcmtlciBvcmllbnQ9ImF1dG8iIG1hcmtlckhlaWdodD0iMTIiIG1hcmtlcldpZHRoPSIxMiIgbWFya2VyVW5pdHM9InVzZXJTcGFjZU9uVXNlIiByZWZZPSI1IiByZWZYPSI5IiB2aWV3Qm94PSIwIDAgMTAgMTAiIGNsYXNzPSJtYXJrZXIgZmxvd2NoYXJ0IiBpZD0iZmxvd2NoYXJ0LXBvaW50RW5kIj48cGF0aCBzdHlsZT0ic3Ryb2tlLXdpZHRoOiAxOyBzdHJva2UtZGFzaGFycmF5OiAxLCAwOyIgY2xhc3M9ImFycm93TWFya2VyUGF0aCIgZD0iTSAwIDAgTCAxMCA1IEwgMCAxMCB6Ij48L3BhdGg+PC9tYXJrZXI+PG1hcmtlciBvcmllbnQ9ImF1dG8iIG1hcmtlckhlaWdodD0iMTIiIG1hcmtlcldpZHRoPSIxMiIgbWFya2VyVW5pdHM9InVzZXJTcGFjZU9uVXNlIiByZWZZPSI1IiByZWZYPSIwIiB2aWV3Qm94PSIwIDAgMTAgMTAiIGNsYXNzPSJtYXJrZXIgZmxvd2NoYXJ0IiBpZD0iZmxvd2NoYXJ0LXBvaW50U3RhcnQiPjxwYXRoIHN0eWxlPSJzdHJva2Utd2lkdGg6IDE7IHN0cm9rZS1kYXNoYXJyYXk6IDEsIDA7IiBjbGFzcz0iYXJyb3dNYXJrZXJQYXRoIiBkPSJNIDAgNSBMIDEwIDEwIEwgMTAgMCB6Ij48L3BhdGg+PC9tYXJrZXI+PG1hcmtlciBvcmllbnQ9ImF1dG8iIG1hcmtlckhlaWdodD0iMTEiIG1hcmtlcldpZHRoPSIxMSIgbWFya2VyVW5pdHM9InVzZXJTcGFjZU9uVXNlIiByZWZZPSI1IiByZWZYPSIxMSIgdmlld0JveD0iMCAwIDEwIDEwIiBjbGFzcz0ibWFya2VyIGZsb3djaGFydCIgaWQ9ImZsb3djaGFydC1jaXJjbGVFbmQiPjxjaXJjbGUgc3R5bGU9InN0cm9rZS13aWR0aDogMTsgc3Ryb2tlLWRhc2hhcnJheTogMSwgMDsiIGNsYXNzPSJhcnJvd01hcmtlclBhdGgiIHI9IjUiIGN5PSI1IiBjeD0iNSI+PC9jaXJjbGU+PC9tYXJrZXI+PG1hcmtlciBvcmllbnQ9ImF1dG8iIG1hcmtlckhlaWdodD0iMTEiIG1hcmtlcldpZHRoPSIxMSIgbWFya2VyVW5pdHM9InVzZXJTcGFjZU9uVXNlIiByZWZZPSI1IiByZWZYPSItMSIgdmlld0JveD0iMCAwIDEwIDEwIiBjbGFzcz0ibWFya2VyIGZsb3djaGFydCIgaWQ9ImZsb3djaGFydC1jaXJjbGVTdGFydCI+PGNpcmNsZSBzdHlsZT0ic3Ryb2tlLXdpZHRoOiAxOyBzdHJva2UtZGFzaGFycmF5OiAxLCAwOyIgY2xhc3M9ImFycm93TWFya2VyUGF0aCIgcj0iNSIgY3k9IjUiIGN4PSI1Ij48L2NpcmNsZT48L21hcmtlcj48bWFya2VyIG9yaWVudD0iYXV0byIgbWFya2VySGVpZ2h0PSIxMSIgbWFya2VyV2lkdGg9IjExIiBtYXJrZXJVbml0cz0idXNlclNwYWNlT25Vc2UiIHJlZlk9IjUuMiIgcmVmWD0iMTIiIHZpZXdCb3g9IjAgMCAxMSAxMSIgY2xhc3M9Im1hcmtlciBjcm9zcyBmbG93Y2hhcnQiIGlkPSJmbG93Y2hhcnQtY3Jvc3NFbmQiPjxwYXRoIHN0eWxlPSJzdHJva2Utd2lkdGg6IDI7IHN0cm9rZS1kYXNoYXJyYXk6IDEsIDA7IiBjbGFzcz0iYXJyb3dNYXJrZXJQYXRoIiBkPSJNIDEsMSBsIDksOSBNIDEwLDEgbCAtOSw5Ij48L3BhdGg+PC9tYXJrZXI+PG1hcmtlciBvcmllbnQ9ImF1dG8iIG1hcmtlckhlaWdodD0iMTEiIG1hcmtlcldpZHRoPSIxMSIgbWFya2VyVW5pdHM9InVzZXJTcGFjZU9uVXNlIiByZWZZPSI1LjIiIHJlZlg9Ii0xIiB2aWV3Qm94PSIwIDAgMTEgMTEiIGNsYXNzPSJtYXJrZXIgY3Jvc3MgZmxvd2NoYXJ0IiBpZD0iZmxvd2NoYXJ0LWNyb3NzU3RhcnQiPjxwYXRoIHN0eWxlPSJzdHJva2Utd2lkdGg6IDI7IHN0cm9rZS1kYXNoYXJyYXk6IDEsIDA7IiBjbGFzcz0iYXJyb3dNYXJrZXJQYXRoIiBkPSJNIDEsMSBsIDksOSBNIDEwLDEgbCAtOSw5Ij48L3BhdGg+PC9tYXJrZXI+PGcgY2xhc3M9InJvb3QiPjxnIGNsYXNzPSJjbHVzdGVycyI+PC9nPjxnIGNsYXNzPSJlZGdlUGF0aHMiPjxwYXRoIG1hcmtlci1lbmQ9InVybCgjZmxvd2NoYXJ0LXBvaW50RW5kKSIgc3R5bGU9ImZpbGw6bm9uZTsiIGNsYXNzPSJlZGdlLXRoaWNrbmVzcy1ub3JtYWwgZWRnZS1wYXR0ZXJuLXNvbGlkIGZsb3djaGFydC1saW5rIExTLUEgTEUtQiIgaWQ9IkwtQS1CLTAiIGQ9Ik0yNzIuNDEwMTU2MjUsNDEuNzg1NTM3MzEwNTMyNDVMMjM2LjI3NzM0Mzc1LDQ3LjU3MTI4MTA5MjExMDM3NUMyMDAuMTQ0NTMxMjUsNTMuMzU3MDI0ODczNjg4Mjk2LDEyNy44Nzg5MDYyNSw2NC45Mjg1MTI0MzY4NDQxNCw5MS43NDYwOTM3NSw3Ni40NjQyNTYyMTg0MjIwOEM1NS42MTMyODEyNSw4OCw1NS42MTMyODEyNSw5OS41LDU1LjYxMzI4MTI1LDEwNS4yNUw1NS42MTMyODEyNSwxMTEiPjwvcGF0aD48cGF0aCBtYXJrZXItZW5kPSJ1cmwoI2Zsb3djaGFydC1wb2ludEVuZCkiIHN0eWxlPSJmaWxsOm5vbmU7IiBjbGFzcz0iZWRnZS10aGlja25lc3Mtbm9ybWFsIGVkZ2UtcGF0dGVybi1zb2xpZCBmbG93Y2hhcnQtbGluayBMUy1BIExFLUMiIGlkPSJMLUEtQy0wIiBkPSJNMzE2LjI2MzE1OTg5MDc3NjcsNDJMMjk1LjYzOTIyMTc4Mzk4MDYsNDcuNzVDMjc1LjAxNTI4MzY3NzE4NDQ3LDUzLjUsMjMzLjc2NzQwNzQ2MzU5MjI0LDY1LDIxMy4xNDM0NjkzNTY3OTYxMiw3Ni41QzE5Mi41MTk1MzEyNSw4OCwxOTIuNTE5NTMxMjUsOTkuNSwxOTIuNTE5NTMxMjUsMTA1LjI1TDE5Mi41MTk1MzEyNSwxMTEiPjwvcGF0aD48cGF0aCBtYXJrZXItZW5kPSJ1cmwoI2Zsb3djaGFydC1wb2ludEVuZCkiIHN0eWxlPSJmaWxsOm5vbmU7IiBjbGFzcz0iZWRnZS10aGlja25lc3Mtbm9ybWFsIGVkZ2UtcGF0dGVybi1zb2xpZCBmbG93Y2hhcnQtbGluayBMUy1BIExFLUQiIGlkPSJMLUEtRC0wIiBkPSJNMzcxLjgzODA5OTIxMTE2NTA2LDQyTDM3MC4wMTE1NjcwNTA5NzA5LDQ3Ljc1QzM2OC4xODUwMzQ4OTA3NzY3LDUzLjUsMzY0LjUzMTk3MDU3MDM4ODQsNjUsMzYyLjcwNTQzODQxMDE5NDIsNzYuNUMzNjAuODc4OTA2MjUsODgsMzYwLjg3ODkwNjI1LDk5LjUsMzYwLjg3ODkwNjI1LDEwNS4yNUwzNjAuODc4OTA2MjUsMTExIj48L3BhdGg+PHBhdGggbWFya2VyLWVuZD0idXJsKCNmbG93Y2hhcnQtcG9pbnRFbmQpIiBzdHlsZT0iZmlsbDpub25lOyIgY2xhc3M9ImVkZ2UtdGhpY2tuZXNzLW5vcm1hbCBlZGdlLXBhdHRlcm4tc29saWQgZmxvd2NoYXJ0LWxpbmsgTFMtQSBMRS1FIiBpZD0iTC1BLUUtMCIgZD0iTTQzNi4yMjYzNzI4NzYyMTM2LDQyTDQ1Ni4xNzgyMjczOTY4NDQ2NSw0Ny43NUM0NzYuMTMwMDgxOTE3NDc1NzYsNTMuNSw1MTYuMDMzNzkwOTU4NzM3OSw2NSw1MzUuOTg1NjQ1NDc5MzY4OSw3Ni41QzU1NS45Mzc1LDg4LDU1NS45Mzc1LDk5LjUsNTU1LjkzNzUsMTA1LjI1TDU1NS45Mzc1LDExMSI+PC9wYXRoPjxwYXRoIG1hcmtlci1lbmQ9InVybCgjZmxvd2NoYXJ0LXBvaW50RW5kKSIgc3R5bGU9ImZpbGw6bm9uZTsiIGNsYXNzPSJlZGdlLXRoaWNrbmVzcy1ub3JtYWwgZWRnZS1wYXR0ZXJuLXNvbGlkIGZsb3djaGFydC1saW5rIExTLUYgTEUtRyIgaWQ9IkwtRi1HLTAiIGQ9Ik02NzEuOTI5Njg3NSwxNDMuNzM2MTc2MzQ3ODM5M0w2NDUuMTAzODQxMTQ1ODMzNCwxNDguMTEzNDgwMjg5ODY2MUM2MTguMjc3OTk0NzkxNjY2NiwxNTIuNDkwNzg0MjMxODkyODYsNTY0LjYyNjMwMjA4MzMzMzQsMTYxLjI0NTM5MjExNTk0NjQzLDUzNy44MDA0NTU3MjkxNjY2LDE2OS43ODkzNjI3MjQ2Mzk5QzUxMC45NzQ2MDkzNzUsMTc4LjMzMzMzMzMzMzMzMzM0LDUxMC45NzQ2MDkzNzUsMTg2LjY2NjY2NjY2NjY2NjY2LDUxMC45NzQ2MDkzNzUsMTkwLjgzMzMzMzMzMzMzMzM0TDUxMC45NzQ2MDkzNzUsMTk1Ij48L3BhdGg+PHBhdGggbWFya2VyLWVuZD0idXJsKCNmbG93Y2hhcnQtcG9pbnRFbmQpIiBzdHlsZT0iZmlsbDpub25lOyIgY2xhc3M9ImVkZ2UtdGhpY2tuZXNzLW5vcm1hbCBlZGdlLXBhdHRlcm4tc29saWQgZmxvd2NoYXJ0LWxpbmsgTFMtRiBMRS1IIiBpZD0iTC1GLUgtMCIgZD0iTTczNS41MTI2OTUzMTI1LDE0NUw3MjcuNDYwMTIzNjk3OTE2NiwxNDkuMTY2NjY2NjY2NjY2NjZDNzE5LjQwNzU1MjA4MzMzMzQsMTUzLjMzMzMzMzMzMzMzMzM0LDcwMy4zMDI0MDg4NTQxNjY2LDE2MS42NjY2NjY2NjY2NjY2Niw2OTUuMjQ5ODM3MjM5NTgzNCwxNzBDNjg3LjE5NzI2NTYyNSwxNzguMzMzMzMzMzMzMzMzMzQsNjg3LjE5NzI2NTYyNSwxODYuNjY2NjY2NjY2NjY2NjYsNjg3LjE5NzI2NTYyNSwxOTAuODMzMzMzMzMzMzMzMzRMNjg3LjE5NzI2NTYyNSwxOTUiPjwvcGF0aD48cGF0aCBtYXJrZXItZW5kPSJ1cmwoI2Zsb3djaGFydC1wb2ludEVuZCkiIHN0eWxlPSJmaWxsOm5vbmU7IiBjbGFzcz0iZWRnZS10aGlja25lc3Mtbm9ybWFsIGVkZ2UtcGF0dGVybi1zb2xpZCBmbG93Y2hhcnQtbGluayBMUy1GIExFLUkiIGlkPSJMLUYtSS0wIiBkPSJNODAxLjIyMTY3OTY4NzUsMTQ1TDgwOS4yNzQyNTEzMDIwODM0LDE0OS4xNjY2NjY2NjY2NjY2NkM4MTcuMzI2ODIyOTE2NjY2NiwxNTMuMzMzMzMzMzMzMzMzMzQsODMzLjQzMTk2NjE0NTgzMzQsMTYxLjY2NjY2NjY2NjY2NjY2LDg0MS40ODQ1Mzc3NjA0MTY2LDE3MEM4NDkuNTM3MTA5Mzc1LDE3OC4zMzMzMzMzMzMzMzMzNCw4NDkuNTM3MTA5Mzc1LDE4Ni42NjY2NjY2NjY2NjY2Niw4NDkuNTM3MTA5Mzc1LDE5MC44MzMzMzMzMzMzMzMzNEw4NDkuNTM3MTA5Mzc1LDE5NSI+PC9wYXRoPjxwYXRoIG1hcmtlci1lbmQ9InVybCgjZmxvd2NoYXJ0LXBvaW50RW5kKSIgc3R5bGU9ImZpbGw6bm9uZTsiIGNsYXNzPSJlZGdlLXRoaWNrbmVzcy1ub3JtYWwgZWRnZS1wYXR0ZXJuLXNvbGlkIGZsb3djaGFydC1saW5rIExTLUogTEUtSyIgaWQ9IkwtSi1LLTAiIGQ9Ik0xMTIyLjM0MDU0MTI5NDY0MywxNDVMMTEwOC45NzYxNjcyMjQ3MDI1LDE0OS4xNjY2NjY2NjY2NjY2NkMxMDk1LjYxMTc5MzE1NDc2MiwxNTMuMzMzMzMzMzMzMzMzMzQsMTA2OC44ODMwNDUwMTQ4ODEsMTYxLjY2NjY2NjY2NjY2NjY2LDEwNTUuNTE4NjcwOTQ0OTQwNiwxNzBDMTA0Mi4xNTQyOTY4NzUsMTc4LjMzMzMzMzMzMzMzMzM0LDEwNDIuMTU0Mjk2ODc1LDE4Ni42NjY2NjY2NjY2NjY2NiwxMDQyLjE1NDI5Njg3NSwxOTAuODMzMzMzMzMzMzMzMzRMMTA0Mi4xNTQyOTY4NzUsMTk1Ij48L3BhdGg+PHBhdGggbWFya2VyLWVuZD0idXJsKCNmbG93Y2hhcnQtcG9pbnRFbmQpIiBzdHlsZT0iZmlsbDpub25lOyIgY2xhc3M9ImVkZ2UtdGhpY2tuZXNzLW5vcm1hbCBlZGdlLXBhdHRlcm4tc29saWQgZmxvd2NoYXJ0LWxpbmsgTFMtSiBMRS1MIiBpZD0iTC1KLUwtMCIgZD0iTTEyNDguMjI2NTYyNSwxNDQuNjI0MTg0Nzc2NzIwOUwxMjY2LjM4MDg1OTM3NSwxNDguODUzNDg3MzEzOTM0MUMxMjg0LjUzNTE1NjI1LDE1My4wODI3ODk4NTExNDcyOCwxMzIwLjg0Mzc1LDE2MS41NDEzOTQ5MjU1NzM2MywxMzM4Ljk5ODA0Njg3NSwxNjkuOTM3MzY0MTI5NDUzNDdDMTM1Ny4xNTIzNDM3NSwxNzguMzMzMzMzMzMzMzMzMzQsMTM1Ny4xNTIzNDM3NSwxODYuNjY2NjY2NjY2NjY2NjYsMTM1Ny4xNTIzNDM3NSwxOTAuODMzMzMzMzMzMzMzMzRMMTM1Ny4xNTIzNDM3NSwxOTUiPjwvcGF0aD48cGF0aCBtYXJrZXItZW5kPSJ1cmwoI2Zsb3djaGFydC1wb2ludEVuZCkiIHN0eWxlPSJmaWxsOm5vbmU7IiBjbGFzcz0iZWRnZS10aGlja25lc3Mtbm9ybWFsIGVkZ2UtcGF0dGVybi1zb2xpZCBmbG93Y2hhcnQtbGluayBMUy1NIExFLU4iIGlkPSJMLU0tTi0wIiBkPSJNMjMwNy4wNjQ0NTMxMjUsMjkuMjc0MDU3MjE1MzAyOThMMjE1MC43MjQ5MzQ4OTU4MzM1LDM3LjE0NTA0NzY3OTQxOTE1QzE5OTQuMzg1NDE2NjY2NjY2Nyw0NS4wMTYwMzgxNDM1MzUzMiwxNjgxLjcwNjM4MDIwODMzMzMsNjAuNzU4MDE5MDcxNzY3NjU2LDE1MjUuMzY2ODYxOTc5MTY2Nyw3NC4zNzkwMDk1MzU4ODM4NEMxMzY5LjAyNzM0Mzc1LDg4LDEzNjkuMDI3MzQzNzUsOTkuNSwxMzY5LjAyNzM0Mzc1LDEwNS4yNUwxMzY5LjAyNzM0Mzc1LDExMSI+PC9wYXRoPjxwYXRoIG1hcmtlci1lbmQ9InVybCgjZmxvd2NoYXJ0LXBvaW50RW5kKSIgc3R5bGU9ImZpbGw6bm9uZTsiIGNsYXNzPSJlZGdlLXRoaWNrbmVzcy1ub3JtYWwgZWRnZS1wYXR0ZXJuLXNvbGlkIGZsb3djaGFydC1saW5rIExTLU0gTEUtTyIgaWQ9IkwtTS1PLTAiIGQ9Ik0yMzA3LjA2NDQ1MzEyNSwzMC4zMDQzMTE0NTgxMjM1MjVMMjE4My44Mzg4NjcxODc1LDM4LjAwMzU5Mjg4MTc2OTYwNkMyMDYwLjYxMzI4MTI1LDQ1LjcwMjg3NDMwNTQxNTY4LDE4MTQuMTYyMTA5Mzc1LDYxLjEwMTQzNzE1MjcwNzg0LDE2OTAuOTM2NTIzNDM3NSw3NC41NTA3MTg1NzYzNTM5M0MxNTY3LjcxMDkzNzUsODgsMTU2Ny43MTA5Mzc1LDk5LjUsMTU2Ny43MTA5Mzc1LDEwNS4yNUwxNTY3LjcxMDkzNzUsMTExIj48L3BhdGg+PHBhdGggbWFya2VyLWVuZD0idXJsKCNmbG93Y2hhcnQtcG9pbnRFbmQpIiBzdHlsZT0iZmlsbDpub25lOyIgY2xhc3M9ImVkZ2UtdGhpY2tuZXNzLW5vcm1hbCBlZGdlLXBhdHRlcm4tc29saWQgZmxvd2NoYXJ0LWxpbmsgTFMtUCBMRS1RIiBpZD0iTC1QLVEtMCIgZD0iTTE3MTEuNjA5MTg4OTg4MDk1MiwxNDVMMTY4OC40MTE5NTQzNjUwNzkzLDE0OS4xNjY2NjY2NjY2NjY2NkMxNjY1LjIxNDcxOTc0MjA2MzYsMTUzLjMzMzMzMzMzMzMzMzM0LDE2MTguODIwMjUwNDk2MDMxOCwxNjEuNjY2NjY2NjY2NjY2NjYsMTU5NS42MjMwMTU4NzMwMTYsMTcwQzE1NzIuNDI1NzgxMjUsMTc4LjMzMzMzMzMzMzMzMzM0LDE1NzIuNDI1NzgxMjUsMTg2LjY2NjY2NjY2NjY2NjY2LDE1NzIuNDI1NzgxMjUsMTkwLjgzMzMzMzMzMzMzMzM0TDE1NzIuNDI1NzgxMjUsMTk1Ij48L3BhdGg+PHBhdGggbWFya2VyLWVuZD0idXJsKCNmbG93Y2hhcnQtcG9pbnRFbmQpIiBzdHlsZT0iZmlsbDpub25lOyIgY2xhc3M9ImVkZ2UtdGhpY2tuZXNzLW5vcm1hbCBlZGdlLXBhdHRlcm4tc29saWQgZmxvd2NoYXJ0LWxpbmsgTFMtUCBMRS1SIiBpZD0iTC1QLVItMCIgZD0iTTE4MzkuNjIzODM3NDI1NTk1MiwxNDVMMTg0Ny44MDI3NDIxMjU0OTU4LDE0OS4xNjY2NjY2NjY2NjY2NkMxODU1Ljk4MTY0NjgyNTM5NjksMTUzLjMzMzMzMzMzMzMzMzM0LDE4NzIuMzM5NDU2MjI1MTk4NSwxNjEuNjY2NjY2NjY2NjY2NjYsMTg4MC41MTgzNjA5MjUwOTkyLDE3MEMxODg4LjY5NzI2NTYyNSwxNzguMzMzMzMzMzMzMzMzMzQsMTg4OC42OTcyNjU2MjUsMTg2LjY2NjY2NjY2NjY2NjY2LDE4ODguNjk3MjY1NjI1LDE5MC44MzMzMzMzMzMzMzMzNEwxODg4LjY5NzI2NTYyNSwxOTUiPjwvcGF0aD48cGF0aCBtYXJrZXItZW5kPSJ1cmwoI2Zsb3djaGFydC1wb2ludEVuZCkiIHN0eWxlPSJmaWxsOm5vbmU7IiBjbGFzcz0iZWRnZS10aGlja25lc3Mtbm9ybWFsIGVkZ2UtcGF0dGVybi1zb2xpZCBmbG93Y2hhcnQtbGluayBMUy1TIExFLVQiIGlkPSJMLVMtVC0wIiBkPSJNMjE4OS44MjM0MjgxOTk0MDQ2LDE0NUwyMTc3LjQzNzE2NjcyODY3MDUsMTQ5LjE2NjY2NjY2NjY2NjY2QzIxNjUuMDUwOTA1MjU3OTM2NCwxNTMuMzMzMzMzMzMzMzMzMzQsMjE0MC4yNzgzODIzMTY0NjgsMTYxLjY2NjY2NjY2NjY2NjY2LDIxMjcuODkyMTIwODQ1NzM0LDE3MEMyMTE1LjUwNTg1OTM3NSwxNzguMzMzMzMzMzMzMzMzMzQsMjExNS41MDU4NTkzNzUsMTg2LjY2NjY2NjY2NjY2NjY2LDIxMTUuNTA1ODU5Mzc1LDE5MC44MzMzMzMzMzMzMzMzNEwyMTE1LjUwNTg1OTM3NSwxOTUiPjwvcGF0aD48cGF0aCBtYXJrZXItZW5kPSJ1cmwoI2Zsb3djaGFydC1wb2ludEVuZCkiIHN0eWxlPSJmaWxsOm5vbmU7IiBjbGFzcz0iZWRnZS10aGlja25lc3Mtbm9ybWFsIGVkZ2UtcGF0dGVybi1zb2xpZCBmbG93Y2hhcnQtbGluayBMUy1TIExFLVUiIGlkPSJMLVMtVS0wIiBkPSJNMjI3My43MjkzMDYxNzU1OTU0LDE0NUwyMjgxLjkwODIxMDg3NTQ5NiwxNDkuMTY2NjY2NjY2NjY2NjZDMjI5MC4wODcxMTU1NzUzOTcsMTUzLjMzMzMzMzMzMzMzMzM0LDIzMDYuNDQ0OTI0OTc1MTk4MywxNjEuNjY2NjY2NjY2NjY2NjYsMjMxNC42MjM4Mjk2NzUwOTk0LDE3MEMyMzIyLjgwMjczNDM3NSwxNzguMzMzMzMzMzMzMzMzMzQsMjMyMi44MDI3MzQzNzUsMTg2LjY2NjY2NjY2NjY2NjY2LDIzMjIuODAyNzM0Mzc1LDE5MC44MzMzMzMzMzMzMzMzNEwyMzIyLjgwMjczNDM3NSwxOTUiPjwvcGF0aD48cGF0aCBtYXJrZXItZW5kPSJ1cmwoI2Zsb3djaGFydC1wb2ludEVuZCkiIHN0eWxlPSJmaWxsOm5vbmU7IiBjbGFzcz0iZWRnZS10aGlja25lc3Mtbm9ybWFsIGVkZ2UtcGF0dGVybi1zb2xpZCBmbG93Y2hhcnQtbGluayBMUy1WIExFLVciIGlkPSJMLVYtVy0wIiBkPSJNMjU0Ni4wMTAzNzAxNjM2OTA0LDE0NUwyNTM2LjIxNjY0OTYxNTU3NTUsMTQ5LjE2NjY2NjY2NjY2NjY2QzI1MjYuNDIyOTI5MDY3NDYwMiwxNTMuMzMzMzMzMzMzMzMzMzQsMjUwNi44MzU0ODc5NzEyMywxNjEuNjY2NjY2NjY2NjY2NjYsMjQ5Ny4wNDE3Njc0MjMxMTUzLDE3MEMyNDg3LjI0ODA0Njg3NSwxNzguMzMzMzMzMzMzMzMzMzQsMjQ4Ny4yNDgwNDY4NzUsMTg2LjY2NjY2NjY2NjY2NjY2LDI0ODcuMjQ4MDQ2ODc1LDE5MC44MzMzMzMzMzMzMzMzNEwyNDg3LjI0ODA0Njg3NSwxOTUiPjwvcGF0aD48cGF0aCBtYXJrZXItZW5kPSJ1cmwoI2Zsb3djaGFydC1wb2ludEVuZCkiIHN0eWxlPSJmaWxsOm5vbmU7IiBjbGFzcz0iZWRnZS10aGlja25lc3Mtbm9ybWFsIGVkZ2UtcGF0dGVybi1zb2xpZCBmbG93Y2hhcnQtbGluayBMUy1WIExFLVgiIGlkPSJMLVYtWC0wIiBkPSJNMjYxOS4zMzg2ODExNzU1OTU0LDE0NUwyNjI3LjUxNzU4NTg3NTQ5NiwxNDkuMTY2NjY2NjY2NjY2NjZDMjYzNS42OTY0OTA1NzUzOTcsMTUzLjMzMzMzMzMzMzMzMzM0LDI2NTIuMDU0Mjk5OTc1MTk4MywxNjEuNjY2NjY2NjY2NjY2NjYsMjY2MC4yMzMyMDQ2NzUwOTk0LDE3MEMyNjY4LjQxMjEwOTM3NSwxNzguMzMzMzMzMzMzMzMzMzQsMjY2OC40MTIxMDkzNzUsMTg2LjY2NjY2NjY2NjY2NjY2LDI2NjguNDEyMTA5Mzc1LDE5MC44MzMzMzMzMzMzMzMzNEwyNjY4LjQxMjEwOTM3NSwxOTUiPjwvcGF0aD48cGF0aCBtYXJrZXItZW5kPSJ1cmwoI2Zsb3djaGFydC1wb2ludEVuZCkiIHN0eWxlPSJmaWxsOm5vbmU7IiBjbGFzcz0iZWRnZS10aGlja25lc3Mtbm9ybWFsIGVkZ2UtcGF0dGVybi1zb2xpZCBmbG93Y2hhcnQtbGluayBMUy1ZIExFLVoiIGlkPSJMLVktWi0wIiBkPSJNMjk0MC45OTYzMjYyNjQ4ODA3LDE0NUwyOTI5LjE4NDc2NDA3NDkwMDYsMTQ5LjE2NjY2NjY2NjY2NjY2QzI5MTcuMzczMjAxODg0OTIwNSwxNTMuMzMzMzMzMzMzMzMzMzQsMjg5My43NTAwNzc1MDQ5NjA3LDE2MS42NjY2NjY2NjY2NjY2NiwyODgxLjkzODUxNTMxNDk4LDE3MEMyODcwLjEyNjk1MzEyNSwxNzguMzMzMzMzMzMzMzMzMzQsMjg3MC4xMjY5NTMxMjUsMTg2LjY2NjY2NjY2NjY2NjY2LDI4NzAuMTI2OTUzMTI1LDE5MC44MzMzMzMzMzMzMzMzNEwyODcwLjEyNjk1MzEyNSwxOTUiPjwvcGF0aD48cGF0aCBtYXJrZXItZW5kPSJ1cmwoI2Zsb3djaGFydC1wb2ludEVuZCkiIHN0eWxlPSJmaWxsOm5vbmU7IiBjbGFzcz0iZWRnZS10aGlja25lc3Mtbm9ybWFsIGVkZ2UtcGF0dGVybi1zb2xpZCBmbG93Y2hhcnQtbGluayBMUy1ZIExFLUFBIiBpZD0iTC1ZLUFBLTAiIGQ9Ik0zMDIyLjU1NzQzMTE3NTU5NTQsMTQ1TDMwMzAuNzM2MzM1ODc1NDk2LDE0OS4xNjY2NjY2NjY2NjY2NkMzMDM4LjkxNTI0MDU3NTM5NywxNTMuMzMzMzMzMzMzMzMzMzQsMzA1NS4yNzMwNDk5NzUxOTgzLDE2MS42NjY2NjY2NjY2NjY2NiwzMDYzLjQ1MTk1NDY3NTA5OTQsMTcwQzMwNzEuNjMwODU5Mzc1LDE3OC4zMzMzMzMzMzMzMzMzNCwzMDcxLjYzMDg1OTM3NSwxODYuNjY2NjY2NjY2NjY2NjYsMzA3MS42MzA4NTkzNzUsMTkwLjgzMzMzMzMzMzMzMzM0TDMwNzEuNjMwODU5Mzc1LDE5NSI+PC9wYXRoPjxwYXRoIG1hcmtlci1lbmQ9InVybCgjZmxvd2NoYXJ0LXBvaW50RW5kKSIgc3R5bGU9ImZpbGw6bm9uZTsiIGNsYXNzPSJlZGdlLXRoaWNrbmVzcy1ub3JtYWwgZWRnZS1wYXR0ZXJuLXNvbGlkIGZsb3djaGFydC1saW5rIExTLUJCIExFLUNDIiBpZD0iTC1CQi1DQy0wIiBkPSJNMzM3Ni4zMDMwNTk4OTU4MzM1LDE0NUwzMzYyLjEwODk5NTIyNTY5NSwxNDkuMTY2NjY2NjY2NjY2NjZDMzM0Ny45MTQ5MzA1NTU1NTYsMTUzLjMzMzMzMzMzMzMzMzM0LDMzMTkuNTI2ODAxMjE1Mjc4LDE2MS42NjY2NjY2NjY2NjY2NiwzMzA1LjMzMjczNjU0NTEzODcsMTcwQzMyOTEuMTM4NjcxODc1LDE3OC4zMzMzMzMzMzMzMzMzNCwzMjkxLjEzODY3MTg3NSwxODYuNjY2NjY2NjY2NjY2NjYsMzI5MS4xMzg2NzE4NzUsMTkwLjgzMzMzMzMzMzMzMzM0TDMyOTEuMTM4NjcxODc1LDE5NSI+PC9wYXRoPjxwYXRoIG1hcmtlci1lbmQ9InVybCgjZmxvd2NoYXJ0LXBvaW50RW5kKSIgc3R5bGU9ImZpbGw6bm9uZTsiIGNsYXNzPSJlZGdlLXRoaWNrbmVzcy1ub3JtYWwgZWRnZS1wYXR0ZXJuLXNvbGlkIGZsb3djaGFydC1saW5rIExTLUJCIExFLUREIiBpZD0iTC1CQi1ERC0wIiBkPSJNMzQ2Ny41ODQ3NzQ5MjU1OTU0LDE0NUwzNDc1Ljc2MzY3OTYyNTQ5NiwxNDkuMTY2NjY2NjY2NjY2NjZDMzQ4My45NDI1ODQzMjUzOTcsMTUzLjMzMzMzMzMzMzMzMzM0LDM1MDAuMzAwMzkzNzI1MTk4MywxNjEuNjY2NjY2NjY2NjY2NjYsMzUwOC40NzkyOTg0MjUwOTk0LDE3MEMzNTE2LjY1ODIwMzEyNSwxNzguMzMzMzMzMzMzMzMzMzQsMzUxNi42NTgyMDMxMjUsMTg2LjY2NjY2NjY2NjY2NjY2LDM1MTYuNjU4MjAzMTI1LDE5MC44MzMzMzMzMzMzMzMzNEwzNTE2LjY1ODIwMzEyNSwxOTUiPjwvcGF0aD48cGF0aCBtYXJrZXItZW5kPSJ1cmwoI2Zsb3djaGFydC1wb2ludEVuZCkiIHN0eWxlPSJmaWxsOm5vbmU7IiBjbGFzcz0iZWRnZS10aGlja25lc3Mtbm9ybWFsIGVkZ2UtcGF0dGVybi1zb2xpZCBmbG93Y2hhcnQtbGluayBMUy1FRSBMRS1GRiIgaWQ9IkwtRUUtRkYtMCIgZD0iTTM3ODMuMTk3MjY1NjI1LDE0NUwzNzgzLjE5NzI2NTYyNSwxNDkuMTY2NjY2NjY2NjY2NjZDMzc4My4xOTcyNjU2MjUsMTUzLjMzMzMzMzMzMzMzMzM0LDM3ODMuMTk3MjY1NjI1LDE2MS42NjY2NjY2NjY2NjY2NiwzNzgzLjE5NzI2NTYyNSwxNzBDMzc4My4xOTcyNjU2MjUsMTc4LjMzMzMzMzMzMzMzMzM0LDM3ODMuMTk3MjY1NjI1LDE4Ni42NjY2NjY2NjY2NjY2NiwzNzgzLjE5NzI2NTYyNSwxOTAuODMzMzMzMzMzMzMzMzRMMzc4My4xOTcyNjU2MjUsMTk1Ij48L3BhdGg+PHBhdGggbWFya2VyLWVuZD0idXJsKCNmbG93Y2hhcnQtcG9pbnRFbmQpIiBzdHlsZT0iZmlsbDpub25lOyIgY2xhc3M9ImVkZ2UtdGhpY2tuZXNzLW5vcm1hbCBlZGdlLXBhdHRlcm4tc29saWQgZmxvd2NoYXJ0LWxpbmsgTFMtQSBMRS1GIiBpZD0iTC1BLUYtMCIgZD0iTTQ4Mi4wNjY0MDYyNSwzOC44MDI3MzQ0NzI1MzA0M0w1MjkuNzgzMjAzMTI1LDQ1LjA4NTYxMjA2MDQ0MjAzQzU3Ny41LDUxLjM2ODQ4OTY0ODM1MzYyLDY3Mi45MzM1OTM3NSw2My45MzQyNDQ4MjQxNzY4MSw3MjAuNjUwMzkwNjI1LDc1Ljk2NzEyMjQxMjA4ODQxQzc2OC4zNjcxODc1LDg4LDc2OC4zNjcxODc1LDk5LjUsNzY4LjM2NzE4NzUsMTA1LjI1TDc2OC4zNjcxODc1LDExMSI+PC9wYXRoPjxwYXRoIG1hcmtlci1lbmQ9InVybCgjZmxvd2NoYXJ0LXBvaW50RW5kKSIgc3R5bGU9ImZpbGw6bm9uZTsiIGNsYXNzPSJlZGdlLXRoaWNrbmVzcy1ub3JtYWwgZWRnZS1wYXR0ZXJuLXNvbGlkIGZsb3djaGFydC1saW5rIExTLUEgTEUtSiIgaWQ9IkwtQS1KLTAiIGQ9Ik00ODIuMDY2NDA2MjUsMzEuNzUxNDQyMzE5NDM1Mjg0TDU5Ny44NjY1MzY0NTgzMzM0LDM5LjIwOTUzNTI2NjE5NjA3QzcxMy42NjY2NjY2NjY2NjY2LDQ2LjY2NzYyODIxMjk1Njg1Niw5NDUuMjY2OTI3MDgzMzMzNCw2MS41ODM4MTQxMDY0Nzg0MywxMDYxLjA2NzA1NzI5MTY2NjcsNzQuNzkxOTA3MDUzMjM5MjFDMTE3Ni44NjcxODc1LDg4LDExNzYuODY3MTg3NSw5OS41LDExNzYuODY3MTg3NSwxMDUuMjVMMTE3Ni44NjcxODc1LDExMSI+PC9wYXRoPjxwYXRoIG1hcmtlci1lbmQ9InVybCgjZmxvd2NoYXJ0LXBvaW50RW5kKSIgc3R5bGU9ImZpbGw6bm9uZTsiIGNsYXNzPSJlZGdlLXRoaWNrbmVzcy1ub3JtYWwgZWRnZS1wYXR0ZXJuLXNvbGlkIGZsb3djaGFydC1saW5rIExTLU0gTEUtUCIgaWQ9IkwtTS1QLTAiIGQ9Ik0yMzA3LjA2NDQ1MzEyNSwzMi40NjQ2MjQzMDA5NzI3MTZMMjIyMy41OTYwMjg2NDU4MzM1LDM5LjgwMzg1MzU4NDE0MzkzQzIxNDAuMTI3NjA0MTY2NjY2NSw0Ny4xNDMwODI4NjczMTUxNDQsMTk3My4xOTA3NTUyMDgzMzMzLDYxLjgyMTU0MTQzMzY1NzU4LDE4ODkuNzIyMzMwNzI5MTY2Nyw3NC45MTA3NzA3MTY4Mjg4QzE4MDYuMjUzOTA2MjUsODgsMTgwNi4yNTM5MDYyNSw5OS41LDE4MDYuMjUzOTA2MjUsMTA1LjI1TDE4MDYuMjUzOTA2MjUsMTExIj48L3BhdGg+PHBhdGggbWFya2VyLWVuZD0idXJsKCNmbG93Y2hhcnQtcG9pbnRFbmQpIiBzdHlsZT0iZmlsbDpub25lOyIgY2xhc3M9ImVkZ2UtdGhpY2tuZXNzLW5vcm1hbCBlZGdlLXBhdHRlcm4tc29saWQgZmxvd2NoYXJ0LWxpbmsgTFMtTSBMRS1TIiBpZD0iTC1NLVMtMCIgZD0iTTIzNDEuOTE2Mzk0ODcyNTcyNyw0MkwyMzI0Ljk5MDIyNDg5MzgxMDYsNDcuNzVDMjMwOC4wNjQwNTQ5MTUwNDg1LDUzLjUsMjI3NC4yMTE3MTQ5NTc1MjQyLDY1LDIyNTcuMjg1NTQ0OTc4NzYyLDc2LjVDMjI0MC4zNTkzNzUsODgsMjI0MC4zNTkzNzUsOTkuNSwyMjQwLjM1OTM3NSwxMDUuMjVMMjI0MC4zNTkzNzUsMTExIj48L3BhdGg+PHBhdGggbWFya2VyLWVuZD0idXJsKCNmbG93Y2hhcnQtcG9pbnRFbmQpIiBzdHlsZT0iZmlsbDpub25lOyIgY2xhc3M9ImVkZ2UtdGhpY2tuZXNzLW5vcm1hbCBlZGdlLXBhdHRlcm4tc29saWQgZmxvd2NoYXJ0LWxpbmsgTFMtTSBMRS1WIiBpZD0iTC1NLVYtMCIgZD0iTTI0NTYuMDAxMDQyOTMwODI1NCw0MkwyNDc3LjY2MjMyNzQ0MjM1NDYsNDcuNzVDMjQ5OS4zMjM2MTE5NTM4ODM4LDUzLjUsMjU0Mi42NDYxODA5NzY5NDIsNjUsMjU2NC4zMDc0NjU0ODg0NzEsNzYuNUMyNTg1Ljk2ODc1LDg4LDI1ODUuOTY4NzUsOTkuNSwyNTg1Ljk2ODc1LDEwNS4yNUwyNTg1Ljk2ODc1LDExMSI+PC9wYXRoPjxwYXRoIG1hcmtlci1lbmQ9InVybCgjZmxvd2NoYXJ0LXBvaW50RW5kKSIgc3R5bGU9ImZpbGw6bm9uZTsiIGNsYXNzPSJlZGdlLXRoaWNrbmVzcy1ub3JtYWwgZWRnZS1wYXR0ZXJuLXNvbGlkIGZsb3djaGFydC1saW5rIExTLU0gTEUtWSIgaWQ9IkwtTS1ZLTAiIGQ9Ik0yNDc2Ljg1MzUxNTYyNSwzMi4zMjA1OTU0NTg4NDE0NkwyNTYyLjI0MjUxMzAyMDgzMzUsMzkuNjgzODI5NTQ5MDM0NTVDMjY0Ny42MzE1MTA0MTY2NjY1LDQ3LjA0NzA2MzYzOTIyNzY0NSwyODE4LjQwOTUwNTIwODMzMzUsNjEuNzczNTMxODE5NjEzODIsMjkwMy43OTg1MDI2MDQxNjY1LDc0Ljg4Njc2NTkwOTgwNjkxQzI5ODkuMTg3NSw4OCwyOTg5LjE4NzUsOTkuNSwyOTg5LjE4NzUsMTA1LjI1TDI5ODkuMTg3NSwxMTEiPjwvcGF0aD48cGF0aCBtYXJrZXItZW5kPSJ1cmwoI2Zsb3djaGFydC1wb2ludEVuZCkiIHN0eWxlPSJmaWxsOm5vbmU7IiBjbGFzcz0iZWRnZS10aGlja25lc3Mtbm9ybWFsIGVkZ2UtcGF0dGVybi1zb2xpZCBmbG93Y2hhcnQtbGluayBMUy1NIExFLUJCIiBpZD0iTC1NLUJCLTAiIGQ9Ik0yNDc2Ljg1MzUxNTYyNSwyOS4xOTQ4MTI5MzM5MzQyNDRMMjYzNi40MTM3MzY5NzkxNjY1LDM3LjA3OTAxMDc3ODI3ODU0QzI3OTUuOTczOTU4MzMzMzMzNSw0NC45NjMyMDg2MjI2MjI4MywzMTE1LjA5NDQwMTA0MTY2NjUsNjAuNzMxNjA0MzExMzExNDIsMzI3NC42NTQ2MjIzOTU4MzM1LDc0LjM2NTgwMjE1NTY1NTcxQzM0MzQuMjE0ODQzNzUsODgsMzQzNC4yMTQ4NDM3NSw5OS41LDM0MzQuMjE0ODQzNzUsMTA1LjI1TDM0MzQuMjE0ODQzNzUsMTExIj48L3BhdGg+PHBhdGggbWFya2VyLWVuZD0idXJsKCNmbG93Y2hhcnQtcG9pbnRFbmQpIiBzdHlsZT0iZmlsbDpub25lOyIgY2xhc3M9ImVkZ2UtdGhpY2tuZXNzLW5vcm1hbCBlZGdlLXBhdHRlcm4tc29saWQgZmxvd2NoYXJ0LWxpbmsgTFMtTSBMRS1FRSIgaWQ9IkwtTS1FRS0wIiBkPSJNMjQ3Ni44NTM1MTU2MjUsMjguMTQyNTczMzU5NTAxNTdMMjY5NC41Nzc0NzM5NTgzMzM1LDM2LjIwMjE0NDQ2NjI1MTMwNUMyOTEyLjMwMTQzMjI5MTY2NjUsNDQuMjYxNzE1NTczMDAxMDUsMzM0Ny43NDkzNDg5NTgzMzM1LDYwLjM4MDg1Nzc4NjUwMDUyLDM1NjUuNDczMzA3MjkxNjY2NSw3NC4xOTA0Mjg4OTMyNTAyNkMzNzgzLjE5NzI2NTYyNSw4OCwzNzgzLjE5NzI2NTYyNSw5OS41LDM3ODMuMTk3MjY1NjI1LDEwNS4yNUwzNzgzLjE5NzI2NTYyNSwxMTEiPjwvcGF0aD48L2c+PGcgY2xhc3M9ImVkZ2VMYWJlbHMiPjxnIGNsYXNzPSJlZGdlTGFiZWwiPjxnIHRyYW5zZm9ybT0idHJhbnNsYXRlKDAsIDApIiBjbGFzcz0ibGFiZWwiPjxyZWN0IGhlaWdodD0iMCIgd2lkdGg9IjAiIHJ5PSIwIiByeD0iMCI+PC9yZWN0Pjx0ZXh0IHN0eWxlPSIiPjx0c3BhbiBjbGFzcz0icm93IiB4PSIwIiBkeT0iMWVtIiB4bWw6c3BhY2U9InByZXNlcnZlIj48L3RzcGFuPjwvdGV4dD48L2c+PC9nPjxnIGNsYXNzPSJlZGdlTGFiZWwiPjxnIHRyYW5zZm9ybT0idHJhbnNsYXRlKDAsIDApIiBjbGFzcz0ibGFiZWwiPjxyZWN0IGhlaWdodD0iMCIgd2lkdGg9IjAiIHJ5PSIwIiByeD0iMCI+PC9yZWN0Pjx0ZXh0IHN0eWxlPSIiPjx0c3BhbiBjbGFzcz0icm93IiB4PSIwIiBkeT0iMWVtIiB4bWw6c3BhY2U9InByZXNlcnZlIj48L3RzcGFuPjwvdGV4dD48L2c+PC9nPjxnIGNsYXNzPSJlZGdlTGFiZWwiPjxnIHRyYW5zZm9ybT0idHJhbnNsYXRlKDAsIDApIiBjbGFzcz0ibGFiZWwiPjxyZWN0IGhlaWdodD0iMCIgd2lkdGg9IjAiIHJ5PSIwIiByeD0iMCI+PC9yZWN0Pjx0ZXh0IHN0eWxlPSIiPjx0c3BhbiBjbGFzcz0icm93IiB4PSIwIiBkeT0iMWVtIiB4bWw6c3BhY2U9InByZXNlcnZlIj48L3RzcGFuPjwvdGV4dD48L2c+PC9nPjxnIGNsYXNzPSJlZGdlTGFiZWwiPjxnIHRyYW5zZm9ybT0idHJhbnNsYXRlKDAsIDApIiBjbGFzcz0ibGFiZWwiPjxyZWN0IGhlaWdodD0iMCIgd2lkdGg9IjAiIHJ5PSIwIiByeD0iMCI+PC9yZWN0Pjx0ZXh0IHN0eWxlPSIiPjx0c3BhbiBjbGFzcz0icm93IiB4PSIwIiBkeT0iMWVtIiB4bWw6c3BhY2U9InByZXNlcnZlIj48L3RzcGFuPjwvdGV4dD48L2c+PC9nPjxnIGNsYXNzPSJlZGdlTGFiZWwiPjxnIHRyYW5zZm9ybT0idHJhbnNsYXRlKDAsIDApIiBjbGFzcz0ibGFiZWwiPjxyZWN0IGhlaWdodD0iMCIgd2lkdGg9IjAiIHJ5PSIwIiByeD0iMCI+PC9yZWN0Pjx0ZXh0IHN0eWxlPSIiPjx0c3BhbiBjbGFzcz0icm93IiB4PSIwIiBkeT0iMWVtIiB4bWw6c3BhY2U9InByZXNlcnZlIj48L3RzcGFuPjwvdGV4dD48L2c+PC9nPjxnIGNsYXNzPSJlZGdlTGFiZWwiPjxnIHRyYW5zZm9ybT0idHJhbnNsYXRlKDAsIDApIiBjbGFzcz0ibGFiZWwiPjxyZWN0IGhlaWdodD0iMCIgd2lkdGg9IjAiIHJ5PSIwIiByeD0iMCI+PC9yZWN0Pjx0ZXh0IHN0eWxlPSIiPjx0c3BhbiBjbGFzcz0icm93IiB4PSIwIiBkeT0iMWVtIiB4bWw6c3BhY2U9InByZXNlcnZlIj48L3RzcGFuPjwvdGV4dD48L2c+PC9nPjxnIGNsYXNzPSJlZGdlTGFiZWwiPjxnIHRyYW5zZm9ybT0idHJhbnNsYXRlKDAsIDApIiBjbGFzcz0ibGFiZWwiPjxyZWN0IGhlaWdodD0iMCIgd2lkdGg9IjAiIHJ5PSIwIiByeD0iMCI+PC9yZWN0Pjx0ZXh0IHN0eWxlPSIiPjx0c3BhbiBjbGFzcz0icm93IiB4PSIwIiBkeT0iMWVtIiB4bWw6c3BhY2U9InByZXNlcnZlIj48L3RzcGFuPjwvdGV4dD48L2c+PC9nPjxnIGNsYXNzPSJlZGdlTGFiZWwiPjxnIHRyYW5zZm9ybT0idHJhbnNsYXRlKDAsIDApIiBjbGFzcz0ibGFiZWwiPjxyZWN0IGhlaWdodD0iMCIgd2lkdGg9IjAiIHJ5PSIwIiByeD0iMCI+PC9yZWN0Pjx0ZXh0IHN0eWxlPSIiPjx0c3BhbiBjbGFzcz0icm93IiB4PSIwIiBkeT0iMWVtIiB4bWw6c3BhY2U9InByZXNlcnZlIj48L3RzcGFuPjwvdGV4dD48L2c+PC9nPjxnIGNsYXNzPSJlZGdlTGFiZWwiPjxnIHRyYW5zZm9ybT0idHJhbnNsYXRlKDAsIDApIiBjbGFzcz0ibGFiZWwiPjxyZWN0IGhlaWdodD0iMCIgd2lkdGg9IjAiIHJ5PSIwIiByeD0iMCI+PC9yZWN0Pjx0ZXh0IHN0eWxlPSIiPjx0c3BhbiBjbGFzcz0icm93IiB4PSIwIiBkeT0iMWVtIiB4bWw6c3BhY2U9InByZXNlcnZlIj48L3RzcGFuPjwvdGV4dD48L2c+PC9nPjxnIGNsYXNzPSJlZGdlTGFiZWwiPjxnIHRyYW5zZm9ybT0idHJhbnNsYXRlKDAsIDApIiBjbGFzcz0ibGFiZWwiPjxyZWN0IGhlaWdodD0iMCIgd2lkdGg9IjAiIHJ5PSIwIiByeD0iMCI+PC9yZWN0Pjx0ZXh0IHN0eWxlPSIiPjx0c3BhbiBjbGFzcz0icm93IiB4PSIwIiBkeT0iMWVtIiB4bWw6c3BhY2U9InByZXNlcnZlIj48L3RzcGFuPjwvdGV4dD48L2c+PC9nPjxnIGNsYXNzPSJlZGdlTGFiZWwiPjxnIHRyYW5zZm9ybT0idHJhbnNsYXRlKDAsIDApIiBjbGFzcz0ibGFiZWwiPjxyZWN0IGhlaWdodD0iMCIgd2lkdGg9IjAiIHJ5PSIwIiByeD0iMCI+PC9yZWN0Pjx0ZXh0IHN0eWxlPSIiPjx0c3BhbiBjbGFzcz0icm93IiB4PSIwIiBkeT0iMWVtIiB4bWw6c3BhY2U9InByZXNlcnZlIj48L3RzcGFuPjwvdGV4dD48L2c+PC9nPjxnIGNsYXNzPSJlZGdlTGFiZWwiPjxnIHRyYW5zZm9ybT0idHJhbnNsYXRlKDAsIDApIiBjbGFzcz0ibGFiZWwiPjxyZWN0IGhlaWdodD0iMCIgd2lkdGg9IjAiIHJ5PSIwIiByeD0iMCI+PC9yZWN0Pjx0ZXh0IHN0eWxlPSIiPjx0c3BhbiBjbGFzcz0icm93IiB4PSIwIiBkeT0iMWVtIiB4bWw6c3BhY2U9InByZXNlcnZlIj48L3RzcGFuPjwvdGV4dD48L2c+PC9nPjxnIGNsYXNzPSJlZGdlTGFiZWwiPjxnIHRyYW5zZm9ybT0idHJhbnNsYXRlKDAsIDApIiBjbGFzcz0ibGFiZWwiPjxyZWN0IGhlaWdodD0iMCIgd2lkdGg9IjAiIHJ5PSIwIiByeD0iMCI+PC9yZWN0Pjx0ZXh0IHN0eWxlPSIiPjx0c3BhbiBjbGFzcz0icm93IiB4PSIwIiBkeT0iMWVtIiB4bWw6c3BhY2U9InByZXNlcnZlIj48L3RzcGFuPjwvdGV4dD48L2c+PC9nPjxnIGNsYXNzPSJlZGdlTGFiZWwiPjxnIHRyYW5zZm9ybT0idHJhbnNsYXRlKDAsIDApIiBjbGFzcz0ibGFiZWwiPjxyZWN0IGhlaWdodD0iMCIgd2lkdGg9IjAiIHJ5PSIwIiByeD0iMCI+PC9yZWN0Pjx0ZXh0IHN0eWxlPSIiPjx0c3BhbiBjbGFzcz0icm93IiB4PSIwIiBkeT0iMWVtIiB4bWw6c3BhY2U9InByZXNlcnZlIj48L3RzcGFuPjwvdGV4dD48L2c+PC9nPjxnIGNsYXNzPSJlZGdlTGFiZWwiPjxnIHRyYW5zZm9ybT0idHJhbnNsYXRlKDAsIDApIiBjbGFzcz0ibGFiZWwiPjxyZWN0IGhlaWdodD0iMCIgd2lkdGg9IjAiIHJ5PSIwIiByeD0iMCI+PC9yZWN0Pjx0ZXh0IHN0eWxlPSIiPjx0c3BhbiBjbGFzcz0icm93IiB4PSIwIiBkeT0iMWVtIiB4bWw6c3BhY2U9InByZXNlcnZlIj48L3RzcGFuPjwvdGV4dD48L2c+PC9nPjxnIGNsYXNzPSJlZGdlTGFiZWwiPjxnIHRyYW5zZm9ybT0idHJhbnNsYXRlKDAsIDApIiBjbGFzcz0ibGFiZWwiPjxyZWN0IGhlaWdodD0iMCIgd2lkdGg9IjAiIHJ5PSIwIiByeD0iMCI+PC9yZWN0Pjx0ZXh0IHN0eWxlPSIiPjx0c3BhbiBjbGFzcz0icm93IiB4PSIwIiBkeT0iMWVtIiB4bWw6c3BhY2U9InByZXNlcnZlIj48L3RzcGFuPjwvdGV4dD48L2c+PC9nPjxnIGNsYXNzPSJlZGdlTGFiZWwiPjxnIHRyYW5zZm9ybT0idHJhbnNsYXRlKDAsIDApIiBjbGFzcz0ibGFiZWwiPjxyZWN0IGhlaWdodD0iMCIgd2lkdGg9IjAiIHJ5PSIwIiByeD0iMCI+PC9yZWN0Pjx0ZXh0IHN0eWxlPSIiPjx0c3BhbiBjbGFzcz0icm93IiB4PSIwIiBkeT0iMWVtIiB4bWw6c3BhY2U9InByZXNlcnZlIj48L3RzcGFuPjwvdGV4dD48L2c+PC9nPjxnIGNsYXNzPSJlZGdlTGFiZWwiPjxnIHRyYW5zZm9ybT0idHJhbnNsYXRlKDAsIDApIiBjbGFzcz0ibGFiZWwiPjxyZWN0IGhlaWdodD0iMCIgd2lkdGg9IjAiIHJ5PSIwIiByeD0iMCI+PC9yZWN0Pjx0ZXh0IHN0eWxlPSIiPjx0c3BhbiBjbGFzcz0icm93IiB4PSIwIiBkeT0iMWVtIiB4bWw6c3BhY2U9InByZXNlcnZlIj48L3RzcGFuPjwvdGV4dD48L2c+PC9nPjxnIGNsYXNzPSJlZGdlTGFiZWwiPjxnIHRyYW5zZm9ybT0idHJhbnNsYXRlKDAsIDApIiBjbGFzcz0ibGFiZWwiPjxyZWN0IGhlaWdodD0iMCIgd2lkdGg9IjAiIHJ5PSIwIiByeD0iMCI+PC9yZWN0Pjx0ZXh0IHN0eWxlPSIiPjx0c3BhbiBjbGFzcz0icm93IiB4PSIwIiBkeT0iMWVtIiB4bWw6c3BhY2U9InByZXNlcnZlIj48L3RzcGFuPjwvdGV4dD48L2c+PC9nPjxnIGNsYXNzPSJlZGdlTGFiZWwiPjxnIHRyYW5zZm9ybT0idHJhbnNsYXRlKDAsIDApIiBjbGFzcz0ibGFiZWwiPjxyZWN0IGhlaWdodD0iMCIgd2lkdGg9IjAiIHJ5PSIwIiByeD0iMCI+PC9yZWN0Pjx0ZXh0IHN0eWxlPSIiPjx0c3BhbiBjbGFzcz0icm93IiB4PSIwIiBkeT0iMWVtIiB4bWw6c3BhY2U9InByZXNlcnZlIj48L3RzcGFuPjwvdGV4dD48L2c+PC9nPjxnIGNsYXNzPSJlZGdlTGFiZWwiPjxnIHRyYW5zZm9ybT0idHJhbnNsYXRlKDAsIDApIiBjbGFzcz0ibGFiZWwiPjxyZWN0IGhlaWdodD0iMCIgd2lkdGg9IjAiIHJ5PSIwIiByeD0iMCI+PC9yZWN0Pjx0ZXh0IHN0eWxlPSIiPjx0c3BhbiBjbGFzcz0icm93IiB4PSIwIiBkeT0iMWVtIiB4bWw6c3BhY2U9InByZXNlcnZlIj48L3RzcGFuPjwvdGV4dD48L2c+PC9nPjxnIGNsYXNzPSJlZGdlTGFiZWwiPjxnIHRyYW5zZm9ybT0idHJhbnNsYXRlKDAsIDApIiBjbGFzcz0ibGFiZWwiPjxyZWN0IGhlaWdodD0iMCIgd2lkdGg9IjAiIHJ5PSIwIiByeD0iMCI+PC9yZWN0Pjx0ZXh0IHN0eWxlPSIiPjx0c3BhbiBjbGFzcz0icm93IiB4PSIwIiBkeT0iMWVtIiB4bWw6c3BhY2U9InByZXNlcnZlIj48L3RzcGFuPjwvdGV4dD48L2c+PC9nPjxnIHRyYW5zZm9ybT0idHJhbnNsYXRlKDc2OC4zNjcxODc1LCA3Ni41KSIgY2xhc3M9ImVkZ2VMYWJlbCI+PGcgdHJhbnNmb3JtPSJ0cmFuc2xhdGUoLTYzLjE1MjM0Mzc1LCAtOS41KSIgY2xhc3M9ImxhYmVsIj48cmVjdCBoZWlnaHQ9IjE5LjI2MDI5OTY4MjYxNzE4OCIgd2lkdGg9IjEyNS45NjEwMjE0MjMzMzk4NCIgcnk9IjAiIHJ4PSIwIj48L3JlY3Q+PHRleHQgc3R5bGU9IiI+PHRzcGFuIGNsYXNzPSJyb3ciIHg9IjAiIGR5PSIxZW0iIHhtbDpzcGFjZT0icHJlc2VydmUiPkNvbGxhYm9yYXRlcyB3aXRoPC90c3Bhbj48L3RleHQ+PC9nPjwvZz48ZyB0cmFuc2Zvcm09InRyYW5zbGF0ZSgxMTc2Ljg2NzE4NzUsIDc2LjUpIiBjbGFzcz0iZWRnZUxhYmVsIj48ZyB0cmFuc2Zvcm09InRyYW5zbGF0ZSgtNjMuMTUyMzQzNzUsIC05LjUpIiBjbGFzcz0ibGFiZWwiPjxyZWN0IGhlaWdodD0iMTkuMjYwMjk5NjgyNjE3MTg4IiB3aWR0aD0iMTI1Ljk2MTAyMTQyMzMzOTg0IiByeT0iMCIgcng9IjAiPjwvcmVjdD48dGV4dCBzdHlsZT0iIj48dHNwYW4gY2xhc3M9InJvdyIgeD0iMCIgZHk9IjFlbSIgeG1sOnNwYWNlPSJwcmVzZXJ2ZSI+Q29sbGFib3JhdGVzIHdpdGg8L3RzcGFuPjwvdGV4dD48L2c+PC9nPjxnIHRyYW5zZm9ybT0idHJhbnNsYXRlKDE4MDYuMjUzOTA2MjUsIDc2LjUpIiBjbGFzcz0iZWRnZUxhYmVsIj48ZyB0cmFuc2Zvcm09InRyYW5zbGF0ZSgtMzkuOTQxNDA2MjUsIC05LjUpIiBjbGFzcz0ibGFiZWwiPjxyZWN0IGhlaWdodD0iMTkuMjYwMjk5NjgyNjE3MTg4IiB3aWR0aD0iODAuNzE5Mzc1NjEwMzUxNTYiIHJ5PSIwIiByeD0iMCI+PC9yZWN0Pjx0ZXh0IHN0eWxlPSIiPjx0c3BhbiBjbGFzcz0icm93IiB4PSIwIiBkeT0iMWVtIiB4bWw6c3BhY2U9InByZXNlcnZlIj5Xb3JrcyB3aXRoPC90c3Bhbj48L3RleHQ+PC9nPjwvZz48ZyB0cmFuc2Zvcm09InRyYW5zbGF0ZSgyMjQwLjM1OTM3NSwgNzYuNSkiIGNsYXNzPSJlZGdlTGFiZWwiPjxnIHRyYW5zZm9ybT0idHJhbnNsYXRlKC02My4xNTIzNDM3NSwgLTkuNSkiIGNsYXNzPSJsYWJlbCI+PHJlY3QgaGVpZ2h0PSIxOS4yNjAyOTk2ODI2MTcxODgiIHdpZHRoPSIxMjUuOTYxMDIxNDIzMzM5ODQiIHJ5PSIwIiByeD0iMCI+PC9yZWN0Pjx0ZXh0IHN0eWxlPSIiPjx0c3BhbiBjbGFzcz0icm93IiB4PSIwIiBkeT0iMWVtIiB4bWw6c3BhY2U9InByZXNlcnZlIj5Db2xsYWJvcmF0ZXMgd2l0aDwvdHNwYW4+PC90ZXh0PjwvZz48L2c+PGcgdHJhbnNmb3JtPSJ0cmFuc2xhdGUoMjU4NS45Njg3NSwgNzYuNSkiIGNsYXNzPSJlZGdlTGFiZWwiPjxnIHRyYW5zZm9ybT0idHJhbnNsYXRlKC0zOS45NDE0MDYyNSwgLTkuNSkiIGNsYXNzPSJsYWJlbCI+PHJlY3QgaGVpZ2h0PSIxOS4yNjAyOTk2ODI2MTcxODgiIHdpZHRoPSI4MC43MTkzNzU2MTAzNTE1NiIgcnk9IjAiIHJ4PSIwIj48L3JlY3Q+PHRleHQgc3R5bGU9IiI+PHRzcGFuIGNsYXNzPSJyb3ciIHg9IjAiIGR5PSIxZW0iIHhtbDpzcGFjZT0icHJlc2VydmUiPldvcmtzIHdpdGg8L3RzcGFuPjwvdGV4dD48L2c+PC9nPjxnIHRyYW5zZm9ybT0idHJhbnNsYXRlKDI5ODkuMTg3NSwgNzYuNSkiIGNsYXNzPSJlZGdlTGFiZWwiPjxnIHRyYW5zZm9ybT0idHJhbnNsYXRlKC0zMS4yMDcwMzEyNSwgLTkuNSkiIGNsYXNzPSJsYWJlbCI+PHJlY3QgaGVpZ2h0PSIxOS4yNjAyOTk2ODI2MTcxODgiIHdpZHRoPSI2MS44NjAzMzYzMDM3MTA5NCIgcnk9IjAiIHJ4PSIwIj48L3JlY3Q+PHRleHQgc3R5bGU9IiI+PHRzcGFuIGNsYXNzPSJyb3ciIHg9IjAiIGR5PSIxZW0iIHhtbDpzcGFjZT0icHJlc2VydmUiPlN1cHBvcnRzPC90c3Bhbj48L3RleHQ+PC9nPjwvZz48ZyB0cmFuc2Zvcm09InRyYW5zbGF0ZSgzNDM0LjIxNDg0Mzc1LCA3Ni41KSIgY2xhc3M9ImVkZ2VMYWJlbCI+PGcgdHJhbnNmb3JtPSJ0cmFuc2xhdGUoLTM5Ljk0MTQwNjI1LCAtOS41KSIgY2xhc3M9ImxhYmVsIj48cmVjdCBoZWlnaHQ9IjE5LjI2MDI5OTY4MjYxNzE4OCIgd2lkdGg9IjgwLjcxOTM3NTYxMDM1MTU2IiByeT0iMCIgcng9IjAiPjwvcmVjdD48dGV4dCBzdHlsZT0iIj48dHNwYW4gY2xhc3M9InJvdyIgeD0iMCIgZHk9IjFlbSIgeG1sOnNwYWNlPSJwcmVzZXJ2ZSI+V29ya3Mgd2l0aDwvdHNwYW4+PC90ZXh0PjwvZz48L2c+PGcgdHJhbnNmb3JtPSJ0cmFuc2xhdGUoMzc4My4xOTcyNjU2MjUsIDc2LjUpIiBjbGFzcz0iZWRnZUxhYmVsIj48ZyB0cmFuc2Zvcm09InRyYW5zbGF0ZSgtMzEuMjA3MDMxMjUsIC05LjUpIiBjbGFzcz0ibGFiZWwiPjxyZWN0IGhlaWdodD0iMTkuMjYwMjk5NjgyNjE3MTg4IiB3aWR0aD0iNjEuODYwMzM2MzAzNzEwOTQiIHJ5PSIwIiByeD0iMCI+PC9yZWN0Pjx0ZXh0IHN0eWxlPSIiPjx0c3BhbiBjbGFzcz0icm93IiB4PSIwIiBkeT0iMWVtIiB4bWw6c3BhY2U9InByZXNlcnZlIj5TdXBwb3J0czwvdHNwYW4+PC90ZXh0PjwvZz48L2c+PC9nPjxnIGNsYXNzPSJub2RlcyI+PGcgdHJhbnNmb3JtPSJ0cmFuc2xhdGUoMzc3LjIzODI4MTI1LCAyNSkiIGlkPSJmbG93Y2hhcnQtQS0xMzcyIiBjbGFzcz0ibm9kZSBkZWZhdWx0IGRlZmF1bHQiPjxyZWN0IGhlaWdodD0iMzQiIHdpZHRoPSIyMDkuNjU2MjUiIHk9Ii0xNyIgeD0iLTEwNC44MjgxMjUiIHJ5PSIwIiByeD0iMCIgc3R5bGU9IiIgY2xhc3M9ImJhc2ljIGxhYmVsLWNvbnRhaW5lciI+PC9yZWN0PjxnIHRyYW5zZm9ybT0idHJhbnNsYXRlKC05Ny4zMjgxMjUsIC05LjUpIiBzdHlsZT0iIiBjbGFzcz0ibGFiZWwiPjx0ZXh0IHN0eWxlPSIiPjx0c3BhbiBjbGFzcz0icm93IiB4PSIwIiBkeT0iMWVtIiB4bWw6c3BhY2U9InByZXNlcnZlIj5SZXNlYXJjaCBhbmQgRGV2ZWxvcG1lbnQ8L3RzcGFuPjwvdGV4dD48L2c+PC9nPjxnIHRyYW5zZm9ybT0idHJhbnNsYXRlKDU1LjYxMzI4MTI1LCAxMjgpIiBpZD0iZmxvd2NoYXJ0LUItMTM3MyIgY2xhc3M9Im5vZGUgZGVmYXVsdCBkZWZhdWx0Ij48cmVjdCBoZWlnaHQ9IjM0IiB3aWR0aD0iOTUuMjI2NTYyNSIgeT0iLTE3IiB4PSItNDcuNjEzMjgxMjUiIHJ5PSIwIiByeD0iMCIgc3R5bGU9IiIgY2xhc3M9ImJhc2ljIGxhYmVsLWNvbnRhaW5lciI+PC9yZWN0PjxnIHRyYW5zZm9ybT0idHJhbnNsYXRlKC00MC4xMTMyODEyNSwgLTkuNSkiIHN0eWxlPSIiIGNsYXNzPSJsYWJlbCI+PHRleHQgc3R5bGU9IiI+PHRzcGFuIGNsYXNzPSJyb3ciIHg9IjAiIGR5PSIxZW0iIHhtbDpzcGFjZT0icHJlc2VydmUiPkdlbmV0aWNpc3RzPC90c3Bhbj48L3RleHQ+PC9nPjwvZz48ZyB0cmFuc2Zvcm09InRyYW5zbGF0ZSgxOTIuNTE5NTMxMjUsIDEyOCkiIGlkPSJmbG93Y2hhcnQtQy0xMzc1IiBjbGFzcz0ibm9kZSBkZWZhdWx0IGRlZmF1bHQiPjxyZWN0IGhlaWdodD0iMzQiIHdpZHRoPSI3OC41ODU5Mzc1IiB5PSItMTciIHg9Ii0zOS4yOTI5Njg3NSIgcnk9IjAiIHJ4PSIwIiBzdHlsZT0iIiBjbGFzcz0iYmFzaWMgbGFiZWwtY29udGFpbmVyIj48L3JlY3Q+PGcgdHJhbnNmb3JtPSJ0cmFuc2xhdGUoLTMxLjc5Mjk2ODc1LCAtOS41KSIgc3R5bGU9IiIgY2xhc3M9ImxhYmVsIj48dGV4dCBzdHlsZT0iIj48dHNwYW4gY2xhc3M9InJvdyIgeD0iMCIgZHk9IjFlbSIgeG1sOnNwYWNlPSJwcmVzZXJ2ZSI+QnJlZWRlcnM8L3RzcGFuPjwvdGV4dD48L2c+PC9nPjxnIHRyYW5zZm9ybT0idHJhbnNsYXRlKDM2MC44Nzg5MDYyNSwgMTI4KSIgaWQ9ImZsb3djaGFydC1ELTEzNzciIGNsYXNzPSJub2RlIGRlZmF1bHQgZGVmYXVsdCI+PHJlY3QgaGVpZ2h0PSIzNCIgd2lkdGg9IjE1OC4xMzI4MTI1IiB5PSItMTciIHg9Ii03OS4wNjY0MDYyNSIgcnk9IjAiIHJ4PSIwIiBzdHlsZT0iIiBjbGFzcz0iYmFzaWMgbGFiZWwtY29udGFpbmVyIj48L3JlY3Q+PGcgdHJhbnNmb3JtPSJ0cmFuc2xhdGUoLTcxLjU2NjQwNjI1LCAtOS41KSIgc3R5bGU9IiIgY2xhc3M9ImxhYmVsIj48dGV4dCBzdHlsZT0iIj48dHNwYW4gY2xhc3M9InJvdyIgeD0iMCIgZHk9IjFlbSIgeG1sOnNwYWNlPSJwcmVzZXJ2ZSI+TW9sZWN1bGFyIEJpb2xvZ2lzdHM8L3RzcGFuPjwvdGV4dD48L2c+PC9nPjxnIHRyYW5zZm9ybT0idHJhbnNsYXRlKDU1NS45Mzc1LCAxMjgpIiBpZD0iZmxvd2NoYXJ0LUUtMTM3OSIgY2xhc3M9Im5vZGUgZGVmYXVsdCBkZWZhdWx0Ij48cmVjdCBoZWlnaHQ9IjM0IiB3aWR0aD0iMTMxLjk4NDM3NSIgeT0iLTE3IiB4PSItNjUuOTkyMTg3NSIgcnk9IjAiIHJ4PSIwIiBzdHlsZT0iIiBjbGFzcz0iYmFzaWMgbGFiZWwtY29udGFpbmVyIj48L3JlY3Q+PGcgdHJhbnNmb3JtPSJ0cmFuc2xhdGUoLTU4LjQ5MjE4NzUsIC05LjUpIiBzdHlsZT0iIiBjbGFzcz0ibGFiZWwiPjx0ZXh0IHN0eWxlPSIiPjx0c3BhbiBjbGFzcz0icm93IiB4PSIwIiBkeT0iMWVtIiB4bWw6c3BhY2U9InByZXNlcnZlIj5CaW90ZWNobm9sb2dpc3RzPC90c3Bhbj48L3RleHQ+PC9nPjwvZz48ZyB0cmFuc2Zvcm09InRyYW5zbGF0ZSg3NjguMzY3MTg3NSwgMTI4KSIgaWQ9ImZsb3djaGFydC1GLTEzODAiIGNsYXNzPSJub2RlIGRlZmF1bHQgZGVmYXVsdCI+PHJlY3QgaGVpZ2h0PSIzNCIgd2lkdGg9IjE5Mi44NzUiIHk9Ii0xNyIgeD0iLTk2LjQzNzUiIHJ5PSIwIiByeD0iMCIgc3R5bGU9IiIgY2xhc3M9ImJhc2ljIGxhYmVsLWNvbnRhaW5lciI+PC9yZWN0PjxnIHRyYW5zZm9ybT0idHJhbnNsYXRlKC04OC45Mzc1LCAtOS41KSIgc3R5bGU9IiIgY2xhc3M9ImxhYmVsIj48dGV4dCBzdHlsZT0iIj48dHNwYW4gY2xhc3M9InJvdyIgeD0iMCIgZHk9IjFlbSIgeG1sOnNwYWNlPSJwcmVzZXJ2ZSI+RmllbGQgUmVzZWFyY2ggYW5kIFRyaWFsczwvdHNwYW4+PC90ZXh0PjwvZz48L2c+PGcgdHJhbnNmb3JtPSJ0cmFuc2xhdGUoNTEwLjk3NDYwOTM3NSwgMjEyKSIgaWQ9ImZsb3djaGFydC1HLTEzODEiIGNsYXNzPSJub2RlIGRlZmF1bHQgZGVmYXVsdCI+PHJlY3QgaGVpZ2h0PSIzNCIgd2lkdGg9IjE0MS41MjM0Mzc1IiB5PSItMTciIHg9Ii03MC43NjE3MTg3NSIgcnk9IjAiIHJ4PSIwIiBzdHlsZT0iIiBjbGFzcz0iYmFzaWMgbGFiZWwtY29udGFpbmVyIj48L3JlY3Q+PGcgdHJhbnNmb3JtPSJ0cmFuc2xhdGUoLTYzLjI2MTcxODc1LCAtOS41KSIgc3R5bGU9IiIgY2xhc3M9ImxhYmVsIj48dGV4dCBzdHlsZT0iIj48dHNwYW4gY2xhc3M9InJvdyIgeD0iMCIgZHk9IjFlbSIgeG1sOnNwYWNlPSJwcmVzZXJ2ZSI+RmllbGQgQWdyb25vbWlzdHM8L3RzcGFuPjwvdGV4dD48L2c+PC9nPjxnIHRyYW5zZm9ybT0idHJhbnNsYXRlKDY4Ny4xOTcyNjU2MjUsIDIxMikiIGlkPSJmbG93Y2hhcnQtSC0xMzgzIiBjbGFzcz0ibm9kZSBkZWZhdWx0IGRlZmF1bHQiPjxyZWN0IGhlaWdodD0iMzQiIHdpZHRoPSIxMTAuOTIxODc1IiB5PSItMTciIHg9Ii01NS40NjA5Mzc1IiByeT0iMCIgcng9IjAiIHN0eWxlPSIiIGNsYXNzPSJiYXNpYyBsYWJlbC1jb250YWluZXIiPjwvcmVjdD48ZyB0cmFuc2Zvcm09InRyYW5zbGF0ZSgtNDcuOTYwOTM3NSwgLTkuNSkiIHN0eWxlPSIiIGNsYXNzPSJsYWJlbCI+PHRleHQgc3R5bGU9IiI+PHRzcGFuIGNsYXNzPSJyb3ciIHg9IjAiIGR5PSIxZW0iIHhtbDpzcGFjZT0icHJlc2VydmUiPkRhdGEgQW5hbHlzdHM8L3RzcGFuPjwvdGV4dD48L2c+PC9nPjxnIHRyYW5zZm9ybT0idHJhbnNsYXRlKDg0OS41MzcxMDkzNzUsIDIxMikiIGlkPSJmbG93Y2hhcnQtSS0xMzg1IiBjbGFzcz0ibm9kZSBkZWZhdWx0IGRlZmF1bHQiPjxyZWN0IGhlaWdodD0iMzQiIHdpZHRoPSIxMTMuNzU3ODEyNSIgeT0iLTE3IiB4PSItNTYuODc4OTA2MjUiIHJ5PSIwIiByeD0iMCIgc3R5bGU9IiIgY2xhc3M9ImJhc2ljIGxhYmVsLWNvbnRhaW5lciI+PC9yZWN0PjxnIHRyYW5zZm9ybT0idHJhbnNsYXRlKC00OS4zNzg5MDYyNSwgLTkuNSkiIHN0eWxlPSIiIGNsYXNzPSJsYWJlbCI+PHRleHQgc3R5bGU9IiI+PHRzcGFuIGNsYXNzPSJyb3ciIHg9IjAiIGR5PSIxZW0iIHhtbDpzcGFjZT0icHJlc2VydmUiPlNvaWwgU2NpZW50aXN0czwvdHNwYW4+PC90ZXh0PjwvZz48L2c+PGcgdHJhbnNmb3JtPSJ0cmFuc2xhdGUoMTE3Ni44NjcxODc1LCAxMjgpIiBpZD0iZmxvd2NoYXJ0LUotMTM4NiIgY2xhc3M9Im5vZGUgZGVmYXVsdCBkZWZhdWx0Ij48cmVjdCBoZWlnaHQ9IjM0IiB3aWR0aD0iMTQyLjcxODc1IiB5PSItMTciIHg9Ii03MS4zNTkzNzUiIHJ5PSIwIiByeD0iMCIgc3R5bGU9IiIgY2xhc3M9ImJhc2ljIGxhYmVsLWNvbnRhaW5lciI+PC9yZWN0PjxnIHRyYW5zZm9ybT0idHJhbnNsYXRlKC02My44NTkzNzUsIC05LjUpIiBzdHlsZT0iIiBjbGFzcz0ibGFiZWwiPjx0ZXh0IHN0eWxlPSIiPjx0c3BhbiBjbGFzcz0icm93IiB4PSIwIiBkeT0iMWVtIiB4bWw6c3BhY2U9InByZXNlcnZlIj5SZWd1bGF0b3J5IEFmZmFpcnM8L3RzcGFuPjwvdGV4dD48L2c+PC9nPjxnIHRyYW5zZm9ybT0idHJhbnNsYXRlKDEwNDIuMTU0Mjk2ODc1LCAyMTIpIiBpZD0iZmxvd2NoYXJ0LUstMTM4NyIgY2xhc3M9Im5vZGUgZGVmYXVsdCBkZWZhdWx0Ij48cmVjdCBoZWlnaHQ9IjM0IiB3aWR0aD0iMTcxLjQ3NjU2MjUiIHk9Ii0xNyIgeD0iLTg1LjczODI4MTI1IiByeT0iMCIgcng9IjAiIHN0eWxlPSIiIGNsYXNzPSJiYXNpYyBsYWJlbC1jb250YWluZXIiPjwvcmVjdD48ZyB0cmFuc2Zvcm09InRyYW5zbGF0ZSgtNzguMjM4MjgxMjUsIC05LjUpIiBzdHlsZT0iIiBjbGFzcz0ibGFiZWwiPjx0ZXh0IHN0eWxlPSIiPjx0c3BhbiBjbGFzcz0icm93IiB4PSIwIiBkeT0iMWVtIiB4bWw6c3BhY2U9InByZXNlcnZlIj5SZWd1bGF0b3J5IFNwZWNpYWxpc3RzPC90c3Bhbj48L3RleHQ+PC9nPjwvZz48ZyB0cmFuc2Zvcm09InRyYW5zbGF0ZSgxMzU3LjE1MjM0Mzc1LCAyMTIpIiBpZD0iZmxvd2NoYXJ0LUwtMTM4OSIgY2xhc3M9Im5vZGUgZGVmYXVsdCBkZWZhdWx0Ij48cmVjdCBoZWlnaHQ9IjM0IiB3aWR0aD0iMTYwLjI4OTA2MjUiIHk9Ii0xNyIgeD0iLTgwLjE0NDUzMTI1IiByeT0iMCIgcng9IjAiIHN0eWxlPSIiIGNsYXNzPSJiYXNpYyBsYWJlbC1jb250YWluZXIiPjwvcmVjdD48ZyB0cmFuc2Zvcm09InRyYW5zbGF0ZSgtNzIuNjQ0NTMxMjUsIC05LjUpIiBzdHlsZT0iIiBjbGFzcz0ibGFiZWwiPjx0ZXh0IHN0eWxlPSIiPjx0c3BhbiBjbGFzcz0icm93IiB4PSIwIiBkeT0iMWVtIiB4bWw6c3BhY2U9InByZXNlcnZlIj5Db21wbGlhbmNlIE9mZmljZXJzPC90c3Bhbj48L3RleHQ+PC9nPjwvZz48ZyB0cmFuc2Zvcm09InRyYW5zbGF0ZSgyMzkxLjk1ODk4NDM3NSwgMjUpIiBpZD0iZmxvd2NoYXJ0LU0tMTM5MCIgY2xhc3M9Im5vZGUgZGVmYXVsdCBkZWZhdWx0Ij48cmVjdCBoZWlnaHQ9IjM0IiB3aWR0aD0iMTY5Ljc4OTA2MjUiIHk9Ii0xNyIgeD0iLTg0Ljg5NDUzMTI1IiByeT0iMCIgcng9IjAiIHN0eWxlPSIiIGNsYXNzPSJiYXNpYyBsYWJlbC1jb250YWluZXIiPjwvcmVjdD48ZyB0cmFuc2Zvcm09InRyYW5zbGF0ZSgtNzcuMzk0NTMxMjUsIC05LjUpIiBzdHlsZT0iIiBjbGFzcz0ibGFiZWwiPjx0ZXh0IHN0eWxlPSIiPjx0c3BhbiBjbGFzcz0icm93IiB4PSIwIiBkeT0iMWVtIiB4bWw6c3BhY2U9InByZXNlcnZlIj5Qcm9kdWN0IERldmVsb3BtZW50PC90c3Bhbj48L3RleHQ+PC9nPjwvZz48ZyB0cmFuc2Zvcm09InRyYW5zbGF0ZSgxMzY5LjAyNzM0Mzc1LCAxMjgpIiBpZD0iZmxvd2NoYXJ0LU4tMTM5MSIgY2xhc3M9Im5vZGUgZGVmYXVsdCBkZWZhdWx0Ij48cmVjdCBoZWlnaHQ9IjM0IiB3aWR0aD0iMTQxLjYwMTU2MjUiIHk9Ii0xNyIgeD0iLTcwLjgwMDc4MTI1IiByeT0iMCIgcng9IjAiIHN0eWxlPSIiIGNsYXNzPSJiYXNpYyBsYWJlbC1jb250YWluZXIiPjwvcmVjdD48ZyB0cmFuc2Zvcm09InRyYW5zbGF0ZSgtNjMuMzAwNzgxMjUsIC05LjUpIiBzdHlsZT0iIiBjbGFzcz0ibGFiZWwiPjx0ZXh0IHN0eWxlPSIiPjx0c3BhbiBjbGFzcz0icm93IiB4PSIwIiBkeT0iMWVtIiB4bWw6c3BhY2U9InByZXNlcnZlIj5Qcm9kdWN0IE1hbmFnZXJzPC90c3Bhbj48L3RleHQ+PC9nPjwvZz48ZyB0cmFuc2Zvcm09InRyYW5zbGF0ZSgxNTY3LjcxMDkzNzUsIDEyOCkiIGlkPSJmbG93Y2hhcnQtTy0xMzkzIiBjbGFzcz0ibm9kZSBkZWZhdWx0IGRlZmF1bHQiPjxyZWN0IGhlaWdodD0iMzQiIHdpZHRoPSIxNTUuNzY1NjI1IiB5PSItMTciIHg9Ii03Ny44ODI4MTI1IiByeT0iMCIgcng9IjAiIHN0eWxlPSIiIGNsYXNzPSJiYXNpYyBsYWJlbC1jb250YWluZXIiPjwvcmVjdD48ZyB0cmFuc2Zvcm09InRyYW5zbGF0ZSgtNzAuMzgyODEyNSwgLTkuNSkiIHN0eWxlPSIiIGNsYXNzPSJsYWJlbCI+PHRleHQgc3R5bGU9IiI+PHRzcGFuIGNsYXNzPSJyb3ciIHg9IjAiIGR5PSIxZW0iIHhtbDpzcGFjZT0icHJlc2VydmUiPk1hcmtldCBSZXNlYXJjaGVyczwvdHNwYW4+PC90ZXh0PjwvZz48L2c+PGcgdHJhbnNmb3JtPSJ0cmFuc2xhdGUoMTgwNi4yNTM5MDYyNSwgMTI4KSIgaWQ9ImZsb3djaGFydC1QLTEzOTQiIGNsYXNzPSJub2RlIGRlZmF1bHQgZGVmYXVsdCI+PHJlY3QgaGVpZ2h0PSIzNCIgd2lkdGg9IjIyMS4zMjAzMTI1IiB5PSItMTciIHg9Ii0xMTAuNjYwMTU2MjUiIHJ5PSIwIiByeD0iMCIgc3R5bGU9IiIgY2xhc3M9ImJhc2ljIGxhYmVsLWNvbnRhaW5lciI+PC9yZWN0PjxnIHRyYW5zZm9ybT0idHJhbnNsYXRlKC0xMDMuMTYwMTU2MjUsIC05LjUpIiBzdHlsZT0iIiBjbGFzcz0ibGFiZWwiPjx0ZXh0IHN0eWxlPSIiPjx0c3BhbiBjbGFzcz0icm93IiB4PSIwIiBkeT0iMWVtIiB4bWw6c3BhY2U9InByZXNlcnZlIj5Db21tZXJjaWFsaXphdGlvbiBhbmQgU2FsZXM8L3RzcGFuPjwvdGV4dD48L2c+PC9nPjxnIHRyYW5zZm9ybT0idHJhbnNsYXRlKDE1NzIuNDI1NzgxMjUsIDIxMikiIGlkPSJmbG93Y2hhcnQtUS0xMzk1IiBjbGFzcz0ibm9kZSBkZWZhdWx0IGRlZmF1bHQiPjxyZWN0IGhlaWdodD0iMzQiIHdpZHRoPSIxNzAuMjU3ODEyNSIgeT0iLTE3IiB4PSItODUuMTI4OTA2MjUiIHJ5PSIwIiByeD0iMCIgc3R5bGU9IiIgY2xhc3M9ImJhc2ljIGxhYmVsLWNvbnRhaW5lciI+PC9yZWN0PjxnIHRyYW5zZm9ybT0idHJhbnNsYXRlKC03Ny42Mjg5MDYyNSwgLTkuNSkiIHN0eWxlPSIiIGNsYXNzPSJsYWJlbCI+PHRleHQgc3R5bGU9IiI+PHRzcGFuIGNsYXNzPSJyb3ciIHg9IjAiIGR5PSIxZW0iIHhtbDpzcGFjZT0icHJlc2VydmUiPlNhbGVzIFJlcHJlc2VudGF0aXZlczwvdHNwYW4+PC90ZXh0PjwvZz48L2c+PGcgdHJhbnNmb3JtPSJ0cmFuc2xhdGUoMTg4OC42OTcyNjU2MjUsIDIxMikiIGlkPSJmbG93Y2hhcnQtUi0xMzk3IiBjbGFzcz0ibm9kZSBkZWZhdWx0IGRlZmF1bHQiPjxyZWN0IGhlaWdodD0iMzQiIHdpZHRoPSIxNjYuNjAxNTYyNSIgeT0iLTE3IiB4PSItODMuMzAwNzgxMjUiIHJ5PSIwIiByeD0iMCIgc3R5bGU9IiIgY2xhc3M9ImJhc2ljIGxhYmVsLWNvbnRhaW5lciI+PC9yZWN0PjxnIHRyYW5zZm9ybT0idHJhbnNsYXRlKC03NS44MDA3ODEyNSwgLTkuNSkiIHN0eWxlPSIiIGNsYXNzPSJsYWJlbCI+PHRleHQgc3R5bGU9IiI+PHRzcGFuIGNsYXNzPSJyb3ciIHg9IjAiIGR5PSIxZW0iIHhtbDpzcGFjZT0icHJlc2VydmUiPk1hcmtldGluZyBTcGVjaWFsaXN0czwvdHNwYW4+PC90ZXh0PjwvZz48L2c+PGcgdHJhbnNmb3JtPSJ0cmFuc2xhdGUoMjI0MC4zNTkzNzUsIDEyOCkiIGlkPSJmbG93Y2hhcnQtUy0xMzk4IiBjbGFzcz0ibm9kZSBkZWZhdWx0IGRlZmF1bHQiPjxyZWN0IGhlaWdodD0iMzQiIHdpZHRoPSIxNDEuODM1OTM3NSIgeT0iLTE3IiB4PSItNzAuOTE3OTY4NzUiIHJ5PSIwIiByeD0iMCIgc3R5bGU9IiIgY2xhc3M9ImJhc2ljIGxhYmVsLWNvbnRhaW5lciI+PC9yZWN0PjxnIHRyYW5zZm9ybT0idHJhbnNsYXRlKC02My40MTc5Njg3NSwgLTkuNSkiIHN0eWxlPSIiIGNsYXNzPSJsYWJlbCI+PHRleHQgc3R5bGU9IiI+PHRzcGFuIGNsYXNzPSJyb3ciIHg9IjAiIGR5PSIxZW0iIHhtbDpzcGFjZT0icHJlc2VydmUiPlF1YWxpdHkgQXNzdXJhbmNlPC90c3Bhbj48L3RleHQ+PC9nPjwvZz48ZyB0cmFuc2Zvcm09InRyYW5zbGF0ZSgyMTE1LjUwNTg1OTM3NSwgMjEyKSIgaWQ9ImZsb3djaGFydC1ULTEzOTkiIGNsYXNzPSJub2RlIGRlZmF1bHQgZGVmYXVsdCI+PHJlY3QgaGVpZ2h0PSIzNCIgd2lkdGg9IjE4Ny4wMTU2MjUiIHk9Ii0xNyIgeD0iLTkzLjUwNzgxMjUiIHJ5PSIwIiByeD0iMCIgc3R5bGU9IiIgY2xhc3M9ImJhc2ljIGxhYmVsLWNvbnRhaW5lciI+PC9yZWN0PjxnIHRyYW5zZm9ybT0idHJhbnNsYXRlKC04Ni4wMDc4MTI1LCAtOS41KSIgc3R5bGU9IiIgY2xhc3M9ImxhYmVsIj48dGV4dCBzdHlsZT0iIj48dHNwYW4gY2xhc3M9InJvdyIgeD0iMCIgZHk9IjFlbSIgeG1sOnNwYWNlPSJwcmVzZXJ2ZSI+UXVhbGl0eSBDb250cm9sIEFuYWx5c3RzPC90c3Bhbj48L3RleHQ+PC9nPjwvZz48ZyB0cmFuc2Zvcm09InRyYW5zbGF0ZSgyMzIyLjgwMjczNDM3NSwgMjEyKSIgaWQ9ImZsb3djaGFydC1VLTE0MDEiIGNsYXNzPSJub2RlIGRlZmF1bHQgZGVmYXVsdCI+PHJlY3QgaGVpZ2h0PSIzNCIgd2lkdGg9IjEyNy41NzgxMjUiIHk9Ii0xNyIgeD0iLTYzLjc4OTA2MjUiIHJ5PSIwIiByeD0iMCIgc3R5bGU9IiIgY2xhc3M9ImJhc2ljIGxhYmVsLWNvbnRhaW5lciI+PC9yZWN0PjxnIHRyYW5zZm9ybT0idHJhbnNsYXRlKC01Ni4yODkwNjI1LCAtOS41KSIgc3R5bGU9IiIgY2xhc3M9ImxhYmVsIj48dGV4dCBzdHlsZT0iIj48dHNwYW4gY2xhc3M9InJvdyIgeD0iMCIgZHk9IjFlbSIgeG1sOnNwYWNlPSJwcmVzZXJ2ZSI+TGFiIFRlY2huaWNpYW5zPC90c3Bhbj48L3RleHQ+PC9nPjwvZz48ZyB0cmFuc2Zvcm09InRyYW5zbGF0ZSgyNTg1Ljk2ODc1LCAxMjgpIiBpZD0iZmxvd2NoYXJ0LVYtMTQwMiIgY2xhc3M9Im5vZGUgZGVmYXVsdCBkZWZhdWx0Ij48cmVjdCBoZWlnaHQ9IjM0IiB3aWR0aD0iMjU5LjY4NzUiIHk9Ii0xNyIgeD0iLTEyOS44NDM3NSIgcnk9IjAiIHJ4PSIwIiBzdHlsZT0iIiBjbGFzcz0iYmFzaWMgbGFiZWwtY29udGFpbmVyIj48L3JlY3Q+PGcgdHJhbnNmb3JtPSJ0cmFuc2xhdGUoLTEyMi4zNDM3NSwgLTkuNSkiIHN0eWxlPSIiIGNsYXNzPSJsYWJlbCI+PHRleHQgc3R5bGU9IiI+PHRzcGFuIGNsYXNzPSJyb3ciIHg9IjAiIGR5PSIxZW0iIHhtbDpzcGFjZT0icHJlc2VydmUiPkludGVsbGVjdHVhbCBQcm9wZXJ0eSBNYW5hZ2VtZW50PC90c3Bhbj48L3RleHQ+PC9nPjwvZz48ZyB0cmFuc2Zvcm09InRyYW5zbGF0ZSgyNDg3LjI0ODA0Njg3NSwgMjEyKSIgaWQ9ImZsb3djaGFydC1XLTE0MDMiIGNsYXNzPSJub2RlIGRlZmF1bHQgZGVmYXVsdCI+PHJlY3QgaGVpZ2h0PSIzNCIgd2lkdGg9IjEwMS4zMTI1IiB5PSItMTciIHg9Ii01MC42NTYyNSIgcnk9IjAiIHJ4PSIwIiBzdHlsZT0iIiBjbGFzcz0iYmFzaWMgbGFiZWwtY29udGFpbmVyIj48L3JlY3Q+PGcgdHJhbnNmb3JtPSJ0cmFuc2xhdGUoLTQzLjE1NjI1LCAtOS41KSIgc3R5bGU9IiIgY2xhc3M9ImxhYmVsIj48dGV4dCBzdHlsZT0iIj48dHNwYW4gY2xhc3M9InJvdyIgeD0iMCIgZHk9IjFlbSIgeG1sOnNwYWNlPSJwcmVzZXJ2ZSI+SVAgQXR0b3JuZXlzPC90c3Bhbj48L3RleHQ+PC9nPjwvZz48ZyB0cmFuc2Zvcm09InRyYW5zbGF0ZSgyNjY4LjQxMjEwOTM3NSwgMjEyKSIgaWQ9ImZsb3djaGFydC1YLTE0MDUiIGNsYXNzPSJub2RlIGRlZmF1bHQgZGVmYXVsdCI+PHJlY3QgaGVpZ2h0PSIzNCIgd2lkdGg9IjE2MS4wMTU2MjUiIHk9Ii0xNyIgeD0iLTgwLjUwNzgxMjUiIHJ5PSIwIiByeD0iMCIgc3R5bGU9IiIgY2xhc3M9ImJhc2ljIGxhYmVsLWNvbnRhaW5lciI+PC9yZWN0PjxnIHRyYW5zZm9ybT0idHJhbnNsYXRlKC03My4wMDc4MTI1LCAtOS41KSIgc3R5bGU9IiIgY2xhc3M9ImxhYmVsIj48dGV4dCBzdHlsZT0iIj48dHNwYW4gY2xhc3M9InJvdyIgeD0iMCIgZHk9IjFlbSIgeG1sOnNwYWNlPSJwcmVzZXJ2ZSI+TGljZW5zaW5nIFNwZWNpYWxpc3RzPC90c3Bhbj48L3RleHQ+PC9nPjwvZz48ZyB0cmFuc2Zvcm09InRyYW5zbGF0ZSgyOTg5LjE4NzUsIDEyOCkiIGlkPSJmbG93Y2hhcnQtWS0xNDA2IiBjbGFzcz0ibm9kZSBkZWZhdWx0IGRlZmF1bHQiPjxyZWN0IGhlaWdodD0iMzQiIHdpZHRoPSIyMTAuNzU3ODEyNSIgeT0iLTE3IiB4PSItMTA1LjM3ODkwNjI1IiByeT0iMCIgcng9IjAiIHN0eWxlPSIiIGNsYXNzPSJiYXNpYyBsYWJlbC1jb250YWluZXIiPjwvcmVjdD48ZyB0cmFuc2Zvcm09InRyYW5zbGF0ZSgtOTcuODc4OTA2MjUsIC05LjUpIiBzdHlsZT0iIiBjbGFzcz0ibGFiZWwiPjx0ZXh0IHN0eWxlPSIiPjx0c3BhbiBjbGFzcz0icm93IiB4PSIwIiBkeT0iMWVtIiB4bWw6c3BhY2U9InByZXNlcnZlIj5GaW5hbmNlIGFuZCBBZG1pbmlzdHJhdGlvbjwvdHNwYW4+PC90ZXh0PjwvZz48L2c+PGcgdHJhbnNmb3JtPSJ0cmFuc2xhdGUoMjg3MC4xMjY5NTMxMjUsIDIxMikiIGlkPSJmbG93Y2hhcnQtWi0xNDA3IiBjbGFzcz0ibm9kZSBkZWZhdWx0IGRlZmF1bHQiPjxyZWN0IGhlaWdodD0iMzQiIHdpZHRoPSIxNDIuNDE0MDYyNSIgeT0iLTE3IiB4PSItNzEuMjA3MDMxMjUiIHJ5PSIwIiByeD0iMCIgc3R5bGU9IiIgY2xhc3M9ImJhc2ljIGxhYmVsLWNvbnRhaW5lciI+PC9yZWN0PjxnIHRyYW5zZm9ybT0idHJhbnNsYXRlKC02My43MDcwMzEyNSwgLTkuNSkiIHN0eWxlPSIiIGNsYXNzPSJsYWJlbCI+PHRleHQgc3R5bGU9IiI+PHRzcGFuIGNsYXNzPSJyb3ciIHg9IjAiIGR5PSIxZW0iIHhtbDpzcGFjZT0icHJlc2VydmUiPkZpbmFuY2lhbCBBbmFseXN0czwvdHNwYW4+PC90ZXh0PjwvZz48L2c+PGcgdHJhbnNmb3JtPSJ0cmFuc2xhdGUoMzA3MS42MzA4NTkzNzUsIDIxMikiIGlkPSJmbG93Y2hhcnQtQUEtMTQwOSIgY2xhc3M9Im5vZGUgZGVmYXVsdCBkZWZhdWx0Ij48cmVjdCBoZWlnaHQ9IjM0IiB3aWR0aD0iMTYwLjU5Mzc1IiB5PSItMTciIHg9Ii04MC4yOTY4NzUiIHJ5PSIwIiByeD0iMCIgc3R5bGU9IiIgY2xhc3M9ImJhc2ljIGxhYmVsLWNvbnRhaW5lciI+PC9yZWN0PjxnIHRyYW5zZm9ybT0idHJhbnNsYXRlKC03Mi43OTY4NzUsIC05LjUpIiBzdHlsZT0iIiBjbGFzcz0ibGFiZWwiPjx0ZXh0IHN0eWxlPSIiPjx0c3BhbiBjbGFzcz0icm93IiB4PSIwIiBkeT0iMWVtIiB4bWw6c3BhY2U9InByZXNlcnZlIj5BZG1pbmlzdHJhdGl2ZSBTdGFmZjwvdHNwYW4+PC90ZXh0PjwvZz48L2c+PGcgdHJhbnNmb3JtPSJ0cmFuc2xhdGUoMzQzNC4yMTQ4NDM3NSwgMTI4KSIgaWQ9ImZsb3djaGFydC1CQi0xNDEwIiBjbGFzcz0ibm9kZSBkZWZhdWx0IGRlZmF1bHQiPjxyZWN0IGhlaWdodD0iMzQiIHdpZHRoPSIyMDQuMDA3ODEyNSIgeT0iLTE3IiB4PSItMTAyLjAwMzkwNjI1IiByeT0iMCIgcng9IjAiIHN0eWxlPSIiIGNsYXNzPSJiYXNpYyBsYWJlbC1jb250YWluZXIiPjwvcmVjdD48ZyB0cmFuc2Zvcm09InRyYW5zbGF0ZSgtOTQuNTAzOTA2MjUsIC05LjUpIiBzdHlsZT0iIiBjbGFzcz0ibGFiZWwiPjx0ZXh0IHN0eWxlPSIiPjx0c3BhbiBjbGFzcz0icm93IiB4PSIwIiBkeT0iMWVtIiB4bWw6c3BhY2U9InByZXNlcnZlIj5TdXBwbHkgQ2hhaW4gYW5kIExvZ2lzdGljczwvdHNwYW4+PC90ZXh0PjwvZz48L2c+PGcgdHJhbnNmb3JtPSJ0cmFuc2xhdGUoMzI5MS4xMzg2NzE4NzUsIDIxMikiIGlkPSJmbG93Y2hhcnQtQ0MtMTQxMSIgY2xhc3M9Im5vZGUgZGVmYXVsdCBkZWZhdWx0Ij48cmVjdCBoZWlnaHQ9IjM0IiB3aWR0aD0iMTc4LjQyMTg3NSIgeT0iLTE3IiB4PSItODkuMjEwOTM3NSIgcnk9IjAiIHJ4PSIwIiBzdHlsZT0iIiBjbGFzcz0iYmFzaWMgbGFiZWwtY29udGFpbmVyIj48L3JlY3Q+PGcgdHJhbnNmb3JtPSJ0cmFuc2xhdGUoLTgxLjcxMDkzNzUsIC05LjUpIiBzdHlsZT0iIiBjbGFzcz0ibGFiZWwiPjx0ZXh0IHN0eWxlPSIiPjx0c3BhbiBjbGFzcz0icm93IiB4PSIwIiBkeT0iMWVtIiB4bWw6c3BhY2U9InByZXNlcnZlIj5TdXBwbHkgQ2hhaW4gTWFuYWdlcnM8L3RzcGFuPjwvdGV4dD48L2c+PC9nPjxnIHRyYW5zZm9ybT0idHJhbnNsYXRlKDM1MTYuNjU4MjAzMTI1LCAyMTIpIiBpZD0iZmxvd2NoYXJ0LURELTE0MTMiIGNsYXNzPSJub2RlIGRlZmF1bHQgZGVmYXVsdCI+PHJlY3QgaGVpZ2h0PSIzNCIgd2lkdGg9IjE3Mi42MTcxODc1IiB5PSItMTciIHg9Ii04Ni4zMDg1OTM3NSIgcnk9IjAiIHJ4PSIwIiBzdHlsZT0iIiBjbGFzcz0iYmFzaWMgbGFiZWwtY29udGFpbmVyIj48L3JlY3Q+PGcgdHJhbnNmb3JtPSJ0cmFuc2xhdGUoLTc4LjgwODU5Mzc1LCAtOS41KSIgc3R5bGU9IiIgY2xhc3M9ImxhYmVsIj48dGV4dCBzdHlsZT0iIj48dHNwYW4gY2xhc3M9InJvdyIgeD0iMCIgZHk9IjFlbSIgeG1sOnNwYWNlPSJwcmVzZXJ2ZSI+TG9naXN0aWNzIENvb3JkaW5hdG9yczwvdHNwYW4+PC90ZXh0PjwvZz48L2c+PGcgdHJhbnNmb3JtPSJ0cmFuc2xhdGUoMzc4My4xOTcyNjU2MjUsIDEyOCkiIGlkPSJmbG93Y2hhcnQtRUUtMTQxNCIgY2xhc3M9Im5vZGUgZGVmYXVsdCBkZWZhdWx0Ij48cmVjdCBoZWlnaHQ9IjM0IiB3aWR0aD0iMjMwLjg0Mzc1IiB5PSItMTciIHg9Ii0xMTUuNDIxODc1IiByeT0iMCIgcng9IjAiIHN0eWxlPSIiIGNsYXNzPSJiYXNpYyBsYWJlbC1jb250YWluZXIiPjwvcmVjdD48ZyB0cmFuc2Zvcm09InRyYW5zbGF0ZSgtMTA3LjkyMTg3NSwgLTkuNSkiIHN0eWxlPSIiIGNsYXNzPSJsYWJlbCI+PHRleHQgc3R5bGU9IiI+PHRzcGFuIGNsYXNzPSJyb3ciIHg9IjAiIGR5PSIxZW0iIHhtbDpzcGFjZT0icHJlc2VydmUiPkN1c3RvbWVyIFN1cHBvcnQgYW5kIFNlcnZpY2U8L3RzcGFuPjwvdGV4dD48L2c+PC9nPjxnIHRyYW5zZm9ybT0idHJhbnNsYXRlKDM3ODMuMTk3MjY1NjI1LCAyMTIpIiBpZD0iZmxvd2NoYXJ0LUZGLTE0MTUiIGNsYXNzPSJub2RlIGRlZmF1bHQgZGVmYXVsdCI+PHJlY3QgaGVpZ2h0PSIzNCIgd2lkdGg9IjI1OC42ODc1IiB5PSItMTciIHg9Ii0xMjkuMzQzNzUiIHJ5PSIwIiByeD0iMCIgc3R5bGU9IiIgY2xhc3M9ImJhc2ljIGxhYmVsLWNvbnRhaW5lciI+PC9yZWN0PjxnIHRyYW5zZm9ybT0idHJhbnNsYXRlKC0xMjEuODQzNzUsIC05LjUpIiBzdHlsZT0iIiBjbGFzcz0ibGFiZWwiPjx0ZXh0IHN0eWxlPSIiPjx0c3BhbiBjbGFzcz0icm93IiB4PSIwIiBkeT0iMWVtIiB4bWw6c3BhY2U9InByZXNlcnZlIj5DdXN0b21lciBTZXJ2aWNlIFJlcHJlc2VudGF0aXZlczwvdHNwYW4+PC90ZXh0PjwvZz48L2c+PC9nPjwvZz48L2c+PC9zdmc+;" parent="1" vertex="1">
                        <mxGeometry x="200" y="510" width="780" height="237" as="geometry"/>
                    </mxCell>
                </UserObject>
            </root>
        </mxGraphModel>
    </diagram>
</mxfile>